<?xml version="1.0" encoding="utf-8"?>
<!-- Generator: Adobe Illustrator 19.1.0, SVG Export Plug-In . SVG Version: 6.00 Build 0)  -->
<svg version="1.1" id="Layer_1" xmlns="http://www.w3.org/2000/svg" xmlns:xlink="http://www.w3.org/1999/xlink" x="0px" y="0px"
	 viewBox="150 182.2 911.4 429.8" style="enable-background:new 150 182.2 911.4 429.8;" xml:space="preserve">
<style type="text/css">
	.st0{fill:none;}
</style>
<g>
	<path d="M188.9,291.2l0.7,2.7c-2.3,2.1-3.8,3.7-4.5,4.9c-0.7,1.2-1.1,2.4-1.1,3.6c0,0.6,0.3,1.5,1,2.8c0.5,1,0.8,2,0.8,2.9
		c0,1.1-0.3,2-1,2.7s-1.5,1.1-2.6,1.1c-1.1,0-2-0.4-2.7-1.2c-0.7-0.8-1.1-1.9-1.1-3.2c0-2.3,0.8-4.8,2.3-7.4
		C182.2,297.5,184.9,294.5,188.9,291.2z M199.7,291.2l0.7,2.7c-2.3,2.1-3.8,3.7-4.6,4.9c-0.7,1.2-1.1,2.4-1.1,3.6
		c0,0.6,0.3,1.5,1,2.8c0.5,1,0.8,2,0.8,2.9c0,1.1-0.3,2-1,2.7c-0.7,0.7-1.5,1.1-2.6,1.1c-1.1,0-2-0.4-2.7-1.2
		c-0.7-0.8-1.1-1.9-1.1-3.2c0-2.3,0.8-4.8,2.3-7.4C192.9,297.5,195.8,294.5,199.7,291.2z"/>
	<path d="M235.1,316.3h-2.2c0.3-2.9,0.5-5.2,0.5-6.7c0-2.2-0.6-3.8-1.7-5.1c-1.2-1.2-2.7-1.9-4.7-1.9c-3.1,0-5.7,1.1-8,3.3
		c-2.3,2.2-3.4,4.7-3.4,7.5c0,1.5,0.3,2.8,0.9,4c0.6,1.2,2,2.9,4.2,5c3.9,3.9,6.5,6.9,7.7,9.1c1.2,2.2,1.8,4.3,1.8,6.4
		c0,3-0.9,6-2.8,8.8c-1.9,2.8-4.6,5.2-8.2,7c-3.6,1.8-7.4,2.7-11.5,2.7c-4,0-7.3-1-10-3.1c-2.7-2.1-4.1-4.2-4.1-6.5
		c0-1.2,0.4-2.2,1.1-3.1c0.7-0.8,1.5-1.2,2.5-1.2c0.9,0,1.7,0.4,2.3,1.1c0.4,0.4,0.8,1.5,1.2,3c0.4,1.9,1,3.3,1.6,4.1
		c0.6,0.9,1.5,1.6,2.7,2.1c1.1,0.5,2.4,0.8,3.7,0.8c4,0,7.5-1.3,10.5-4s4.5-5.7,4.5-9c0-1.1-0.2-2.2-0.6-3.3
		c-0.4-1.1-1.1-2.4-2.1-3.8c-0.7-1-2.2-2.6-4.7-5c-2.4-2.3-3.9-4-4.5-4.8c-0.9-1.3-1.5-2.5-1.9-3.8s-0.6-2.5-0.6-3.8
		c0-2.5,0.9-5.1,2.6-7.7c1.7-2.6,3.9-4.6,6.6-6.1c2.7-1.5,5.8-2.3,9.3-2.3c1.7,0,3.9,0.3,6.4,0.8c1.5,0.3,2.7,0.5,3.8,0.6
		c-0.6,1.8-1.1,3.5-1.4,5.1C236.1,308.3,235.6,311.5,235.1,316.3z"/>
	<path d="M250.4,308.6l6.7-2.6l-3,11.7h8.7l-0.7,3h-8.7l-3.7,14c-1.2,4.2-1.7,7.1-1.7,8.8c0,0.8,0.2,1.3,0.5,1.6
		c0.3,0.3,0.8,0.5,1.3,0.5c0.9,0,2.2-0.5,4-1.6c2.3-1.4,4.6-2.9,6.7-4.7l1.6,1.9c-6.1,4.6-10.2,7.4-12.3,8.5c-2.1,1-3.7,1.6-5,1.6
		c-1,0-1.9-0.4-2.5-1.1c-0.6-0.8-0.9-2-0.9-3.7c0-2,0.5-5.1,1.6-9.2l4.3-16.7h-6.8l0.8-3h6.8L250.4,308.6z"/>
	<path d="M294.7,314.4l2.8-0.6l-3.1,10.6c-1.3,4.2-2.4,9.1-3.6,14.6c-0.6,3-0.9,4.9-0.9,5.8s0.3,1.3,1,1.3c0.4,0,1.2-0.3,2.1-0.9
		c1.7-1,3.4-2.3,5-3.9l1.3,1.6c-3.2,2.9-5.2,4.7-6.1,5.3c-1.8,1.2-3.5,2.1-5.1,2.7c-1.1,0.4-2.1,0.6-3.1,0.6c-0.7,0-1.3-0.2-1.6-0.5
		c-0.4-0.3-0.5-0.8-0.5-1.5c0-0.4,0.1-1,0.3-1.7l1.7-5.7c-2.4,2.9-5.3,5.4-8.6,7.4c-2,1.3-3.9,1.9-5.6,1.9c-1.6,0-2.9-0.6-3.7-1.7
		c-1.2-1.5-1.8-3.5-1.8-6c0-3,0.8-6.3,2.4-9.9c1.6-3.6,3.7-6.9,6.3-9.9c2.7-3,5.4-5.1,8.4-6.5c2.3-1.1,5.2-1.6,8.7-1.6
		c0.9,0,1.8,0.1,2.7,0.2L294.7,314.4z M289.5,320.8c-1.5-0.3-2.8-0.5-3.8-0.5c-2.5,0-4.7,0.7-6.6,2.1c-1.9,1.4-3.6,3.9-5.2,7.5
		s-2.4,7.2-2.4,10.8c0,1.9,0.3,3.3,1,4.1c0.6,0.8,1.5,1.3,2.5,1.3c1.9,0,4-1,6.2-3.1c2.2-2.1,3.8-5.1,4.9-9L289.5,320.8z"/>
	<path d="M302.1,323.6l-1.3-2l3.1-2.1c3-2.1,5.1-3.4,6.4-4c0.7-0.3,1.3-0.5,1.9-0.5c0.6,0,1.1,0.3,1.7,1c2.5,3.1,4.5,7.3,6.2,12.5
		c1.7,5.3,2.5,10.4,2.5,15.3c0,0.6,0,1.6-0.1,2.9c4.7-8.7,7.1-15.6,7.1-20.7c0-1.1-0.2-2.5-0.7-4.2c-0.5-2-0.8-3.4-0.8-4.2
		s0.3-1.5,0.8-2s1.2-0.8,1.9-0.8c1,0,1.8,0.4,2.4,1.1c0.6,0.8,0.9,1.8,0.9,3.2c0,3.6-0.8,8.1-2.5,13.5c-1.6,5.4-4.2,11.2-7.8,17.4
		c-3.5,6.2-6.8,10.8-9.7,13.8s-5.7,5.2-8.5,6.5c-2.7,1.3-5.3,1.9-7.7,1.9c-1.8,0-3.2-0.3-4.2-1c-0.9-0.7-1.4-1.5-1.4-2.5
		c0-0.8,0.4-1.6,1.1-2.2c0.7-0.6,1.7-0.9,2.9-0.9c0.9,0,2.2,0.2,3.9,0.5c1.8,0.4,3,0.6,3.6,0.6c1.7,0,3.5-0.7,5.4-2.1
		c2.6-2,4.7-4.3,6.2-7s2.3-5.4,2.3-8.2c0-3.9-0.6-8.5-1.7-14c-1.1-5.4-2.7-9.6-4.8-12.5c-1-1.5-2.1-2.2-3.3-2.2
		C306.6,320.9,304.6,321.8,302.1,323.6z"/>
	<path d="M405.9,348.5l-0.5,2.4c-1.4,0.2-2.5,0.3-3.3,0.3c-1.2,0-2.8-0.1-4.8-0.3c-2.1-0.2-3.9-0.3-5.4-0.3c-1.2,0-2.4,0.2-3.7,0.6
		c1.1-3.2,2.4-7.7,3.9-13.4l3.2-12.6l-11.3,0.4c-2,0.1-4,0.3-6.1,0.5c-1.9,7.5-3.8,13-5.9,16.6c-2,3.6-4.3,6.2-6.9,7.9
		c-2.6,1.7-5.1,2.5-7.4,2.5c-2.3,0-4.3-0.6-6-1.7c-1.2-0.8-1.8-1.8-1.8-2.9c0-0.7,0.2-1.3,0.7-1.8s1-0.7,1.7-0.7
		c1.1,0,2.2,0.8,3.4,2.3c0.7,0.9,1.3,1.5,1.7,1.8c0.4,0.3,0.9,0.4,1.4,0.4c2.2,0,4.2-1.8,6.1-5.3c1.9-3.5,4.7-12.2,8.4-26.1
		l4.1-15.3c-5.6,0-9.8,0.9-12.6,2.8c-2.8,1.9-4.2,3.9-4.2,6.2c0,0.8,0.4,1.8,1.1,3c0.7,1.1,1,2,1,2.7c0,0.8-0.3,1.5-0.8,2
		s-1.2,0.8-1.9,0.8c-1,0-1.8-0.5-2.5-1.4c-0.7-0.9-1-2.3-1-4.1c0-3.2,1.2-6.1,3.5-8.6c2.3-2.5,5.8-4.2,10.2-5.3
		c2.6-0.6,7.7-0.9,15.4-0.9c-2.1,4.1-4.4,11.3-6.9,21.6c7.4,0,13.2-0.3,17.5-0.8c2.4-8.1,4.5-13.8,6.4-17c1.8-3.2,3.9-5.5,6.2-6.9
		c2.3-1.4,4.9-2.1,7.7-2.1c2.5,0,4.4,0.5,5.7,1.4c1.3,0.9,2,2,2,3.2c0,0.7-0.2,1.3-0.7,1.7s-1.1,0.7-1.8,0.7c-1,0-2.1-0.7-3.3-2.1
		c-1.3-1.4-2.4-2.1-3.3-2.1c-2.1,0-4.2,1.9-6.2,5.8c-3.6,6.9-7.8,21.6-12.6,43.9c0.5,0.1,1.1,0.2,2,0.3c1.6,0.3,2.9,0.4,3.8,0.4
		C403.2,348.9,404.5,348.7,405.9,348.5z"/>
	<path d="M442.1,316.2h6l-3.9,14.6c-2.3,8.5-3.5,13.3-3.5,14.5c0,0.5,0.1,0.9,0.4,1.2c0.3,0.3,0.5,0.4,0.8,0.4c0.5,0,1-0.2,1.7-0.6
		c0.9-0.6,2.7-2.3,5.2-4.9l1.4,1.6c-5.6,5.8-9.8,8.8-12.4,8.8c-0.9,0-1.7-0.3-2.3-1c-0.6-0.7-0.9-1.7-0.9-2.9c0-1.5,0.3-3.4,0.9-5.8
		c-2.5,2.9-5.6,5.4-9.2,7.5c-2.4,1.4-4.5,2.1-6.3,2.1c-1,0-1.7-0.3-2.3-1c-0.6-0.6-0.8-1.7-0.8-3.1c0-1.1,0.1-2.3,0.4-3.5
		c0.4-1.8,1.3-5.3,2.8-10.6c1.9-6.7,2.8-10.8,2.8-12.1c0-0.8-0.3-1.2-0.8-1.2s-1.2,0.3-2.1,0.8s-2.3,1.8-4.4,3.8l-1.8-1.5
		c3.7-3.4,6.6-5.6,8.6-6.6s3.6-1.6,4.8-1.6c0.7,0,1.2,0.2,1.6,0.7s0.6,1.3,0.6,2.3c0,1.9-1,6.7-3,14.2c-1.8,6.8-2.7,10.7-2.7,11.6
		c0,0.6,0.2,1.1,0.6,1.5c0.4,0.4,0.8,0.6,1.2,0.6c1.6,0,3.8-1.3,6.7-3.9c2.9-2.6,4.8-5.5,5.7-8.8L442.1,316.2z"/>
	<path d="M454.5,324.9l-1.4-1.5c3.6-3.4,6.4-5.7,8.6-6.8c2.1-1.1,3.9-1.7,5.5-1.7c0.6,0,1,0.1,1.4,0.4s0.5,0.5,0.5,0.9
		c0,0.3-0.1,0.7-0.2,1.3l-1.9,8.4c2.8-3.2,6.4-6.1,10.7-8.9c2.3-1.4,4.2-2.1,5.6-2.1c1.1,0,1.9,0.4,2.6,1c0.6,0.7,0.9,1.7,0.9,3
		c0,0.9-0.1,1.8-0.4,2.9c-0.4,1.8-1.6,5.8-3.5,11.9c-1.8,5.7-2.7,9.5-2.7,11.4c0,0.6,0.1,1,0.3,1.3c0.2,0.3,0.4,0.4,0.7,0.4
		c0.8,0,2.1-0.8,3.8-2.3c1.2-1.1,2.5-2.2,3.7-3.1l1,1.5c-2.6,2.8-5.2,5.1-8,6.8c-1.8,1.1-3.2,1.7-4.4,1.7c-1.1,0-1.9-0.4-2.5-1.2
		c-0.6-0.8-0.9-2-0.9-3.8c0-2.5,1.6-8.7,4.7-18.6c0.9-3.5,1.4-5.6,1.4-6.2c0-0.9-0.5-1.3-1.6-1.3s-2.6,0.6-4.3,1.8
		c-2.6,1.7-4.8,3.8-6.6,6.1c-1.1,1.5-2.1,3.9-2.8,7.2l-3.4,14.6h-6.2c1.2-4.2,2.2-8.2,3.1-12l3.7-15.9c0.1-0.6,0.2-1.1,0.2-1.4
		c0-0.8-0.3-1.1-0.8-1.1c-0.4,0-1.1,0.3-1.9,0.9C457.6,321.9,456,323.3,454.5,324.9z"/>
	<path d="M521,314.8l3.4-0.8c-2,6.5-3.9,13.1-5.6,19.7c-1.2,4.7-2.1,8.6-2.5,11.7c-0.3,1.6-0.4,3.5-0.4,6c-0.1,4-0.5,7.3-1.3,9.7
		c-1.2,3.4-3.4,6.2-6.6,8.3c-3.2,2.1-7,3.1-11.4,3.1c-3.8,0-6.7-0.9-8.9-2.7c-2.2-1.8-3.2-3.8-3.2-6.1s0.9-4.4,2.6-6.3
		c1.3-1.5,4-3.3,8.1-5.4c2.1-1.1,4-2.2,5.8-3.4c-2.1,1.1-3.7,1.6-4.8,1.6c-1,0-2-0.5-2.8-1.4c-0.8-1-1.2-2.2-1.2-3.8
		c0-5.1,1.5-10.2,4.6-15.3c3.1-5.1,6.7-8.9,11-11.4c2.7-1.6,6-2.3,10-2.3c0.8,0,1.7,0,2.9,0.1L521,314.8z M510.6,343.8
		c-1.9,1.7-5.6,4.4-11,8.2c-4.8,3.2-7.7,5.6-8.8,7c-1.1,1.5-1.6,3-1.6,4.6c0,1.6,0.7,3,2.1,4.3s3.1,1.9,5.1,1.9
		c1.9,0,3.8-0.5,5.5-1.4c1.8-0.9,3.4-2.3,4.7-4.1c1.3-1.8,2.2-3.8,2.8-6c0.5-2.2,0.8-5.2,0.8-8.9
		C510.2,348.6,510.3,346.8,510.6,343.8z M516.3,321c-1.3-0.3-2.5-0.4-3.6-0.4c-2.7,0-4.9,0.7-6.8,2.1c-1.9,1.4-3.5,3.7-4.9,7
		c-1.9,4.7-2.8,8.6-2.8,11.8c0,1.3,0.4,2.4,1.1,3.3c0.7,0.9,1.6,1.3,2.5,1.3c1.1,0,2.5-0.5,4.1-1.6s3-2.4,4-4s2.1-4.4,3.2-8.4
		L516.3,321z"/>
	<path d="M534.8,350.3h-6.2l2.9-11.3c1.4-5.5,2.7-10.8,3.7-15.8c0.3-1.2,0.4-2,0.4-2.3c0-0.7-0.3-1-0.9-1c-0.4,0-1.1,0.3-1.9,0.9
		c-0.9,0.6-2.4,2-4.7,4.3l-1.3-1.5c2.7-2.9,5.4-5,8-6.5c2.7-1.4,4.7-2.2,6.1-2.2c0.5,0,0.9,0.1,1.2,0.4c0.3,0.2,0.4,0.5,0.4,0.9
		c0,0.4-0.2,1.3-0.6,2.9l-1.8,7.5c2.8-4.5,6-8.3,9.6-11.4c1.7-1.5,3.1-2.3,4.3-2.3c0.8,0,1.5,0.3,2.1,0.8c0.6,0.5,0.8,1.2,0.8,1.9
		c0,0.8-0.3,1.4-0.8,1.9s-1.9,1.2-4.1,1.9c-2.1,0.7-3.7,1.5-5,2.5s-2.7,2.5-4.3,4.5c-1.5,2-2.6,3.8-3.2,5.3s-1.6,5-2.8,10.4
		L534.8,350.3z"/>
	<path d="M552.7,323.6l-1.3-2l3.1-2.1c3-2.1,5.1-3.4,6.4-4c0.7-0.3,1.3-0.5,1.9-0.5c0.6,0,1.1,0.3,1.7,1c2.5,3.1,4.5,7.3,6.2,12.5
		c1.7,5.3,2.5,10.4,2.5,15.3c0,0.6,0,1.6-0.1,2.9c4.7-8.7,7.1-15.6,7.1-20.7c0-1.1-0.2-2.5-0.7-4.2c-0.5-2-0.8-3.4-0.8-4.2
		s0.3-1.5,0.8-2s1.2-0.8,1.9-0.8c1,0,1.8,0.4,2.4,1.1c0.6,0.8,0.9,1.8,0.9,3.2c0,3.6-0.8,8.1-2.5,13.5c-1.6,5.4-4.2,11.2-7.8,17.4
		c-3.5,6.2-6.8,10.8-9.7,13.8c-2.9,3-5.7,5.2-8.5,6.5c-2.7,1.3-5.3,1.9-7.7,1.9c-1.8,0-3.2-0.3-4.2-1c-0.9-0.7-1.4-1.5-1.4-2.5
		c0-0.8,0.4-1.6,1.1-2.2c0.7-0.6,1.7-0.9,2.9-0.9c0.9,0,2.2,0.2,3.9,0.5c1.8,0.4,3,0.6,3.6,0.6c1.7,0,3.5-0.7,5.4-2.1
		c2.6-2,4.7-4.3,6.2-7s2.3-5.4,2.3-8.2c0-3.9-0.6-8.5-1.7-14c-1.1-5.4-2.7-9.6-4.8-12.5c-1-1.5-2.1-2.2-3.3-2.2
		C557.2,320.9,555.2,321.8,552.7,323.6z"/>
	<path d="M582.2,363.4l-0.8-2.7c2.5-2,4.5-3.9,5.9-5.8c0.9-1.3,1.3-2.3,1.3-3.1c0-0.8-0.3-1.8-1-3.1c-0.7-1.3-1-2.3-1-3.2
		c0-1.1,0.4-2,1.1-2.8c0.7-0.8,1.6-1.2,2.7-1.2s2.1,0.5,3,1.4c0.8,0.9,1.2,2.1,1.2,3.4c0,1.5-0.4,3.2-1.3,5.1s-2.1,3.8-3.8,5.6
		C587.2,359.6,584.7,361.7,582.2,363.4z"/>
	<path d="M660.7,316.3h-2.2c0.3-2.9,0.5-5.2,0.5-6.7c0-2.2-0.6-3.8-1.7-5.1c-1.2-1.2-2.7-1.9-4.7-1.9c-3.1,0-5.7,1.1-8,3.3
		s-3.4,4.7-3.4,7.5c0,1.5,0.3,2.8,0.9,4s2,2.9,4.2,5c3.9,3.9,6.5,6.9,7.7,9.1c1.2,2.2,1.8,4.3,1.8,6.4c0,3-0.9,6-2.8,8.8
		c-1.9,2.8-4.6,5.2-8.2,7c-3.6,1.8-7.4,2.7-11.5,2.7c-4,0-7.3-1-10-3.1s-4.1-4.2-4.1-6.5c0-1.2,0.4-2.2,1.1-3.1
		c0.7-0.8,1.5-1.2,2.5-1.2c0.9,0,1.7,0.4,2.3,1.1c0.4,0.4,0.8,1.5,1.2,3c0.4,1.9,1,3.3,1.6,4.1c0.6,0.9,1.5,1.6,2.7,2.1
		c1.1,0.5,2.4,0.8,3.7,0.8c4,0,7.5-1.3,10.5-4s4.5-5.7,4.5-9c0-1.1-0.2-2.2-0.6-3.3c-0.4-1.1-1.1-2.4-2.1-3.8c-0.7-1-2.3-2.6-4.7-5
		c-2.4-2.3-3.9-4-4.5-4.8c-0.9-1.3-1.5-2.5-1.9-3.8s-0.6-2.5-0.6-3.8c0-2.5,0.9-5.1,2.6-7.7c1.7-2.6,3.9-4.6,6.6-6.1
		c2.7-1.5,5.8-2.3,9.3-2.3c1.7,0,3.9,0.3,6.4,0.8c1.5,0.3,2.7,0.5,3.8,0.6c-0.6,1.8-1.1,3.5-1.4,5.1
		C661.8,308.3,661.3,311.5,660.7,316.3z"/>
	<path d="M676.1,308.6l6.7-2.6l-3,11.7h8.7l-0.7,3h-8.7l-3.7,14c-1.2,4.2-1.7,7.1-1.7,8.8c0,0.8,0.2,1.3,0.5,1.6
		c0.3,0.3,0.8,0.5,1.3,0.5c0.9,0,2.2-0.5,4-1.6c2.3-1.4,4.6-2.9,6.7-4.7l1.6,1.9c-6.1,4.6-10.2,7.4-12.3,8.5c-2.1,1-3.7,1.6-5,1.6
		c-1,0-1.9-0.4-2.5-1.1s-0.9-2-0.9-3.7c0-2,0.5-5.1,1.6-9.2l4.3-16.7h-6.8l0.8-3h6.8L676.1,308.6z"/>
	<path d="M720.4,314.4l2.8-0.6l-3.1,10.6c-1.3,4.2-2.4,9.1-3.6,14.6c-0.6,3-0.9,4.9-0.9,5.8s0.3,1.3,1,1.3c0.4,0,1.2-0.3,2.1-0.9
		c1.7-1,3.4-2.3,5-3.9l1.3,1.6c-3.2,2.9-5.2,4.7-6.1,5.3c-1.8,1.2-3.5,2.1-5.1,2.7c-1.1,0.4-2.1,0.6-3.1,0.6c-0.7,0-1.3-0.2-1.6-0.5
		c-0.4-0.3-0.5-0.8-0.5-1.5c0-0.4,0.1-1,0.3-1.7l1.7-5.7c-2.4,2.9-5.3,5.4-8.6,7.4c-2,1.3-3.9,1.9-5.6,1.9c-1.6,0-2.9-0.6-3.7-1.7
		c-1.2-1.5-1.8-3.5-1.8-6c0-3,0.8-6.3,2.4-9.9c1.6-3.6,3.7-6.9,6.3-9.9c2.7-3,5.4-5.1,8.4-6.5c2.3-1.1,5.2-1.6,8.7-1.6
		c0.9,0,1.8,0.1,2.7,0.2L720.4,314.4z M715.2,320.8c-1.5-0.3-2.8-0.5-3.8-0.5c-2.5,0-4.7,0.7-6.6,2.1c-1.9,1.4-3.6,3.9-5.2,7.5
		s-2.4,7.2-2.4,10.8c0,1.9,0.3,3.3,1,4.1c0.7,0.8,1.5,1.3,2.5,1.3c1.9,0,4-1,6.2-3.1s3.8-5.1,4.9-9L715.2,320.8z"/>
	<path d="M727.7,323.6l-1.3-2l3.1-2.1c3-2.1,5.1-3.4,6.4-4c0.7-0.3,1.3-0.5,1.9-0.5c0.6,0,1.1,0.3,1.7,1c2.5,3.1,4.5,7.3,6.2,12.5
		c1.7,5.3,2.5,10.4,2.5,15.3c0,0.6,0,1.6-0.1,2.9c4.7-8.7,7.1-15.6,7.1-20.7c0-1.1-0.2-2.5-0.7-4.2c-0.5-2-0.8-3.4-0.8-4.2
		s0.3-1.5,0.8-2s1.2-0.8,1.9-0.8c1,0,1.8,0.4,2.4,1.1c0.6,0.8,0.9,1.8,0.9,3.2c0,3.6-0.8,8.1-2.5,13.5c-1.6,5.4-4.2,11.2-7.8,17.4
		s-6.8,10.8-9.7,13.8s-5.7,5.2-8.5,6.5c-2.7,1.3-5.3,1.9-7.7,1.9c-1.8,0-3.2-0.3-4.2-1c-0.9-0.7-1.4-1.5-1.4-2.5
		c0-0.8,0.4-1.6,1.1-2.2c0.7-0.6,1.7-0.9,2.9-0.9c1,0,2.2,0.2,3.9,0.5c1.8,0.4,3,0.6,3.6,0.6c1.7,0,3.5-0.7,5.4-2.1
		c2.6-2,4.7-4.3,6.2-7s2.3-5.4,2.3-8.2c0-3.9-0.6-8.5-1.7-14c-1.1-5.4-2.7-9.6-4.8-12.5c-1-1.5-2.1-2.2-3.3-2.2
		C732.2,320.9,730.3,321.8,727.7,323.6z"/>
	<path d="M830.9,311.3h-2.3c0.5-2.3,0.7-3.9,0.7-4.5c0-0.9-0.3-1.6-1-2.1c-0.6-0.4-1.9-0.7-3.6-0.7H822h-0.9h-8.4
		c-0.2,0.6-0.6,2.3-1.3,4.9c-1.5,5.4-2.7,9.9-3.4,13.3h8.2c2,0,3.3-0.2,3.9-0.6c0.6-0.4,1.1-1.4,1.5-3h2.3c-0.9,3.5-1.6,7.2-2.3,11
		h-2.3c0.2-1.6,0.3-2.5,0.3-2.8c0-0.7-0.3-1.2-1-1.5c-0.4-0.2-1.5-0.3-3.2-0.4h-8c-0.8,3.9-1.9,8.1-3.2,12.6s-2.4,8-3.4,10.4
		c2.2,0.4,4.2,0.5,6,0.5c1.1,0,2.3-0.1,3.4-0.3l-0.7,2.4c-0.8,0.1-1.6,0.1-2.3,0.1c-0.6,0-2.5-0.1-5.8-0.3c-1.9-0.1-3.6-0.2-4.9-0.2
		c-2.7,0-5.6,0.3-8.7,0.8l0.5-2.3c2.5-0.5,4.1-1.1,4.9-1.7c0.8-0.6,1.4-1.3,1.8-2.1c0.9-1.7,2.5-7,4.9-15.8l6.4-25.1
		c-3.7,0.1-7,1-9.8,2.5c-2.8,1.6-5,3.7-6.7,6.3s-2.5,5.3-2.5,8c0,1.1,0.1,2.2,0.4,3.4c0.1,0.6,0.5,1.6,1.2,2.8
		c0.8,1.5,1.2,2.5,1.2,3.1c0,0.6-0.2,1.1-0.7,1.5c-0.5,0.4-1.1,0.6-1.8,0.6c-1.1,0-2-0.6-2.7-1.8c-1-1.6-1.4-3.8-1.4-6.7
		c0-5.6,2.2-10.8,6.6-15.5c4.4-4.7,10.2-7,17.4-7h16.1c1.8,0,3.8-0.1,5.9-0.3c0.6-0.1,2-0.3,4.1-0.9
		C832,305.9,831.2,309.7,830.9,311.3z"/>
	<path d="M851.6,315.1c2.7,0,5,1.1,6.8,3.3c1.8,2.2,2.7,5.2,2.7,9.1c0,6.2-2.2,11.8-6.5,16.7c-4.4,4.9-9,7.4-13.8,7.4
		c-3,0-5.4-1-7.2-2.9s-2.7-4.6-2.7-8c0-5.9,1.7-11.3,5-16.3C840,318.2,845.3,315.1,851.6,315.1z M848,318.2c-2.4,0-4.7,1.7-6.9,5.1
		s-3.3,8.1-3.3,14.1c0,3.6,0.7,6.5,2.1,8.6c1,1.5,2.3,2.3,4,2.3c2.3,0,4.5-1.5,6.4-4.4c2.5-3.8,3.7-8.5,3.7-14c0-4.2-0.6-7.2-1.7-9
		C851.1,319.1,849.7,318.2,848,318.2z"/>
	<path d="M885.9,315.1c2.7,0,5,1.1,6.8,3.3c1.8,2.2,2.7,5.2,2.7,9.1c0,6.2-2.2,11.8-6.5,16.7c-4.4,4.9-9,7.4-13.8,7.4
		c-3,0-5.4-1-7.2-2.9s-2.7-4.6-2.7-8c0-5.9,1.7-11.3,5-16.3C874.4,318.2,879.6,315.1,885.9,315.1z M882.4,318.2
		c-2.4,0-4.7,1.7-6.9,5.1s-3.3,8.1-3.3,14.1c0,3.6,0.7,6.5,2.1,8.6c1,1.5,2.3,2.3,4,2.3c2.3,0,4.5-1.5,6.4-4.4
		c2.5-3.8,3.7-8.5,3.7-14c0-4.2-0.6-7.2-1.7-9C885.5,319.1,884.1,318.2,882.4,318.2z"/>
	<path d="M916.9,340.2l1.4,1.5c-2.2,2.5-4.8,4.7-7.7,6.7c-3,2-5.4,3-7.4,3c-0.9,0-1.6-0.3-2.1-1c-0.6-0.7-0.8-1.6-0.8-2.7
		c0-2.2,0.9-6.9,2.6-13.9l4.5-18.4c1.6-6.6,3-11.1,4.1-13.4c1.7-3.4,4.2-6.1,7.3-8s6.5-2.8,10-2.8c1.2,0,2.1,0.3,2.8,0.9
		c0.7,0.6,1,1.3,1,2.1c0,0.9-0.3,1.6-1,2.2c-0.7,0.6-1.6,0.9-2.9,0.9c-0.8,0-2-0.1-3.5-0.4c-1.3-0.2-2.6-0.3-3.7-0.3s-2,0.2-2.6,0.7
		c-0.8,0.7-1.5,2.1-2.2,4.2c-0.7,2.1-1.7,6.4-3.2,12.7l-4.2,17.6c-2.1,8.8-3.1,13.4-3.1,13.8c0,0.9,0.3,1.3,1,1.3
		c0.6,0,1.5-0.4,2.7-1.1C912.2,344.4,914.6,342.5,916.9,340.2z"/>
	<path d="M921.4,324.8l-1.8-1.4c2.8-3.1,5.3-5.3,7.6-6.6s4.3-1.9,5.9-1.9c0.9,0,1.6,0.2,2.1,0.6s0.7,0.9,0.7,1.6
		c0,0.8-0.9,4.2-2.7,10.3c-3,9.9-4.4,15.9-4.4,17.9c0,0.4,0.1,0.7,0.3,1c0.2,0.3,0.4,0.4,0.6,0.4c0.9,0,3.2-1.7,6.9-5.2l1.6,1.6
		c-3.8,3.6-6.6,5.9-8.4,6.9s-3.2,1.5-4.3,1.5c-1,0-1.8-0.3-2.3-0.9c-0.6-0.6-0.9-1.5-0.9-2.6c0-3.5,2.1-12,6.3-25.6
		c0.2-0.6,0.3-1.2,0.3-1.7c0-0.6-0.3-0.8-0.8-0.8c-0.6,0-1.2,0.2-1.9,0.7C925.4,321,923.8,322.4,921.4,324.8z M937.8,297.1
		c0.9,0,1.6,0.3,2.1,0.9c0.6,0.6,0.8,1.3,0.8,2.2c0,1.2-0.4,2.3-1.3,3.2c-0.9,0.9-1.8,1.4-2.9,1.4c-0.8,0-1.5-0.3-2.1-0.9
		c-0.6-0.6-0.8-1.4-0.8-2.3c0-1.3,0.4-2.3,1.2-3.2C935.8,297.5,936.7,297.1,937.8,297.1z"/>
	<path d="M959,315.1c2.5,0,4.4,0.5,5.8,1.4c1.4,1,2,2.1,2,3.3c0,0.8-0.3,1.4-0.9,2c-0.6,0.6-1.3,0.8-2.1,0.8c-0.5,0-1-0.1-1.4-0.4
		c-0.4-0.2-1-0.8-1.7-1.8c-1.4-1.8-2.7-2.7-4.1-2.7c-1.1,0-2.2,0.4-3,1.3c-0.8,0.9-1.3,2-1.3,3.3c0,1.1,0.3,2.3,0.8,3.3
		s2,2.8,4.2,5.2c3.1,3.3,4.7,6.4,4.7,9.4s-1.3,5.5-3.8,7.8c-2.5,2.3-5.8,3.3-9.7,3.3c-3.3,0-5.8-0.7-7.4-2c-1.6-1.4-2.4-3-2.4-5
		c0-1,0.3-1.8,0.9-2.4c0.6-0.6,1.4-1,2.3-1c0.8,0,1.5,0.3,2,0.8c0.6,0.5,0.8,1.1,0.8,1.8c0,0.3,0,0.6-0.1,1.1c0,0.4,0,0.7,0,0.9
		c0,0.9,0.4,1.7,1.2,2.3c0.8,0.6,1.8,1,3.1,1c1.5,0,2.8-0.3,4-0.8c1.1-0.5,2-1.3,2.7-2.3s1-2.1,1-3.1s-0.3-2-0.9-3
		c-0.6-1-1.9-2.7-4-5c-2.9-3.2-4.4-6.3-4.4-9.3c0-2.7,1.1-5.1,3.3-7.2C952.8,316,955.6,315.1,959,315.1z"/>
	<path d="M1001.7,341.5l1.1,1.6c-2.6,2.8-5.2,5.1-7.9,6.8c-1.8,1.1-3.4,1.7-4.6,1.7c-1,0-1.8-0.4-2.4-1.2c-0.6-0.8-0.9-2-0.9-3.6
		c0-1.1,0.2-2.7,0.7-4.9c0.5-2.1,1.8-6.7,3.9-13.8c0.9-3.5,1.4-5.5,1.4-6.1c0-0.9-0.5-1.3-1.4-1.3c-1.2,0-2.6,0.6-4.4,1.8
		c-2.5,1.6-4.7,3.7-6.6,6.2c-1.2,1.6-2.2,4-2.9,7.1l-3.3,14.6h-6.2c1.3-4.9,2.4-8.9,3.1-12l6.2-26.9c1.1-5,2.6-8.8,4.4-11.5
		s4.2-4.8,7.2-6.4c3-1.6,5.9-2.4,8.7-2.4c1.2,0,2.2,0.3,2.8,0.9c0.7,0.6,1,1.3,1,2.3c0,0.8-0.3,1.4-1,2c-0.7,0.6-1.6,0.9-2.8,0.9
		c-0.7,0-1.5-0.1-2.6-0.2c-2.4-0.4-4.1-0.5-5-0.5c-1.3,0-2.3,0.5-3.1,1.6c-0.8,1-1.7,3.5-2.5,7.3l-4.7,20.7c3.3-3.5,7-6.4,10.9-8.8
		c2.3-1.4,4.1-2.1,5.5-2.1c1.1,0,1.9,0.3,2.6,1c0.6,0.6,0.9,1.5,0.9,2.7c0,1-0.1,1.9-0.3,2.9c-0.4,1.6-1.2,4.6-2.6,9
		c-1.8,6-2.9,9.7-3.2,11.1c-0.3,1.5-0.5,2.8-0.5,3.9c0,0.4,0.1,0.8,0.2,1c0.2,0.2,0.4,0.3,0.7,0.3c0.7,0,1.9-0.8,3.8-2.4
		C999,343.7,1000.2,342.7,1001.7,341.5z"/>
	<path d="M1015.8,311.9l-0.8-2.7c2.3-2.1,3.9-3.7,4.6-5c0.7-1.2,1.1-2.4,1.1-3.5c0-0.6-0.3-1.6-1-2.8c-0.5-1-0.8-1.9-0.8-2.8
		c0-1.1,0.3-2.1,1-2.8c0.7-0.7,1.5-1.1,2.6-1.1s2,0.4,2.7,1.2c0.7,0.8,1.1,1.9,1.1,3.2c0,2.3-0.8,4.8-2.3,7.4
		C1022.5,305.6,1019.7,308.5,1015.8,311.9z M1026.7,311.9l-0.7-2.7c2.3-2.1,3.8-3.7,4.6-5c0.7-1.2,1.1-2.4,1.1-3.5
		c0-0.6-0.3-1.6-1-2.8c-0.5-1-0.8-1.9-0.8-2.8c0-1.1,0.3-2.1,1-2.8c0.7-0.7,1.5-1.1,2.6-1.1c1.1,0,2,0.4,2.7,1.2
		c0.7,0.8,1.1,1.9,1.1,3.2c0,2.3-0.8,4.8-2.3,7.4C1033.3,305.6,1030.6,308.5,1026.7,311.9z"/>
</g>
<g>
	<path d="M889,395.4v-0.9h5.4v0.9H889z"/>
	<path d="M907.1,397c0,1.4-0.5,2.5-1.6,3.3c-1,0.8-2.4,1.2-4.1,1.2c-2,0-3.6-0.2-4.7-0.7v-1.2c1.2,0.5,2.7,0.8,4.6,0.8
		c1.4,0,2.4-0.3,3.3-0.9c0.8-0.6,1.2-1.5,1.2-2.5c0-0.6-0.1-1.2-0.4-1.6c-0.2-0.4-0.7-0.8-1.3-1.1c-0.6-0.3-1.5-0.7-2.6-1.1
		c-1.7-0.6-2.9-1.2-3.6-1.9c-0.7-0.7-1-1.6-1-2.7c0-1.3,0.5-2.3,1.5-3.1c1-0.8,2.2-1.2,3.7-1.2c1.6,0,3,0.3,4.4,0.9l-0.4,1
		c-1.4-0.6-2.7-0.9-4-0.9c-1.2,0-2.2,0.3-2.9,0.9c-0.7,0.6-1.1,1.4-1.1,2.3c0,0.6,0.1,1.1,0.3,1.5c0.2,0.4,0.6,0.7,1.1,1.1
		c0.5,0.3,1.4,0.7,2.6,1.1c1.3,0.4,2.3,0.9,2.9,1.3c0.6,0.4,1.1,0.9,1.4,1.5C906.8,395.6,907.1,396.2,907.1,397z"/>
	<path d="M913.6,400.5c0.7,0,1.4,0,1.8-0.2v0.9c-0.5,0.2-1.2,0.3-1.9,0.3c-1.1,0-1.9-0.3-2.4-0.9s-0.8-1.5-0.8-2.8v-8h-1.8v-0.6
		l1.8-0.5l0.6-2.8h0.6v3h3.7v1h-3.7v7.8c0,1,0.1,1.7,0.5,2.1C912.3,400.2,912.9,400.5,913.6,400.5z"/>
	<path d="M923.1,401.5c-1.8,0-3.2-0.5-4.2-1.7c-1-1.1-1.5-2.7-1.5-4.7s0.5-3.6,1.5-4.8c1-1.2,2.3-1.8,3.9-1.8c1.5,0,2.6,0.5,3.5,1.5
		c0.8,1,1.3,2.4,1.3,4.1v0.9h-9c0,1.7,0.4,3,1.2,3.9c0.8,0.9,1.9,1.4,3.4,1.4c0.7,0,1.3,0,1.8-0.1c0.5-0.1,1.2-0.3,2-0.6v1
		c-0.7,0.3-1.4,0.5-1.9,0.6C924.5,401.4,923.9,401.5,923.1,401.5z M922.8,389.6c-1.2,0-2.1,0.4-2.9,1.2c-0.7,0.8-1.2,1.9-1.3,3.4
		h7.7c0-1.5-0.3-2.6-0.9-3.4C924.8,390.1,923.9,389.6,922.8,389.6z"/>
	<path d="M933.7,401.3l-4.8-12.4h1.2l3.2,8.4c0.4,1.1,0.7,2,1,2.8h0c0.3-1,0.6-2,1-2.9l3.2-8.4h1.2l-4.8,12.4L933.7,401.3
		L933.7,401.3z"/>
	<path d="M946.7,401.5c-1.8,0-3.2-0.5-4.2-1.7c-1-1.1-1.5-2.7-1.5-4.7s0.5-3.6,1.5-4.8c1-1.2,2.3-1.8,3.9-1.8c1.5,0,2.6,0.5,3.5,1.5
		s1.3,2.4,1.3,4.1v0.9h-9c0,1.7,0.4,3,1.2,3.9c0.8,0.9,1.9,1.4,3.4,1.4c0.7,0,1.3,0,1.8-0.1c0.5-0.1,1.2-0.3,2-0.6v1
		c-0.7,0.3-1.4,0.5-1.9,0.6C948,401.4,947.4,401.5,946.7,401.5z M946.4,389.6c-1.2,0-2.1,0.4-2.9,1.2c-0.7,0.8-1.2,1.9-1.3,3.4h7.7
		c0-1.5-0.3-2.6-0.9-3.4C948.4,390.1,947.5,389.6,946.4,389.6z"/>
	<path d="M958.1,405.5c-0.7,0-1.3-0.1-1.7-0.3v-1c0.6,0.1,1.2,0.2,1.7,0.2c1.8,0,2.8-1,2.8-3v-16.8h1.2v16.7
		C962,404.1,960.7,405.5,958.1,405.5z"/>
	<path d="M976.6,395.1c0,2-0.5,3.6-1.5,4.7c-1,1.1-2.3,1.7-4,1.7c-1.1,0-2-0.2-2.9-0.8c-0.8-0.5-1.5-1.3-1.9-2.2s-0.7-2.1-0.7-3.4
		c0-2,0.5-3.6,1.5-4.7c1-1.1,2.3-1.7,4-1.7c1.7,0,3,0.6,4,1.7C976.1,391.5,976.6,393.1,976.6,395.1z M966.8,395.1c0,1.7,0.4,3,1.1,4
		c0.7,1,1.8,1.4,3.2,1.4c1.4,0,2.4-0.5,3.2-1.4c0.7-0.9,1.1-2.3,1.1-4s-0.4-3-1.1-4c-0.7-1-1.8-1.4-3.2-1.4s-2.4,0.5-3.2,1.4
		C967.1,392,966.8,393.3,966.8,395.1z"/>
	<path d="M985.2,388.7c1.8,0,3,0.5,3.9,1.7c0.9,1.1,1.3,2.7,1.3,4.8c0,2-0.4,3.7-1.4,4.8c-0.9,1.1-2.2,1.7-3.9,1.7
		c-0.9,0-1.7-0.2-2.4-0.5c-0.7-0.3-1.3-0.9-1.7-1.6h-0.1l-0.3,1.8H980v-17.8h1.1v4.5c0,0.7,0,1.3,0,1.8l0,1h0.1
		c0.5-0.7,1-1.3,1.7-1.7C983.5,388.8,984.3,388.7,985.2,388.7z M985.2,389.7c-1.5,0-2.5,0.4-3.1,1.3c-0.6,0.8-0.9,2.2-0.9,4.1v0.2
		c0,1.8,0.3,3.2,1,4c0.6,0.8,1.7,1.2,3.1,1.2c1.4,0,2.4-0.5,3.1-1.4s1-2.3,1-4C989.3,391.5,988,389.7,985.2,389.7z"/>
	<path d="M1001.6,398.1c0,1.1-0.4,1.9-1.3,2.6c-0.8,0.6-2,0.9-3.6,0.9c-1.7,0-3-0.2-3.9-0.8v-1.2c1.3,0.6,2.6,0.9,3.9,0.9
		c1.2,0,2.1-0.2,2.8-0.6c0.6-0.4,1-0.9,1-1.6c0-0.6-0.2-1.2-0.8-1.6c-0.5-0.4-1.3-0.8-2.5-1.3c-1.2-0.4-2.1-0.8-2.6-1.2
		c-0.5-0.3-0.9-0.7-1.1-1.1c-0.2-0.4-0.4-0.9-0.4-1.5c0-0.9,0.4-1.7,1.2-2.2c0.8-0.5,1.8-0.8,3.3-0.8c1.4,0,2.6,0.2,3.8,0.7l-0.4,1
		c-1.2-0.5-2.3-0.7-3.4-0.7c-1,0-1.8,0.1-2.4,0.5c-0.6,0.3-0.9,0.8-0.9,1.4s0.2,1.2,0.7,1.6c0.4,0.4,1.4,0.8,2.7,1.3
		c1.1,0.4,1.9,0.8,2.4,1.1c0.5,0.3,0.9,0.7,1.2,1.1C1001.5,397,1001.6,397.5,1001.6,398.1z"/>
</g>
<rect x="585.4" y="247.1" class="st0" width="335" height="173"/>
</svg>
