<?xml version="1.0" encoding="utf-8"?>
<!-- Generator: Adobe Illustrator 19.1.0, SVG Export Plug-In . SVG Version: 6.00 Build 0)  -->
<svg version="1.1" id="Layer_1" xmlns="http://www.w3.org/2000/svg" xmlns:xlink="http://www.w3.org/1999/xlink" x="0px" y="0px"
	 viewBox="0 0 600 200" style="enable-background:new 0 0 600 200;" xml:space="preserve">
<style type="text/css">
	.st0{fill:#FFFFFF;}
</style>
<g>
	<path class="st0" d="M88.5,83.7h-2.3l-8.7-30.4c-0.7-2.5-1.3-4.6-1.6-6.2c-0.3,1.6-0.7,3.4-1.2,5.4c-0.5,2-3.4,12.4-8.7,31.2h-2.3
		L52.8,44.2h2.9l6.9,25.4c0.3,1,0.5,2,0.8,2.8c0.2,0.9,0.4,1.7,0.6,2.5c0.2,0.8,0.4,1.5,0.5,2.2c0.2,0.7,0.3,1.4,0.4,2.1
		c0.4-2.4,1.3-6.2,2.8-11.1l6.7-23.9h3.1l7.9,27.5c0.9,3.2,1.6,5.7,2,7.7c0.2-1.3,0.5-2.7,0.9-4.1c0.4-1.5,3.1-11.8,8.3-31h2.8
		L88.5,83.7z"/>
	<path class="st0" d="M123.5,83.7l-0.7-4.6h-0.2c-1.5,1.9-3,3.2-4.5,4c-1.6,0.8-3.4,1.2-5.5,1.2c-2.9,0-5.1-0.7-6.7-2.2
		c-1.6-1.5-2.4-3.5-2.4-6.1c0-2.9,1.2-5.1,3.6-6.7c2.4-1.6,5.8-2.4,10.4-2.5l5.6-0.2v-1.9c0-2.8-0.6-4.9-1.7-6.3
		c-1.1-1.4-3-2.1-5.5-2.1c-2.7,0-5.5,0.8-8.4,2.3l-1-2.3c3.2-1.5,6.4-2.3,9.6-2.3c3.2,0,5.6,0.8,7.2,2.5s2.4,4.3,2.4,7.8v19.5H123.5
		z M112.7,81.8c3.1,0,5.6-0.9,7.4-2.7c1.8-1.8,2.7-4.3,2.7-7.5v-2.9l-5.1,0.2c-4.1,0.2-7.1,0.8-8.8,1.9c-1.8,1.1-2.6,2.8-2.6,5.1
		c0,1.8,0.6,3.3,1.7,4.3C109.1,81.3,110.6,81.8,112.7,81.8z"/>
	<path class="st0" d="M145.7,53.8c2.1,0,4,0.4,5.5,1.2c1.5,0.8,2.9,2.1,4.2,4h0.2c-0.1-2.3-0.2-4.5-0.2-6.7V41.7h2.6v42h-1.8
		l-0.7-4.5h-0.2c-2.2,3.3-5.4,5-9.6,5c-4,0-7.1-1.3-9.3-3.8c-2.1-2.5-3.2-6.2-3.2-11c0-5.1,1.1-9,3.2-11.6
		C138.6,55.1,141.7,53.8,145.7,53.8z M145.7,56.2c-3.2,0-5.6,1.1-7.2,3.4c-1.6,2.2-2.4,5.5-2.4,9.8c0,8.3,3.2,12.5,9.7,12.5
		c3.3,0,5.7-1,7.3-2.9s2.3-5.1,2.3-9.5V69c0-4.5-0.8-7.8-2.3-9.8S149.1,56.2,145.7,56.2z"/>
	<path class="st0" d="M185.7,83.7L185,79h-0.2c-1.5,1.9-3,3.2-4.5,4c-1.6,0.8-3.4,1.2-5.5,1.2c-2.9,0-5.1-0.7-6.7-2.2
		c-1.6-1.5-2.4-3.5-2.4-6.1c0-2.9,1.2-5.1,3.6-6.7c2.4-1.6,5.8-2.4,10.4-2.5l5.6-0.2v-1.9c0-2.8-0.6-4.9-1.7-6.3
		c-1.1-1.4-3-2.1-5.5-2.1c-2.7,0-5.5,0.8-8.4,2.3l-1-2.3c3.2-1.5,6.4-2.3,9.6-2.3c3.2,0,5.6,0.8,7.2,2.5s2.4,4.3,2.4,7.8v19.5H185.7
		z M174.9,81.8c3.1,0,5.6-0.9,7.4-2.7c1.8-1.8,2.7-4.3,2.7-7.5v-2.9l-5.1,0.2c-4.1,0.2-7.1,0.8-8.8,1.9c-1.8,1.1-2.6,2.8-2.6,5.1
		c0,1.8,0.6,3.3,1.7,4.3C171.2,81.3,172.8,81.8,174.9,81.8z"/>
	<path class="st0" d="M217.6,83.7v-19c0-3-0.6-5.1-1.9-6.4c-1.2-1.3-3.2-2-5.8-2c-3.5,0-6.1,0.9-7.7,2.7c-1.6,1.8-2.4,4.6-2.4,8.6
		v16.2h-2.7v-42h2.7v13.4l-0.1,3.8h0.2c1.1-1.8,2.5-3,4.2-3.8c1.7-0.8,3.8-1.2,6.2-1.2c6.7,0,10,3.6,10,10.7v19.2H217.6z"/>
	<path class="st0" d="M244.8,83.7V44.2h2.8v39.5H244.8z"/>
	<path class="st0" d="M278.5,83.7v-19c0-3-0.6-5.1-1.9-6.4c-1.2-1.3-3.2-2-5.8-2c-3.5,0-6.1,0.9-7.7,2.7c-1.6,1.8-2.4,4.6-2.4,8.6
		v16.2H258V54.3h2.3l0.5,4h0.2c1.9-3.1,5.3-4.6,10.2-4.6c6.7,0,10,3.6,10,10.7v19.2H278.5z"/>
	<path class="st0" d="M308.8,76c0,2.6-1,4.6-3,6.1c-2,1.4-4.8,2.1-8.5,2.1c-3.9,0-7-0.6-9.3-1.8v-2.9c3,1.5,6.1,2.2,9.3,2.2
		c2.9,0,5.1-0.5,6.6-1.4c1.5-1,2.3-2.2,2.3-3.8c0-1.5-0.6-2.7-1.8-3.7c-1.2-1-3.2-2-5.9-3c-2.9-1.1-5-2-6.2-2.7s-2.1-1.6-2.7-2.6
		c-0.6-1-0.9-2.1-0.9-3.5c0-2.2,0.9-3.9,2.8-5.2c1.8-1.3,4.4-1.9,7.7-1.9c3.2,0,6.2,0.6,9,1.8l-1,2.4c-2.9-1.2-5.6-1.8-8-1.8
		c-2.4,0-4.3,0.4-5.7,1.2c-1.4,0.8-2.1,1.9-2.1,3.3c0,1.5,0.5,2.8,1.6,3.7c1.1,0.9,3.2,1.9,6.4,3.1c2.6,1,4.6,1.8,5.8,2.6
		c1.2,0.8,2.1,1.6,2.7,2.6C308.5,73.6,308.8,74.7,308.8,76z"/>
	<path class="st0" d="M334.2,83.7l-0.7-4.6h-0.2c-1.5,1.9-3,3.2-4.5,4c-1.6,0.8-3.4,1.2-5.5,1.2c-2.9,0-5.1-0.7-6.7-2.2
		c-1.6-1.5-2.4-3.5-2.4-6.1c0-2.9,1.2-5.1,3.6-6.7c2.4-1.6,5.8-2.4,10.4-2.5l5.6-0.2v-1.9c0-2.8-0.6-4.9-1.7-6.3
		c-1.1-1.4-3-2.1-5.5-2.1c-2.7,0-5.5,0.8-8.4,2.3l-1-2.3c3.2-1.5,6.4-2.3,9.6-2.3c3.2,0,5.6,0.8,7.2,2.5c1.6,1.7,2.4,4.3,2.4,7.8
		v19.5H334.2z M323.4,81.8c3.1,0,5.6-0.9,7.4-2.7c1.8-1.8,2.7-4.3,2.7-7.5v-2.9l-5.1,0.2c-4.1,0.2-7.1,0.8-8.8,1.9
		c-1.8,1.1-2.6,2.8-2.6,5.1c0,1.8,0.6,3.3,1.7,4.3C319.8,81.3,321.3,81.8,323.4,81.8z"/>
	<path class="st0" d="M366.1,83.7v-19c0-3-0.6-5.1-1.9-6.4c-1.2-1.3-3.2-2-5.8-2c-3.5,0-6.1,0.9-7.7,2.7c-1.6,1.8-2.4,4.6-2.4,8.6
		v16.2h-2.7V54.3h2.3l0.5,4h0.2c1.9-3.1,5.3-4.6,10.2-4.6c6.7,0,10,3.6,10,10.7v19.2H366.1z"/>
	<path class="st0" d="M419.8,83.7h-3.4l-15.1-20.8l-5.3,4.6v16.2h-2.8V44.2h2.8v20.5l4.4-4.4l15.5-16.1h3.5l-16.2,16.7L419.8,83.7z"
		/>
	<path class="st0" d="M436.3,53.8c1.2,0,2.6,0.1,4,0.4l-0.5,2.6c-1.2-0.3-2.5-0.5-3.8-0.5c-2.5,0-4.6,1.1-6.2,3.2
		c-1.6,2.1-2.4,4.8-2.4,8v16.2h-2.7V54.3h2.3l0.3,5.3h0.2c1.2-2.2,2.5-3.7,3.9-4.5C432.7,54.2,434.4,53.8,436.3,53.8z"/>
	<path class="st0" d="M458.1,84.2c-4.3,0-7.6-1.3-10-3.9c-2.4-2.6-3.6-6.3-3.6-11c0-4.7,1.2-8.4,3.5-11.2c2.3-2.8,5.4-4.2,9.3-4.2
		c3.5,0,6.2,1.2,8.2,3.6c2,2.4,3,5.7,3,9.8v2.2h-21.1c0,4,1,7.1,2.8,9.2c1.8,2.1,4.5,3.2,7.9,3.2c1.7,0,3.1-0.1,4.4-0.4
		c1.3-0.2,2.9-0.7,4.8-1.5v2.4c-1.7,0.7-3.2,1.2-4.6,1.5C461.3,84.1,459.8,84.2,458.1,84.2z M457.3,56.2c-2.8,0-5.1,0.9-6.8,2.8
		c-1.7,1.9-2.7,4.5-3,8.1h18.1c0-3.4-0.7-6.1-2.2-8C462,57.1,459.9,56.2,457.3,56.2z"/>
	<path class="st0" d="M494.4,83.7l-0.7-4.6h-0.2c-1.5,1.9-3,3.2-4.5,4c-1.6,0.8-3.4,1.2-5.5,1.2c-2.9,0-5.1-0.7-6.7-2.2
		c-1.6-1.5-2.4-3.5-2.4-6.1c0-2.9,1.2-5.1,3.6-6.7c2.4-1.6,5.8-2.4,10.4-2.5l5.6-0.2v-1.9c0-2.8-0.6-4.9-1.7-6.3
		c-1.1-1.4-3-2.1-5.5-2.1c-2.7,0-5.5,0.8-8.4,2.3l-1-2.3c3.2-1.5,6.4-2.3,9.6-2.3c3.2,0,5.6,0.8,7.2,2.5c1.6,1.7,2.4,4.3,2.4,7.8
		v19.5H494.4z M483.6,81.8c3.1,0,5.6-0.9,7.4-2.7c1.8-1.8,2.7-4.3,2.7-7.5v-2.9l-5.1,0.2c-4.1,0.2-7.1,0.8-8.8,1.9
		c-1.8,1.1-2.6,2.8-2.6,5.1c0,1.8,0.6,3.3,1.7,4.3C480,81.3,481.6,81.8,483.6,81.8z"/>
	<path class="st0" d="M513.6,81.9c1.7,0,3.2-0.1,4.4-0.4v2.2c-1.3,0.4-2.8,0.6-4.5,0.6c-2.6,0-4.5-0.7-5.7-2.1
		c-1.2-1.4-1.8-3.6-1.8-6.5V56.7h-4.3v-1.6l4.3-1.2l1.3-6.6h1.4v7.1h8.6v2.3h-8.6v18.6c0,2.2,0.4,3.9,1.2,5S511.9,81.9,513.6,81.9z"
		/>
	<path class="st0" d="M524,46.2c0-1.7,0.6-2.6,1.7-2.6c0.6,0,1,0.2,1.3,0.7c0.3,0.5,0.5,1.1,0.5,1.9c0,0.8-0.2,1.4-0.5,1.9
		c-0.3,0.5-0.8,0.7-1.3,0.7C524.6,48.8,524,47.9,524,46.2z M527.1,83.7h-2.7V54.3h2.7V83.7z"/>
	<path class="st0" d="M547.8,56.7h-6.9v27h-2.7v-27h-5.5v-1.6l5.5-1v-2.3c0-3.6,0.7-6.2,2-7.9c1.3-1.7,3.5-2.5,6.5-2.5
		c1.6,0,3.2,0.2,4.9,0.7l-0.6,2.3c-1.4-0.4-2.9-0.7-4.3-0.7c-2.1,0-3.6,0.6-4.4,1.8c-0.9,1.2-1.3,3.2-1.3,6v2.7h6.9V56.7z"/>
	<path class="st0" d="M48.2,129.9c0,6.6-1.7,11.6-5.2,15c-3.5,3.4-8.6,5.1-15.3,5.1h-9.4v-39.5h10.7c6.3,0,11.1,1.6,14.4,4.9
		C46.5,118.8,48.2,123.6,48.2,129.9z M45.2,130c0-5.7-1.4-9.9-4.3-12.8s-7.1-4.3-12.6-4.3H21v34.6h6.5
		C39.3,147.6,45.2,141.7,45.2,130z"/>
	<path class="st0" d="M74.4,150l-0.7-4.6h-0.2c-1.5,1.9-3,3.2-4.5,4c-1.6,0.8-3.4,1.2-5.5,1.2c-2.9,0-5.1-0.7-6.7-2.2
		c-1.6-1.5-2.4-3.5-2.4-6.1c0-2.9,1.2-5.1,3.6-6.7c2.4-1.6,5.8-2.4,10.4-2.5l5.6-0.2v-1.9c0-2.8-0.6-4.9-1.7-6.3
		c-1.1-1.4-3-2.1-5.5-2.1c-2.7,0-5.5,0.8-8.4,2.3l-1-2.3c3.2-1.5,6.4-2.3,9.6-2.3c3.2,0,5.6,0.8,7.2,2.5c1.6,1.7,2.4,4.3,2.4,7.8
		V150H74.4z M63.6,148.1c3.1,0,5.6-0.9,7.4-2.7c1.8-1.8,2.7-4.3,2.7-7.5v-2.9l-5.1,0.2c-4.1,0.2-7.1,0.8-8.8,1.9s-2.6,2.8-2.6,5.1
		c0,1.8,0.6,3.3,1.7,4.3C60,147.6,61.5,148.1,63.6,148.1z"/>
	<path class="st0" d="M88.5,150h-2.7v-42h2.7V150z"/>
	<path class="st0" d="M116.2,150l-0.7-4.6h-0.2c-1.5,1.9-3,3.2-4.5,4c-1.6,0.8-3.4,1.2-5.5,1.2c-2.9,0-5.1-0.7-6.7-2.2
		c-1.6-1.5-2.4-3.5-2.4-6.1c0-2.9,1.2-5.1,3.6-6.7c2.4-1.6,5.8-2.4,10.4-2.5l5.6-0.2v-1.9c0-2.8-0.6-4.9-1.7-6.3
		c-1.1-1.4-3-2.1-5.5-2.1c-2.7,0-5.5,0.8-8.4,2.3l-1-2.3c3.2-1.5,6.4-2.3,9.6-2.3c3.2,0,5.6,0.8,7.2,2.5c1.6,1.7,2.4,4.3,2.4,7.8
		V150H116.2z M105.4,148.1c3.1,0,5.6-0.9,7.4-2.7c1.8-1.8,2.7-4.3,2.7-7.5v-2.9l-5.1,0.2c-4.1,0.2-7.1,0.8-8.8,1.9s-2.6,2.8-2.6,5.1
		c0,1.8,0.6,3.3,1.7,4.3C101.7,147.6,103.3,148.1,105.4,148.1z"/>
	<path class="st0" d="M164.3,150v-19.2c0-2.9-0.6-4.9-1.7-6.3c-1.1-1.3-2.8-2-5.1-2c-3,0-5.2,0.8-6.7,2.5s-2.2,4.3-2.2,7.8V150h-2.7
		V130c0-4.9-2.3-7.4-6.8-7.4c-3.1,0-5.3,0.9-6.7,2.7c-1.4,1.8-2.1,4.7-2.1,8.6V150h-2.7v-29.3h2.2l0.6,4h0.2c0.8-1.5,2-2.6,3.5-3.4
		c1.5-0.8,3.1-1.2,4.9-1.2c4.6,0,7.6,1.7,8.9,5.2h0.1c1-1.7,2.2-3,3.8-3.9c1.6-0.9,3.4-1.3,5.5-1.3c3.2,0,5.6,0.9,7.2,2.6
		c1.6,1.7,2.4,4.4,2.4,8.2V150H164.3z"/>
	<path class="st0" d="M191.5,110.6h10.8c4.9,0,8.5,0.8,10.7,2.5c2.3,1.7,3.4,4.2,3.4,7.5c0,2.3-0.7,4.2-2.1,5.7
		c-1.4,1.5-3.4,2.5-6.1,2.9v0.2c3.1,0.5,5.5,1.5,6.9,3c1.5,1.5,2.2,3.6,2.2,6.4c0,3.6-1.2,6.4-3.6,8.4c-2.4,2-5.8,2.9-10.3,2.9
		h-12.1V110.6z M194.2,128.1h8.7c3.7,0,6.4-0.6,8.1-1.8c1.7-1.2,2.5-3.2,2.5-5.8c0-2.6-0.9-4.5-2.8-5.7s-4.7-1.8-8.5-1.8h-8V128.1z
		 M194.2,130.6v17h9.3c7.3,0,11-3,11-8.9c0-5.4-3.9-8.1-11.6-8.1H194.2z"/>
	<path class="st0" d="M225.1,112.5c0-1.7,0.6-2.6,1.7-2.6c0.6,0,1,0.2,1.3,0.7c0.3,0.5,0.5,1.1,0.5,1.9c0,0.8-0.2,1.4-0.5,1.9
		s-0.8,0.7-1.3,0.7C225.6,115.1,225.1,114.3,225.1,112.5z M228.1,150h-2.7v-29.3h2.7V150z"/>
	<path class="st0" d="M248.7,120.1c2.1,0,4,0.4,5.5,1.2c1.5,0.8,2.9,2.1,4.2,4h0.2c-0.1-2.3-0.2-4.5-0.2-6.7V108h2.6v42h-1.8
		l-0.7-4.5h-0.2c-2.2,3.3-5.4,5-9.6,5c-4,0-7.1-1.3-9.3-3.8c-2.1-2.5-3.2-6.2-3.2-11c0-5.1,1.1-9,3.2-11.6
		C241.6,121.5,244.6,120.1,248.7,120.1z M248.7,122.5c-3.2,0-5.6,1.1-7.2,3.4s-2.4,5.5-2.4,9.8c0,8.3,3.2,12.5,9.7,12.5
		c3.3,0,5.7-1,7.3-2.9c1.5-1.9,2.3-5.1,2.3-9.5v-0.5c0-4.5-0.8-7.8-2.3-9.8S252.1,122.5,248.7,122.5z"/>
	<path class="st0" d="M288.7,150l-0.7-4.6h-0.2c-1.5,1.9-3,3.2-4.5,4c-1.6,0.8-3.4,1.2-5.5,1.2c-2.9,0-5.1-0.7-6.7-2.2
		c-1.6-1.5-2.4-3.5-2.4-6.1c0-2.9,1.2-5.1,3.6-6.7c2.4-1.6,5.8-2.4,10.4-2.5l5.6-0.2v-1.9c0-2.8-0.6-4.9-1.7-6.3
		c-1.1-1.4-3-2.1-5.5-2.1c-2.7,0-5.5,0.8-8.4,2.3l-1-2.3c3.2-1.5,6.4-2.3,9.6-2.3c3.2,0,5.6,0.8,7.2,2.5c1.6,1.7,2.4,4.3,2.4,7.8
		V150H288.7z M277.9,148.1c3.1,0,5.6-0.9,7.4-2.7c1.8-1.8,2.7-4.3,2.7-7.5v-2.9l-5.1,0.2c-4.1,0.2-7.1,0.8-8.8,1.9s-2.6,2.8-2.6,5.1
		c0,1.8,0.6,3.3,1.7,4.3C274.2,147.6,275.8,148.1,277.9,148.1z"/>
	<path class="st0" d="M320.6,150v-19c0-3-0.6-5.1-1.9-6.4c-1.2-1.3-3.2-2-5.8-2c-3.5,0-6.1,0.9-7.7,2.7c-1.6,1.8-2.4,4.6-2.4,8.6
		V150h-2.7v-29.3h2.3l0.5,4h0.2c1.9-3.1,5.3-4.6,10.2-4.6c6.7,0,10,3.6,10,10.7V150H320.6z"/>
	<path class="st0" d="M355.6,120.7v1.9l-6.1,0.4c1.6,2,2.4,4.2,2.4,6.6c0,2.8-0.9,5.1-2.8,6.9c-1.9,1.8-4.4,2.6-7.6,2.6
		c-1.3,0-2.3-0.1-2.8-0.2c-1.1,0.6-1.9,1.2-2.4,2s-0.8,1.6-0.8,2.4c0,0.9,0.4,1.6,1.1,2.1s1.9,0.6,3.6,0.6h5.1
		c3.2,0,5.6,0.6,7.3,1.9c1.7,1.3,2.5,3.2,2.5,5.7c0,3.1-1.3,5.5-3.8,7.2c-2.5,1.7-6.1,2.5-10.7,2.5c-3.7,0-6.5-0.7-8.6-2.1
		c-2-1.4-3-3.4-3-5.9c0-2,0.6-3.7,1.9-5c1.3-1.3,2.9-2.2,5.1-2.7c-0.9-0.4-1.6-0.9-2.1-1.6c-0.5-0.7-0.8-1.5-0.8-2.4
		c0-2,1.3-3.7,3.8-5.2c-1.7-0.7-3-1.8-4-3.3c-1-1.5-1.4-3.2-1.4-5.2c0-2.9,0.9-5.3,2.8-7.1s4.4-2.7,7.5-2.7c1.9,0,3.4,0.2,4.5,0.6
		H355.6z M331.9,155c0,4,3,6,9,6c7.7,0,11.6-2.5,11.6-7.4c0-1.8-0.6-3-1.8-3.8c-1.2-0.8-3.2-1.2-5.9-1.2h-4.8
		C334.6,148.6,331.9,150.8,331.9,155z M334.1,129.8c0,2.3,0.7,4,2.1,5.3c1.4,1.3,3.2,1.9,5.5,1.9c2.4,0,4.3-0.6,5.6-1.9s2-3,2-5.4
		c0-2.5-0.7-4.4-2-5.6c-1.3-1.3-3.2-1.9-5.6-1.9c-2.3,0-4.2,0.7-5.5,2C334.8,125.6,334.1,127.4,334.1,129.8z"/>
	<path class="st0" d="M403.2,150h-3.4l-15.1-20.8l-5.3,4.6V150h-2.8v-39.5h2.8v20.5l4.4-4.4l15.5-16.1h3.5l-16.2,16.7L403.2,150z"/>
	<path class="st0" d="M432.4,135.3c0,4.8-1.2,8.5-3.5,11.2c-2.3,2.7-5.5,4-9.6,4c-2.6,0-4.8-0.6-6.8-1.9c-2-1.2-3.5-3-4.5-5.3
		c-1-2.3-1.6-5-1.6-8c0-4.8,1.2-8.5,3.5-11.2s5.5-4,9.6-4c4,0,7.2,1.4,9.5,4.1C431.2,126.9,432.4,130.6,432.4,135.3z M409.2,135.3
		c0,4,0.9,7.2,2.7,9.4s4.3,3.4,7.5,3.4c3.2,0,5.7-1.1,7.5-3.4c1.8-2.3,2.7-5.4,2.7-9.4c0-4-0.9-7.2-2.7-9.4
		c-1.8-2.2-4.3-3.3-7.5-3.3c-3.2,0-5.7,1.1-7.5,3.3C410.1,128.1,409.2,131.2,409.2,135.3z"/>
	<path class="st0" d="M477.2,150v-19.2c0-2.9-0.6-4.9-1.7-6.3c-1.1-1.3-2.8-2-5.1-2c-3,0-5.2,0.8-6.7,2.5c-1.4,1.7-2.2,4.3-2.2,7.8
		V150h-2.7V130c0-4.9-2.3-7.4-6.8-7.4c-3.1,0-5.3,0.9-6.7,2.7s-2.1,4.7-2.1,8.6V150h-2.7v-29.3h2.2l0.6,4h0.2c0.8-1.5,2-2.6,3.5-3.4
		c1.5-0.8,3.1-1.2,4.9-1.2c4.6,0,7.6,1.7,8.9,5.2h0.1c1-1.7,2.2-3,3.8-3.9c1.6-0.9,3.4-1.3,5.5-1.3c3.2,0,5.6,0.9,7.2,2.6
		c1.6,1.7,2.4,4.4,2.4,8.2V150H477.2z"/>
	<path class="st0" d="M491.6,120.7v19c0,3,0.6,5.1,1.9,6.4c1.2,1.3,3.2,2,5.8,2c3.5,0,6.1-0.9,7.7-2.6s2.5-4.6,2.5-8.6v-16.2h2.6
		V150h-2.3l-0.5-4h-0.2c-1.9,3.1-5.3,4.6-10.2,4.6c-6.7,0-10-3.6-10-10.7v-19.2H491.6z"/>
	<path class="st0" d="M529.7,148.2c1.7,0,3.2-0.1,4.4-0.4v2.2c-1.3,0.4-2.8,0.6-4.5,0.6c-2.6,0-4.5-0.7-5.7-2.1s-1.8-3.6-1.8-6.5
		V123h-4.3v-1.6l4.3-1.2l1.3-6.6h1.4v7.1h8.6v2.3h-8.6v18.6c0,2.3,0.4,3.9,1.2,5C526.7,147.6,528,148.2,529.7,148.2z"/>
	<path class="st0" d="M552.3,150.6c-4.3,0-7.6-1.3-10-3.9c-2.4-2.6-3.6-6.3-3.6-11c0-4.7,1.2-8.4,3.5-11.2c2.3-2.8,5.4-4.2,9.3-4.2
		c3.5,0,6.2,1.2,8.2,3.6c2,2.4,3,5.7,3,9.8v2.2h-21.1c0,4,1,7.1,2.8,9.2s4.5,3.2,7.9,3.2c1.7,0,3.1-0.1,4.4-0.4
		c1.3-0.2,2.9-0.7,4.8-1.5v2.4c-1.7,0.7-3.2,1.2-4.6,1.5C555.5,150.4,554,150.6,552.3,150.6z M551.5,122.5c-2.8,0-5.1,0.9-6.8,2.8
		c-1.7,1.9-2.7,4.5-3,8.1h18.1c0-3.4-0.7-6.1-2.2-8S554.1,122.5,551.5,122.5z"/>
	<path class="st0" d="M582.3,120.1c1.2,0,2.6,0.1,4,0.4l-0.5,2.6c-1.2-0.3-2.5-0.5-3.8-0.5c-2.5,0-4.6,1.1-6.2,3.2
		c-1.6,2.1-2.4,4.8-2.4,8V150h-2.7v-29.3h2.3l0.3,5.3h0.2c1.2-2.2,2.5-3.7,3.9-4.5C578.7,120.5,580.4,120.1,582.3,120.1z"/>
</g>
<g>
</g>
<g>
</g>
<g>
</g>
<g>
</g>
<g>
</g>
<g>
</g>
</svg>
