<?xml version="1.0" encoding="utf-8"?>
<!-- Generator: Adobe Illustrator 19.1.0, SVG Export Plug-In . SVG Version: 6.00 Build 0)  -->
<svg version="1.1" xmlns="http://www.w3.org/2000/svg" xmlns:xlink="http://www.w3.org/1999/xlink" x="0px" y="0px"
	 viewBox="0 0 178.7 175.3" style="enable-background:new 0 0 178.7 175.3;" xml:space="preserve">
<style type="text/css">
	.st0{display:none;}
	.st1{display:inline;fill:#EDECEC;}
	.st2{display:inline;}
	.st3{fill:#B3B4B5;}
	.st4{fill:#5FBB4E;}
	.st5{fill:#50B848;}
	.st6{fill:#FFFFFF;}
	.st7{opacity:0.4;}
	.st8{fill:#4EB748;}
	.st9{opacity:0.8;}
	.st10{opacity:0.9677;fill:#4EB748;}
	.st11{opacity:0.9355;fill:#4EB748;}
	.st12{opacity:0.9032;fill:#4EB748;}
	.st13{opacity:0.871;fill:#4EB748;}
	.st14{opacity:0.8387;fill:#4EB748;}
	.st15{opacity:0.8065;fill:#4EB748;}
	.st16{opacity:0.7742;fill:#4EB748;}
	.st17{opacity:0.7419;fill:#4EB748;}
	.st18{opacity:0.7097;fill:#4EB748;}
	.st19{opacity:0.6774;fill:#4EB748;}
	.st20{opacity:0.6452;fill:#4EB748;}
	.st21{opacity:0.6129;fill:#4EB748;}
	.st22{opacity:0.5806;fill:#4EB748;}
	.st23{opacity:0.5484;fill:#4EB748;}
	.st24{opacity:0.5161;fill:#4EB748;}
	.st25{opacity:0.4839;fill:#4EB748;}
	.st26{opacity:0.4516;fill:#4EB748;}
	.st27{opacity:0.4194;fill:#4EB748;}
	.st28{opacity:0.3871;fill:#4EB748;}
	.st29{opacity:0.3548;fill:#4EB748;}
	.st30{opacity:0.3226;fill:#4EB748;}
	.st31{opacity:0.2903;fill:#4EB748;}
	.st32{opacity:0.2581;fill:#4EB748;}
	.st33{opacity:0.2258;fill:#4EB748;}
	.st34{opacity:0.1935;fill:#4EB748;}
	.st35{opacity:0.1613;fill:#4EB748;}
	.st36{opacity:0.129;fill:#4EB748;}
	.st37{opacity:9.677400e-002;fill:#4EB748;}
	.st38{opacity:6.451600e-002;fill:#4EB748;}
	.st39{opacity:3.225800e-002;fill:#4EB748;}
	.st40{opacity:0;fill:none;}
</style>
<symbol  id="shadow" viewBox="-65.2 -62.3 130.5 124.6">
</symbol>
<g id="background" class="st0">
	<rect x="-98.7" y="-81.7" class="st1" width="841.9" height="595.3"/>
</g>
<g id="infomation" class="st0">
	<g class="st2">
		<path class="st3" d="M73.8,182.8H72c-0.6,0-1.1-0.5-1.1-1.1c0-0.6,0.5-1.1,1.1-1.1h5.8c0.6,0,1.1,0.5,1.1,1.1
			c0,0.6-0.5,1.1-1.1,1.1H76v6c0,0.6-0.5,1.1-1.1,1.1c-0.6,0-1.1-0.5-1.1-1.1V182.8z"/>
		<path class="st3" d="M80.8,180.6c0.3,0,0.7,0.2,0.9,0.4l2.2,2.8l2.2-2.8c0.4-0.5,1.1-0.6,1.6-0.2c0.5,0.4,0.6,1.1,0.1,1.6l-2.5,3
			c-0.2,0.3-0.4,0.4-0.4,0.7v2.5c0,0.6-0.5,1.1-1.1,1.1c-0.6,0-1.1-0.5-1.1-1.1v-2.5c0-0.3-0.1-0.5-0.4-0.8l-2.5-3
			c-0.2-0.2-0.3-0.5-0.3-0.8C79.6,181.2,80.1,180.6,80.8,180.6z"/>
		<path class="st3" d="M91.3,187v1.7c0,0.6-0.5,1.1-1.1,1.1c-0.6,0-1.1-0.5-1.1-1.1v-6.8c0-0.7,0.5-1.3,1.4-1.3H93
			c1.8,0,3.3,1.2,3.3,3.2c0,2.1-1.5,3.2-3.4,3.2H91.3z M92.9,185c0.9,0,1.3-0.5,1.3-1.2c0-0.7-0.4-1.2-1.3-1.2h-1.6v2.4H92.9z"/>
		<path class="st3" d="M103.2,180.6c0.6,0,1.1,0.4,1.1,1c0,0.6-0.5,1-1.1,1h-3.5v1.6h3c0.6,0,1,0.4,1,0.9c0,0.5-0.4,0.9-1,0.9h-3
			v1.6h3.5c0.5,0,1.1,0.5,1.1,1c0,0.6-0.5,1-1.1,1h-4.2c-1,0-1.5-0.7-1.5-1.5v-6.3c0-0.8,0.5-1.5,1.5-1.5H103.2z"/>
		<path class="st3" d="M115.8,189.9c-0.4,0-0.9-0.3-1-0.7l-0.6-1.7h-3.4l-0.6,1.7c-0.2,0.4-0.6,0.7-1,0.7c-0.7,0-1.1-0.6-1.1-1.1
			c0-0.1,0-0.3,0.1-0.4l2.3-6.5c0.4-1,1.1-1.4,1.9-1.4c0.9,0,1.6,0.5,2,1.4l2.3,6.5c0,0.1,0.1,0.2,0.1,0.4
			C116.9,189.3,116.5,189.9,115.8,189.9z M111.5,185.6h2.1l-0.9-2.8c0-0.1-0.1-0.1-0.1-0.1c-0.1,0-0.1,0-0.1,0.1L111.5,185.6z"/>
	</g>
	<g class="st2">
		<path class="st3" d="M73.3,420.3h-1.8c-0.6,0-1.1-0.5-1.1-1.1c0-0.6,0.5-1.1,1.1-1.1h5.8c0.6,0,1.1,0.5,1.1,1.1
			c0,0.6-0.5,1.1-1.1,1.1h-1.8v6c0,0.6-0.5,1.1-1.1,1.1c-0.6,0-1.1-0.5-1.1-1.1V420.3z"/>
		<path class="st3" d="M80.3,418.1c0.3,0,0.7,0.2,0.9,0.4l2.2,2.8l2.2-2.8c0.4-0.5,1.1-0.6,1.6-0.2c0.5,0.4,0.6,1.1,0.1,1.6l-2.5,3
			c-0.2,0.3-0.4,0.4-0.4,0.7v2.5c0,0.6-0.5,1.1-1.1,1.1c-0.6,0-1.1-0.5-1.1-1.1v-2.5c0-0.3-0.1-0.5-0.4-0.8l-2.5-3
			c-0.2-0.2-0.3-0.5-0.3-0.8C79.1,418.7,79.6,418.1,80.3,418.1z"/>
		<path class="st3" d="M90.8,424.5v1.7c0,0.6-0.5,1.1-1.1,1.1c-0.6,0-1.1-0.5-1.1-1.1v-6.8c0-0.7,0.5-1.3,1.4-1.3h2.6
			c1.8,0,3.3,1.2,3.3,3.2c0,2.1-1.5,3.2-3.4,3.2H90.8z M92.4,422.5c0.9,0,1.3-0.5,1.3-1.2c0-0.7-0.4-1.2-1.3-1.2h-1.6v2.4H92.4z"/>
		<path class="st3" d="M102.7,418.1c0.6,0,1.1,0.4,1.1,1c0,0.6-0.5,1-1.1,1h-3.5v1.6h3c0.6,0,1,0.4,1,0.9c0,0.5-0.4,0.9-1,0.9h-3
			v1.6h3.5c0.5,0,1.1,0.5,1.1,1c0,0.6-0.5,1-1.1,1h-4.2c-1,0-1.5-0.7-1.5-1.5v-6.3c0-0.8,0.5-1.5,1.5-1.5H102.7z"/>
		<path class="st3" d="M109.9,427.3c-1,0-1.5-0.7-1.5-1.5v-6.3c0-0.8,0.5-1.5,1.5-1.5h1.9c2.9,0,4.3,1.6,4.4,3.8c0,0.5,0.1,1,0,1.4
			c-0.2,2.3-1.4,4-4.4,4H109.9z M114,422.3c-0.1-1.3-0.7-2.1-2.2-2.1h-1.3v4.9h1.3c1.5,0,2.1-0.7,2.2-1.9
			C114,422.9,114,422.6,114,422.3z"/>
	</g>
	<g class="st2">
		<path class="st3" d="M303.3,420.3h-1.8c-0.6,0-1.1-0.5-1.1-1.1c0-0.6,0.5-1.1,1.1-1.1h5.8c0.6,0,1.1,0.5,1.1,1.1
			c0,0.6-0.5,1.1-1.1,1.1h-1.8v6c0,0.6-0.5,1.1-1.1,1.1c-0.6,0-1.1-0.5-1.1-1.1V420.3z"/>
		<path class="st3" d="M310.2,418.1c0.3,0,0.7,0.2,0.9,0.4l2.2,2.8l2.2-2.8c0.4-0.5,1.1-0.6,1.6-0.2c0.5,0.4,0.6,1.1,0.1,1.6l-2.5,3
			c-0.2,0.3-0.4,0.4-0.4,0.7v2.5c0,0.6-0.5,1.1-1.1,1.1c-0.6,0-1.1-0.5-1.1-1.1v-2.5c0-0.3-0.1-0.5-0.4-0.8l-2.5-3
			c-0.2-0.2-0.3-0.5-0.3-0.8C309.1,418.7,309.6,418.1,310.2,418.1z"/>
		<path class="st3" d="M320.8,424.5v1.7c0,0.6-0.5,1.1-1.1,1.1c-0.6,0-1.1-0.5-1.1-1.1v-6.8c0-0.7,0.5-1.3,1.4-1.3h2.6
			c1.8,0,3.3,1.2,3.3,3.2c0,2.1-1.5,3.2-3.4,3.2H320.8z M322.3,422.5c0.9,0,1.3-0.5,1.3-1.2c0-0.7-0.4-1.2-1.3-1.2h-1.6v2.4H322.3z"
			/>
		<path class="st3" d="M332.7,418.1c0.6,0,1.1,0.4,1.1,1c0,0.6-0.5,1-1.1,1h-3.5v1.6h3c0.6,0,1,0.4,1,0.9c0,0.5-0.4,0.9-1,0.9h-3
			v1.6h3.5c0.5,0,1.1,0.5,1.1,1c0,0.6-0.5,1-1.1,1h-4.2c-1,0-1.5-0.7-1.5-1.5v-6.3c0-0.8,0.5-1.5,1.5-1.5H332.7z"/>
		<path class="st3" d="M344,418.1c0.6,0,1.1,0.4,1.1,1c0,0.6-0.5,1-1.1,1h-3.5v1.6h3c0.6,0,1,0.4,1,0.9c0,0.5-0.4,0.9-1,0.9h-3v1.6
			h3.5c0.5,0,1.1,0.5,1.1,1c0,0.6-0.5,1-1.1,1h-4.2c-1,0-1.5-0.7-1.5-1.5v-6.3c0-0.8,0.5-1.5,1.5-1.5H344z"/>
	</g>
	<g class="st2">
		<path class="st3" d="M303,183h-1.8c-0.6,0-1.1-0.5-1.1-1.1c0-0.6,0.5-1.1,1.1-1.1h5.8c0.6,0,1.1,0.5,1.1,1.1
			c0,0.6-0.5,1.1-1.1,1.1h-1.8v6c0,0.6-0.5,1.1-1.1,1.1c-0.6,0-1.1-0.5-1.1-1.1V183z"/>
		<path class="st3" d="M309.9,180.8c0.3,0,0.7,0.2,0.9,0.4l2.2,2.8l2.2-2.8c0.4-0.5,1.1-0.6,1.6-0.2c0.5,0.4,0.6,1.1,0.1,1.6l-2.5,3
			c-0.2,0.3-0.4,0.4-0.4,0.7v2.5c0,0.6-0.5,1.1-1.1,1.1c-0.6,0-1.1-0.5-1.1-1.1v-2.5c0-0.3-0.1-0.5-0.4-0.8l-2.5-3
			c-0.2-0.2-0.3-0.5-0.3-0.8C308.8,181.3,309.3,180.8,309.9,180.8z"/>
		<path class="st3" d="M320.5,187.2v1.7c0,0.6-0.5,1.1-1.1,1.1c-0.6,0-1.1-0.5-1.1-1.1v-6.8c0-0.7,0.5-1.3,1.4-1.3h2.6
			c1.8,0,3.3,1.2,3.3,3.2c0,2.1-1.5,3.2-3.4,3.2H320.5z M322,185.2c0.9,0,1.3-0.5,1.3-1.2c0-0.7-0.4-1.2-1.3-1.2h-1.6v2.4H322z"/>
		<path class="st3" d="M332.4,180.8c0.6,0,1.1,0.4,1.1,1c0,0.6-0.5,1-1.1,1h-3.5v1.6h3c0.6,0,1,0.4,1,0.9c0,0.5-0.4,0.9-1,0.9h-3
			v1.6h3.5c0.5,0,1.1,0.5,1.1,1c0,0.6-0.5,1-1.1,1h-4.2c-1,0-1.5-0.7-1.5-1.5v-6.3c0-0.8,0.5-1.5,1.5-1.5H332.4z"/>
		<path class="st3" d="M342.5,190h-2.9c-1,0-1.5-0.7-1.5-1.5v-6.3c0-0.8,0.5-1.5,1.5-1.5h3c1.7,0,2.7,1.2,2.7,2.5
			c0,1-0.5,1.6-1.1,1.9v0c0.8,0.3,1.3,1,1.3,2.1C345.4,189.1,344.2,190,342.5,190z M342.1,184.5c0.6,0,0.9-0.3,0.9-0.8
			c0-0.6-0.3-0.9-0.9-0.9h-1.9v1.7H342.1z M340.2,188h2c0.7,0,1-0.4,1-0.9c0-0.6-0.3-0.9-1-0.9h-2V188z"/>
	</g>
	<g class="st2">
		<path class="st3" d="M535.7,182.6h-1.8c-0.6,0-1.1-0.5-1.1-1.1c0-0.6,0.5-1.1,1.1-1.1h5.8c0.6,0,1.1,0.5,1.1,1.1
			c0,0.6-0.5,1.1-1.1,1.1h-1.8v6c0,0.6-0.5,1.1-1.1,1.1c-0.6,0-1.1-0.5-1.1-1.1V182.6z"/>
		<path class="st3" d="M542.6,180.4c0.3,0,0.7,0.2,0.9,0.4l2.2,2.8l2.2-2.8c0.4-0.5,1.1-0.6,1.6-0.2c0.5,0.4,0.6,1.1,0.1,1.6l-2.5,3
			c-0.2,0.3-0.4,0.4-0.4,0.7v2.5c0,0.6-0.5,1.1-1.1,1.1c-0.6,0-1.1-0.5-1.1-1.1v-2.5c0-0.3-0.1-0.5-0.4-0.8l-2.5-3
			c-0.2-0.2-0.3-0.5-0.3-0.8C541.5,181,542,180.4,542.6,180.4z"/>
		<path class="st3" d="M553.1,186.9v1.7c0,0.6-0.5,1.1-1.1,1.1c-0.6,0-1.1-0.5-1.1-1.1v-6.8c0-0.7,0.5-1.3,1.4-1.3h2.6
			c1.8,0,3.3,1.2,3.3,3.2c0,2.1-1.5,3.2-3.4,3.2H553.1z M554.7,184.9c0.9,0,1.3-0.5,1.3-1.2c0-0.7-0.4-1.2-1.3-1.2h-1.6v2.4H554.7z"
			/>
		<path class="st3" d="M565.1,180.4c0.6,0,1.1,0.4,1.1,1c0,0.6-0.5,1-1.1,1h-3.5v1.6h3c0.6,0,1,0.4,1,0.9c0,0.5-0.4,0.9-1,0.9h-3
			v1.6h3.5c0.5,0,1.1,0.5,1.1,1c0,0.6-0.5,1-1.1,1h-4.2c-1,0-1.5-0.7-1.5-1.5v-6.3c0-0.8,0.5-1.5,1.5-1.5H565.1z"/>
		<path class="st3" d="M576,186.8c0.2-0.4,0.4-0.6,1-0.6c0.5,0,1.1,0.4,1.1,1c0,0.2,0,0.3-0.1,0.6c-0.6,1.3-2,2-3.5,2
			c-2.3,0-3.8-1.6-4-3.7c-0.1-0.7-0.1-1.4,0-2.1c0.2-2.1,1.7-3.7,4-3.7c1.5,0,2.9,0.7,3.5,2c0.1,0.3,0.1,0.4,0.1,0.6
			c0,0.6-0.6,1-1.1,1c-0.5,0-0.8-0.3-1-0.6c-0.4-0.6-0.9-0.9-1.5-0.9c-1.1,0-1.7,0.8-1.8,2c0,0.5,0,1,0,1.5c0.1,1.1,0.7,1.9,1.8,1.9
			C575.1,187.7,575.7,187.4,576,186.8z"/>
	</g>
	<g class="st2">
		<path class="st4" d="M-58.9-40.1c0-0.6,0.5-1,1-1c0.6,0,1,0.5,1,1v5.5h3c0.5,0,1,0.5,1,1c0,0.6-0.5,1-1,1h-3.9
			c-0.7,0-1.1-0.5-1.1-1.1V-40.1z"/>
		<path class="st4" d="M-52-40.1c0-0.6,0.5-1,1-1c0.6,0,1,0.5,1,1v6.5c0,0.6-0.4,1.1-1,1.1c-0.6,0-1-0.5-1-1.1V-40.1z"/>
		<path class="st4" d="M-42.7-35.2L-42.7-35.2c-0.1-1.4-0.1-2.6-0.1-3.3v-1.5c0-0.6,0.5-1,1-1c0.6,0,1,0.5,1,1v5.9
			c0,0.9-0.6,1.6-1.5,1.6c-0.6,0-1.2-0.2-1.5-0.9l-2.7-5.1l0,0c0.1,1.4,0.1,2.2,0.1,3v2c0,0.6-0.4,1-1,1c-0.6,0-1-0.5-1-1v-5.9
			c0-0.9,0.6-1.6,1.5-1.6c0.6,0,1.1,0.2,1.5,0.9L-42.7-35.2L-42.7-35.2z"/>
		<path class="st4" d="M-33.9-41.2c0.5,0,1,0.4,1,0.9c0,0.5-0.5,0.9-1,0.9h-3.2v1.5h2.8c0.6,0,0.9,0.3,0.9,0.9
			c0,0.5-0.4,0.9-0.9,0.9h-2.8v1.5h3.2c0.5,0,1,0.4,1,0.9c0,0.5-0.4,0.9-1,0.9h-3.9c-0.9,0-1.4-0.6-1.4-1.4v-5.8
			c0-0.8,0.5-1.4,1.4-1.4H-33.9z"/>
		<path class="st4" d="M-28.7-40.1c0-0.6,0.5-1,1-1c0.6,0,1,0.5,1,1v6.5c0,0.6-0.4,1.1-1,1.1c-0.6,0-1-0.5-1-1.1V-40.1z"/>
		<path class="st4" d="M-20.2-35.3c0.2-0.3,0.4-0.6,0.9-0.6c0.5,0,1,0.4,1,0.9c0,0.2,0,0.3-0.1,0.6c-0.5,1.2-1.9,1.8-3.2,1.8
			c-2.1,0-3.5-1.5-3.7-3.4c-0.1-0.6-0.1-1.3,0-1.9c0.2-1.9,1.6-3.5,3.7-3.5c1.3,0,2.7,0.6,3.2,1.8c0.1,0.3,0.1,0.4,0.1,0.6
			c0,0.6-0.5,0.9-1,0.9c-0.5,0-0.7-0.3-0.9-0.6c-0.3-0.5-0.8-0.8-1.4-0.8c-1,0-1.6,0.8-1.7,1.8c0,0.4,0,0.9,0,1.3
			c0.1,1.1,0.6,1.8,1.7,1.8C-21-34.4-20.5-34.7-20.2-35.3z"/>
		<path class="st4" d="M-17.3-35.9c-0.1-0.6-0.1-1.3,0-1.9c0.2-1.9,1.7-3.5,3.8-3.5c2.1,0,3.7,1.5,3.9,3.5c0,0.6,0,1.2,0,1.9
			c-0.2,1.9-1.8,3.4-3.9,3.4C-15.5-32.5-17.1-34-17.3-35.9z M-11.6-36.2c0-0.4,0-0.9,0-1.3c-0.1-1-0.8-1.8-1.8-1.8
			c-1,0-1.7,0.7-1.8,1.8c0,0.4,0,0.9,0,1.3c0.1,1.1,0.8,1.8,1.8,1.8C-12.4-34.4-11.7-35.2-11.6-36.2z"/>
		<path class="st4" d="M-2.6-35.2L-2.6-35.2c-0.1-1.4-0.1-2.6-0.1-3.3v-1.5c0-0.6,0.5-1,1-1c0.6,0,1,0.5,1,1v5.9
			c0,0.9-0.6,1.6-1.5,1.6c-0.6,0-1.2-0.2-1.5-0.9l-2.7-5.1l0,0c0.1,1.4,0.1,2.2,0.1,3v2c0,0.6-0.4,1-1,1c-0.6,0-1-0.5-1-1v-5.9
			c0-0.9,0.6-1.6,1.5-1.6c0.6,0,1.1,0.2,1.5,0.9L-2.6-35.2L-2.6-35.2z"/>
	</g>
</g>
<g id="TYPE_A" class="st0">
</g>
<g id="TYPE_B">
	<g>
		<g>
			<path class="st5" d="M144.4,3L35.9,2.8C18.9,2.8,5,16.6,5,33.6L4.9,142.2c0,17,13.8,30.9,30.8,30.9l108.5,0.2
				c17,0,30.9-13.8,30.9-30.8l0.2-108.5C175.3,16.8,161.5,3,144.4,3z"/>
		</g>
		
			<use xlink:href="#shadow"  width="130.5" height="124.6" id="XMLID_1_" x="-65.2" y="-62.3" transform="matrix(1.0033 0 0 -1.0034 90.096 89.2869)" style="overflow:visible;"/>
		<g>
			<g>
				<path class="st6" d="M152.1,80.5c0-27.8-27.8-50.3-62-50.3c-34.2,0-62,22.6-62,50.3c0,24.9,22.1,45.7,51.9,49.7
					c2,0.4,4.8,1.3,5.5,3.1c0.6,1.6,0.4,4,0.2,5.6c0,0-0.7,4.4-0.9,5.3c-0.3,1.6-1.3,6.1,5.4,3.3c6.6-2.8,35.7-21,48.7-36l0,0
					C147.8,101.6,152.1,91.6,152.1,80.5z M65.8,97H53.5c-1.8,0-3.3-1.5-3.3-3.3V69.1c0-1.8,1.5-3.3,3.3-3.3c1.8,0,3.3,1.5,3.3,3.3
					v21.4h9.1c1.8,0,3.3,1.5,3.3,3.3C69.1,95.6,67.6,97,65.8,97z M78.6,93.8c0,1.8-1.5,3.3-3.3,3.3c-1.8,0-3.3-1.5-3.3-3.3V69.1
					c0-1.8,1.5-3.3,3.3-3.3c1.8,0,3.3,1.5,3.3,3.3V93.8z M108.2,93.8c0,1.4-0.9,2.6-2.2,3.1c-0.3,0.1-0.7,0.2-1,0.2
					c-1,0-2-0.5-2.6-1.3L89.7,78.5v15.3c0,1.8-1.5,3.3-3.3,3.3c-1.8,0-3.3-1.5-3.3-3.3V69.1c0-1.4,0.9-2.6,2.2-3.1
					c0.3-0.1,0.7-0.2,1-0.2c1,0,2,0.5,2.6,1.3l12.6,17.2V69.1c0-1.8,1.5-3.3,3.3-3.3c1.8,0,3.3,1.5,3.3,3.3V93.8z M128.2,78.2
					c1.8,0,3.3,1.5,3.3,3.3c0,1.8-1.5,3.3-3.3,3.3h-9.1v5.8h9.1c1.8,0,3.3,1.5,3.3,3.3c0,1.8-1.5,3.3-3.3,3.3h-12.3
					c-1.8,0-3.3-1.5-3.3-3.3V69.1c0-1.8,1.5-3.3,3.3-3.3h12.3c1.8,0,3.3,1.5,3.3,3.3c0,1.8-1.5,3.3-3.3,3.3h-9.1v5.8H128.2z"/>
			</g>
		</g>
		<g class="st7">
			<g>
				<path class="st8" d="M128.2,84.7c1.8,0,3.3-1.5,3.3-3.3c0-1.8-1.5-3.3-3.3-3.3h-9.1v-5.8h9.1c1.8,0,3.3-1.5,3.3-3.3
					c0-1.8-1.5-3.3-3.3-3.3h-12.3c-1.8,0-3.3,1.5-3.3,3.3v24.7c0,1.8,1.5,3.3,3.3,3.3h12.3c1.8,0,3.3-1.5,3.3-3.3
					c0-1.8-1.5-3.3-3.3-3.3h-9.1v-5.8H128.2z M65.8,90.5h-9.1V69.1c0-1.8-1.5-3.3-3.3-3.3c-1.8,0-3.3,1.5-3.3,3.3v24.7
					c0,1.8,1.5,3.3,3.3,3.3h12.3c1.8,0,3.3-1.5,3.3-3.3C69.1,92,67.6,90.5,65.8,90.5z M75.3,65.9c-1.8,0-3.3,1.5-3.3,3.3v24.7
					c0,1.8,1.5,3.3,3.3,3.3c1.8,0,3.3-1.5,3.3-3.3V69.1C78.6,67.3,77.1,65.9,75.3,65.9z M105,65.9c-1.8,0-3.3,1.5-3.3,3.3v15.3
					L89.1,67.2c-0.6-0.8-1.6-1.3-2.6-1.3c-0.3,0-0.7,0.1-1,0.2c-1.3,0.4-2.2,1.7-2.2,3.1v24.7c0,1.8,1.5,3.3,3.3,3.3
					c1.8,0,3.3-1.5,3.3-3.3V78.5l12.6,17.2C103,96.5,104,97,105,97c0.4,0,0.7-0.1,1-0.2c1.3-0.4,2.2-1.7,2.2-3.1V69.1
					C108.2,67.3,106.8,65.9,105,65.9z"/>
			</g>
		</g>
		<g class="st9">
			<g>
				<path class="st8" d="M128.2,84.7c1.8,0,3.3-1.5,3.3-3.3c0-1.8-1.5-3.3-3.3-3.3h-9.1v-5.8h9.1c1.8,0,3.3-1.5,3.3-3.3
					c0-1.8-1.5-3.3-3.3-3.3h-12.3c-1.8,0-3.3,1.5-3.3,3.3v24.7c0,1.8,1.5,3.3,3.3,3.3h12.3c1.8,0,3.3-1.5,3.3-3.3
					c0-1.8-1.5-3.3-3.3-3.3h-9.1v-5.8H128.2z"/>
				<path class="st10" d="M115.9,65.9h12.3c1.6,0,3,1.2,3.2,2.8c0,0.2,0,0.3,0,0.5c0,1.5-1,2.7-2.3,3.1c-0.3,0.1-0.6,0.1-0.9,0.1
					h-9.1c0,0,0,0.3,0,0.3v5.5l0,0c0,0,0.2,0,0.3,0h8.8c0.1,0,0.1,0,0.2,0c1.7,0.1,3.1,1.5,3.1,3.2c0,1.4-0.9,2.6-2.2,3.1
					c-0.3,0.1-0.7,0.2-1.1,0.2h-8.7c0,0-0.4,0-0.4,0c0,0,0,0.1,0,0.1v5.5c0,0,0,0.3,0,0.3h9.1c0.1,0,0.2,0,0.3,0
					c1.7,0.1,3,1.5,3,3.2c0,0,0,0.1,0,0.1c-0.1,1.7-1.5,3.1-3.2,3.1h-12.3c-1.6,0-2.9-1.1-3.2-2.6c0-0.2-0.1-0.4-0.1-0.7V69.1
					c0,0,0-0.1,0-0.1C112.7,67.3,114.1,65.9,115.9,65.9z"/>
				<path class="st11" d="M115.9,65.9h12.3c1.6,0,3,1.2,3.2,2.8c0,0.2,0,0.3,0,0.5c0,1.4-1,2.7-2.3,3.1c-0.3,0.1-0.6,0.1-0.9,0.1
					h-9.1c0,0,0,0.3,0,0.4v5.5l0,0c0,0,0.2,0,0.3,0h8.8c0.1,0,0.1,0,0.2,0c1.7,0.1,3.1,1.5,3.1,3.2c0,1.4-0.9,2.6-2.2,3
					c-0.3,0.1-0.7,0.2-1,0.2h-8.7c0,0-0.4,0-0.4,0c0,0,0,0.1,0,0.1v5.5c0,0,0,0.3,0,0.3h9.1c0.1,0,0.2,0,0.3,0c1.7,0.1,3,1.5,3,3.2
					c0,0,0,0.1,0,0.1c-0.1,1.7-1.5,3.1-3.2,3.1h-12.3c-1.6,0-2.9-1.1-3.1-2.6c0-0.2-0.1-0.4-0.1-0.6V69.2c0,0,0-0.1,0-0.1
					C112.7,67.3,114.1,65.9,115.9,65.9z"/>
				<path class="st12" d="M115.9,66h12.3c1.6,0,3,1.2,3.2,2.8c0,0.2,0,0.3,0,0.5c0,1.4-1,2.7-2.3,3c-0.3,0.1-0.6,0.1-0.9,0.1h-9.1
					c0,0-0.1,0.3-0.1,0.4v5.5l0,0c0,0,0.2,0.1,0.3,0.1h8.8c0.1,0,0.1,0,0.2,0c1.7,0.1,3,1.5,3,3.2c0,1.4-0.9,2.6-2.2,3
					c-0.3,0.1-0.7,0.2-1,0.2h-8.7c0,0-0.4,0-0.4,0c0,0,0,0.1,0,0.1v5.5c0,0,0,0.3,0.1,0.3h9.1c0.1,0,0.2,0,0.3,0
					c1.6,0.1,2.9,1.5,3,3.2c0,0,0,0.1,0,0.1c-0.1,1.7-1.5,3.1-3.2,3.1h-12.3c-1.6,0-2.8-1.1-3.1-2.6c0-0.2-0.1-0.4-0.1-0.6V69.2
					c0,0,0-0.1,0-0.1C112.7,67.4,114.1,66,115.9,66z"/>
				<path class="st13" d="M115.9,66h12.3c1.6,0,2.9,1.2,3.1,2.8c0,0.2,0,0.3,0,0.5c0,1.4-1,2.6-2.3,3c-0.3,0.1-0.6,0.1-0.9,0.1h-9
					c0,0-0.1,0.3-0.1,0.4v5.5l0,0c0,0,0.2,0.1,0.3,0.1h8.8c0,0,0.1,0,0.2,0c1.7,0.1,3,1.5,3,3.2c0,1.4-0.9,2.6-2.2,3
					c-0.3,0.1-0.7,0.2-1,0.2h-8.7c0,0-0.4,0-0.4,0c0,0,0,0.1,0,0.1v5.5c0,0,0,0.3,0.1,0.3h9c0.1,0,0.2,0,0.3,0
					c1.6,0.1,2.9,1.5,2.9,3.2c0,0,0,0.1,0,0.1c-0.1,1.7-1.5,3.1-3.2,3.1h-12.3c-1.5,0-2.8-1.1-3.1-2.6c0-0.2-0.1-0.4-0.1-0.6V69.2
					c0,0,0-0.1,0-0.1C112.7,67.4,114.1,66,115.9,66z"/>
				<path class="st14" d="M115.9,66h12.3c1.6,0,2.9,1.2,3.1,2.8c0,0.2,0,0.3,0,0.5c0,1.4-1,2.6-2.4,3c-0.3,0.1-0.6,0.1-0.8,0.1h-9
					c-0.1,0-0.1,0.3-0.1,0.4v5.5l0,0c0,0.1,0.2,0.1,0.3,0.1h8.8c0,0,0.1,0,0.2,0c1.7,0.1,3,1.5,3,3.2c0,1.4-1,2.6-2.3,3
					c-0.3,0.1-0.7,0.2-1,0.2h-8.7c0,0-0.4,0-0.4,0c0,0,0,0.1,0,0.1v5.5c0,0.1,0,0.3,0.1,0.3h9c0.1,0,0.2,0,0.3,0
					c1.6,0.1,2.9,1.5,2.9,3.1c0,0,0,0.1,0,0.1c-0.1,1.7-1.5,3-3.2,3h-12.3c-1.5,0-2.8-1.1-3.1-2.6c0-0.2-0.1-0.4-0.1-0.6V69.2
					c0,0,0-0.1,0-0.1C112.7,67.4,114.1,66,115.9,66z"/>
				<path class="st15" d="M115.9,66.1h12.3c1.6,0,2.9,1.2,3.1,2.8c0,0.2,0,0.3,0,0.5c0,1.4-1,2.6-2.4,2.9c-0.2,0.1-0.6,0.1-0.8,0.1
					h-9c-0.1,0-0.1,0.3-0.1,0.4v5.5l0,0c0,0.1,0.2,0.1,0.3,0.1h8.8c0,0,0.1,0,0.2,0c1.7,0.1,3,1.5,3,3.1c0,1.4-1,2.6-2.3,3
					c-0.3,0.1-0.6,0.1-0.9,0.1h-8.7c0,0-0.4,0-0.4,0c0,0,0,0.1,0,0.1v5.5c0,0.1,0,0.3,0.1,0.3h9c0.1,0,0.2,0,0.3,0
					c1.6,0.1,2.9,1.5,2.9,3.1c0,0,0,0.1,0,0.1c-0.1,1.7-1.4,3-3.1,3h-12.3c-1.5,0-2.8-1.1-3.1-2.6c0-0.2-0.1-0.4-0.1-0.6V69.2
					c0,0,0-0.1,0-0.1C112.7,67.5,114.1,66.1,115.9,66.1z"/>
				<path class="st16" d="M115.9,66.1h12.3c1.6,0,2.9,1.2,3.1,2.8c0,0.2,0,0.3,0,0.5c0,1.4-1,2.6-2.4,2.9c-0.2,0.1-0.5,0.1-0.8,0.1
					h-9c-0.1,0-0.1,0.3-0.1,0.4v5.6l0,0c0,0.1,0.2,0.1,0.3,0.1h8.9c0,0,0.1,0,0.2,0c1.7,0.1,3,1.4,3,3.1c0,1.4-1,2.6-2.3,3
					c-0.3,0.1-0.6,0.1-0.9,0.1h-8.7c0,0-0.4,0-0.4,0c0,0,0,0.1,0,0.1v5.6c0,0.1,0.1,0.3,0.1,0.3h9c0.1,0,0.2,0,0.3,0
					c1.6,0.1,2.9,1.4,2.9,3.1c0,0,0,0.1,0,0.1c-0.1,1.7-1.4,3-3.1,3h-12.3c-1.5,0-2.8-1.1-3.1-2.6c0-0.2-0.1-0.4-0.1-0.5V69.3
					c0,0,0-0.1,0-0.1C112.8,67.5,114.1,66.1,115.9,66.1z"/>
				<path class="st17" d="M115.9,66.2h12.3c1.6,0,2.9,1.2,3.1,2.8c0,0.2,0,0.3,0,0.5c-0.1,1.4-1.1,2.6-2.4,2.9
					c-0.2,0.1-0.5,0.1-0.8,0.1h-9c-0.1,0-0.1,0.3-0.1,0.4v5.6l0,0c0,0.1,0.2,0.1,0.3,0.1h8.9c0,0,0.1,0,0.2,0c1.7,0.1,3,1.4,3,3.1
					c0,1.4-1,2.6-2.3,3c-0.3,0.1-0.6,0.1-0.9,0.1h-8.7c0,0-0.4,0-0.4,0c0,0,0,0.1,0,0.1v5.6c0,0.1,0.1,0.4,0.1,0.4h9
					c0.1,0,0.2,0,0.3,0c1.6,0.1,2.9,1.4,2.9,3.1c0,0,0,0.1,0,0.1c-0.1,1.7-1.4,3-3.1,3h-12.3c-1.5,0-2.8-1.1-3.1-2.6
					c0-0.2-0.1-0.3-0.1-0.5V69.3c0,0,0-0.1,0-0.1C112.8,67.5,114.2,66.2,115.9,66.2z"/>
				<path class="st18" d="M115.9,66.2h12.3c1.6,0,2.9,1.2,3.1,2.7c0,0.2,0,0.3,0,0.5c-0.1,1.4-1.1,2.6-2.4,2.9
					c-0.2,0.1-0.5,0.1-0.8,0.1h-9c-0.1,0-0.2,0.3-0.2,0.4v5.6l0,0c0,0.1,0.2,0.2,0.3,0.2h8.9c0,0,0.1,0,0.2,0c1.6,0.1,3,1.4,3,3.1
					c0,1.4-1,2.6-2.3,3c-0.2,0.1-0.6,0.1-0.9,0.1h-8.7c0,0-0.4,0-0.4,0.1c0,0,0,0.1,0,0.1v5.6c0,0.1,0.1,0.4,0.2,0.4h9
					c0.1,0,0.2,0,0.3,0c1.6,0.1,2.9,1.4,2.9,3c0,0,0,0.1,0,0.1c-0.1,1.7-1.4,3-3.1,3h-12.3c-1.5,0-2.8-1.1-3-2.6
					c0-0.2-0.1-0.3-0.1-0.5V69.3c0,0,0-0.1,0-0.1C112.8,67.5,114.2,66.2,115.9,66.2z"/>
				<path class="st19" d="M115.9,66.2h12.3c1.6,0,2.9,1.2,3,2.7c0,0.2,0,0.3,0,0.5c-0.1,1.4-1.1,2.5-2.4,2.8
					c-0.2,0.1-0.5,0.1-0.7,0.1h-9c-0.1,0-0.2,0.3-0.2,0.4v5.6l0,0c0,0.1,0.2,0.2,0.3,0.2h8.9c0,0,0.1,0,0.2,0c1.6,0.1,3,1.4,3,3.1
					c0,1.4-1,2.6-2.3,2.9c-0.2,0.1-0.6,0.1-0.9,0.1h-8.7c-0.1,0-0.4,0-0.4,0.1c0,0,0,0.1,0,0.2v5.6c0,0.1,0.1,0.4,0.2,0.4h9
					c0.1,0,0.2,0,0.3,0c1.6,0.1,2.9,1.4,2.9,3c0,0,0,0.1,0,0.1c-0.1,1.6-1.4,3-3.1,3h-12.3c-1.5,0-2.8-1.1-3-2.6c0-0.1,0-0.3,0-0.5
					V69.3c0,0,0-0.1,0-0.1C112.8,67.6,114.2,66.2,115.9,66.2z"/>
				<path class="st20" d="M115.9,66.3h12.3c1.6,0,2.9,1.2,3,2.7c0,0.2,0,0.3,0,0.5c-0.1,1.4-1.1,2.5-2.4,2.8
					c-0.2,0.1-0.5,0.1-0.7,0.1h-9c-0.1,0-0.2,0.3-0.2,0.4v5.6l0,0c0,0.1,0.2,0.2,0.4,0.2h8.9c0,0,0.1,0,0.2,0c1.6,0.1,2.9,1.4,2.9,3
					c0,1.4-1,2.6-2.4,2.9c-0.2,0.1-0.6,0.1-0.8,0.1h-8.7c-0.1,0-0.4,0-0.4,0.1c0,0-0.1,0.1-0.1,0.2v5.6c0,0.1,0.1,0.4,0.2,0.4h9
					c0.1,0,0.2,0,0.3,0c1.6,0.1,2.9,1.4,2.9,3c0,0,0,0.1,0,0.1c-0.1,1.6-1.4,3-3,3h-12.3c-1.5,0-2.8-1.1-3-2.6c0-0.1,0-0.3,0-0.5
					V69.3c0,0,0-0.1,0-0.1C112.8,67.6,114.2,66.3,115.9,66.3z"/>
				<path class="st21" d="M115.9,66.3h12.3c1.6,0,2.9,1.2,3,2.7c0,0.2,0,0.3,0,0.5c-0.1,1.4-1.1,2.5-2.4,2.8
					c-0.2,0.1-0.5,0.1-0.7,0.1h-9c-0.1,0-0.2,0.3-0.2,0.4v5.6l0,0c0,0.1,0.2,0.2,0.4,0.2h8.9c0,0,0.1,0,0.2,0c1.6,0.1,2.9,1.4,2.9,3
					c0,1.4-1,2.6-2.4,2.9c-0.2,0.1-0.6,0.1-0.8,0.1h-8.7c-0.1,0-0.4,0-0.4,0.1c0,0-0.1,0.1-0.1,0.2v5.6c0,0.1,0.1,0.4,0.2,0.4h9
					c0.1,0,0.2,0,0.3,0c1.6,0.1,2.8,1.4,2.9,3c0,0,0,0.1,0,0.1c0,1.6-1.4,2.9-3,2.9h-12.3c-1.5,0-2.8-1.1-3-2.6c0-0.1,0-0.3,0-0.4
					V69.4c0,0,0-0.1,0-0.1C112.8,67.6,114.2,66.3,115.9,66.3z"/>
				<path class="st22" d="M115.9,66.3h12.3c1.6,0,2.9,1.2,3,2.7c0,0.2,0,0.3,0,0.5c-0.1,1.4-1.1,2.5-2.4,2.7
					c-0.2,0.1-0.5,0.1-0.7,0.1h-9c-0.1,0-0.2,0.3-0.2,0.4v5.6l0,0c0,0.1,0.2,0.2,0.4,0.2h8.9c0,0,0.1,0,0.2,0c1.6,0.1,2.9,1.4,2.9,3
					c0,1.4-1,2.6-2.4,2.9c-0.2,0.1-0.6,0.1-0.8,0.1h-8.7c-0.1,0-0.4,0-0.4,0.1c0,0-0.1,0.1-0.1,0.2v5.6c0,0.1,0.1,0.4,0.2,0.4h9
					c0.1,0,0.2,0,0.2,0c1.6,0.1,2.8,1.4,2.9,3c0,0,0,0.1,0,0.1c0,1.6-1.4,2.9-3,2.9h-12.3c-1.5,0-2.8-1.1-3-2.6c0-0.1,0-0.3,0-0.4
					V69.4c0,0,0-0.1,0-0.1C112.9,67.7,114.2,66.3,115.9,66.3z"/>
				<path class="st23" d="M115.9,66.4h12.3c1.6,0,2.8,1.2,3,2.7c0,0.2,0,0.3,0,0.5c-0.1,1.4-1.1,2.5-2.5,2.7
					c-0.2,0.1-0.5,0.1-0.6,0.1h-9c-0.1,0-0.3,0.3-0.3,0.4v5.6l0,0c0,0.1,0.2,0.3,0.4,0.3h8.9c0,0,0.1,0,0.2,0c1.6,0,2.9,1.4,2.9,3
					c0,1.4-1,2.7-2.4,2.9c-0.2,0.1-0.6,0.1-0.8,0.1h-8.7c-0.1,0-0.4,0-0.4,0.1c0,0-0.1,0.1-0.1,0.2v5.6c0,0.1,0.1,0.4,0.3,0.4h9
					c0.1,0,0.2,0,0.2,0c1.6,0.1,2.8,1.4,2.8,2.9c0,0,0,0.1,0,0.1c0,1.6-1.4,2.9-3,2.9h-12.3c-1.5,0-2.8-1.1-3-2.6c0-0.1,0-0.3,0-0.4
					V69.4c0,0,0-0.1,0-0.1C112.9,67.7,114.2,66.4,115.9,66.4z"/>
				<path class="st24" d="M115.9,66.4h12.3c1.6,0,2.8,1.2,3,2.7c0,0.2,0,0.3,0,0.5c-0.1,1.4-1.1,2.5-2.5,2.7c-0.2,0-0.4,0.1-0.6,0.1
					h-9c-0.2,0-0.3,0.3-0.3,0.5v5.6l0,0c0,0.2,0.2,0.3,0.4,0.3h8.9c0,0,0.1,0,0.2,0c1.6,0,2.9,1.4,2.9,3c0,1.4-1.1,2.7-2.4,2.9
					c-0.2,0.1-0.6,0.1-0.7,0.1h-8.7c-0.1,0-0.4,0-0.4,0.1c0,0-0.1,0.1-0.1,0.2v5.6c0,0.2,0.1,0.4,0.3,0.4h9c0,0,0.2,0,0.2,0
					c1.6,0.1,2.8,1.3,2.8,2.9c0,0,0,0.1,0,0.1c0,1.6-1.4,2.9-3,2.9h-12.3c-1.5,0-2.8-1.2-2.9-2.6c0-0.1,0-0.3,0-0.4V69.4
					c0,0,0-0.1,0-0.1C112.9,67.7,114.2,66.4,115.9,66.4z"/>
				<path class="st25" d="M115.9,66.4h12.3c1.6,0,2.8,1.2,2.9,2.7c0,0.2,0,0.3,0,0.5c-0.1,1.4-1.1,2.5-2.5,2.7
					c-0.1,0-0.4,0.1-0.6,0.1h-9c-0.2,0-0.3,0.3-0.3,0.5v5.6l0,0c0,0.2,0.3,0.3,0.4,0.3h8.9c0,0,0.1,0,0.2,0c1.6,0,2.9,1.4,2.9,3
					c0,1.4-1.1,2.7-2.4,2.9c-0.2,0.1-0.5,0.1-0.7,0.1h-8.7c-0.1,0-0.4,0-0.4,0.1c0,0.1-0.1,0.1-0.1,0.2v5.7c0,0.2,0.1,0.4,0.3,0.4h9
					c0,0,0.2,0,0.2,0c1.6,0.1,2.8,1.3,2.8,2.9c0,0,0,0.1,0,0.1c0,1.6-1.4,2.9-3,2.9h-12.3c-1.5,0-2.8-1.2-2.9-2.6c0-0.1,0-0.2,0-0.4
					V69.4c0,0,0-0.1,0-0.1C112.9,67.7,114.2,66.4,115.9,66.4z"/>
				<path class="st26" d="M115.9,66.5h12.3c1.5,0,2.8,1.2,2.9,2.7c0,0.2,0,0.3,0,0.5c-0.1,1.4-1.2,2.4-2.5,2.6
					c-0.1,0-0.4,0.1-0.6,0.1h-8.9c-0.2,0-0.3,0.3-0.3,0.5v5.7l0,0c0,0.2,0.3,0.3,0.4,0.3h8.9c0,0,0.1,0,0.1,0c1.6,0,2.9,1.3,2.9,2.9
					c0,1.5-1.1,2.7-2.5,2.9c-0.2,0.1-0.5,0.1-0.7,0.1h-8.7c-0.1,0-0.4,0-0.4,0.1c0,0.1-0.1,0.2-0.1,0.2v5.7c0,0.2,0.1,0.4,0.3,0.4h9
					c0,0,0.2,0,0.2,0c1.5,0.1,2.8,1.3,2.8,2.9c0,0,0,0.1,0,0.1c0,1.6-1.3,2.9-2.9,2.9h-12.3c-1.5,0-2.8-1.2-2.9-2.6
					c0-0.1,0-0.2,0-0.3V69.5c0,0,0-0.1,0-0.1C112.9,67.8,114.2,66.5,115.9,66.5z"/>
				<path class="st27" d="M115.9,66.5h12.3c1.5,0,2.8,1.2,2.9,2.7c0,0.2,0,0.3,0,0.5c-0.1,1.3-1.2,2.4-2.5,2.6
					c-0.1,0-0.4,0.1-0.5,0.1h-8.9c-0.2,0-0.3,0.3-0.3,0.5v5.7l0,0c0,0.2,0.3,0.3,0.4,0.3h8.9c0,0,0.1,0,0.1,0c1.6,0,2.9,1.3,2.9,2.9
					c0,1.5-1.1,2.7-2.5,2.8c-0.1,0-0.5,0.1-0.7,0.1h-8.7c-0.1,0-0.3,0-0.4,0.1c-0.1,0.1-0.1,0.2-0.1,0.2v5.7c0,0.2,0.1,0.4,0.3,0.4
					h8.9c0,0,0.2,0,0.2,0c1.5,0.1,2.8,1.3,2.8,2.8c0,0,0,0.1,0,0.1c0,1.6-1.3,2.9-2.9,2.9h-12.3c-1.5,0-2.8-1.2-2.9-2.6
					c0-0.1,0-0.2,0-0.3V69.5c0,0,0-0.1,0-0.1C112.9,67.8,114.3,66.5,115.9,66.5z"/>
				<path class="st28" d="M115.9,66.5h12.3c1.5,0,2.8,1.2,2.9,2.7c0,0.2,0,0.3,0,0.5c-0.1,1.3-1.2,2.4-2.5,2.6
					c-0.1,0-0.4,0.1-0.5,0.1h-8.9c-0.2,0-0.3,0.3-0.3,0.5v5.7l0,0c0,0.2,0.3,0.3,0.4,0.3h8.9c0,0,0.1,0,0.1,0c1.6,0,2.8,1.3,2.8,2.9
					c0,1.5-1.1,2.7-2.5,2.8c-0.1,0-0.5,0.1-0.7,0.1h-8.7c-0.1,0-0.3,0-0.4,0.1c-0.1,0.1-0.1,0.2-0.1,0.3v5.7c0,0.2,0.2,0.5,0.3,0.5
					h8.9c0,0,0.2,0,0.2,0c1.5,0.1,2.8,1.3,2.8,2.8c0,0,0,0.1,0,0.1c0,1.6-1.3,2.8-2.9,2.8h-12.3c-1.5,0-2.8-1.2-2.9-2.6
					c0-0.1,0-0.2,0-0.3V69.5c0,0,0-0.1,0-0.1C113,67.8,114.3,66.5,115.9,66.5z"/>
				<path class="st29" d="M115.9,66.6h12.3c1.5,0,2.8,1.2,2.9,2.7c0,0.2,0,0.3,0,0.5c-0.1,1.3-1.2,2.4-2.5,2.5
					c-0.1,0-0.4,0.1-0.5,0.1h-8.9c-0.2,0-0.4,0.3-0.4,0.5v5.7l0,0c0,0.2,0.3,0.4,0.5,0.4h8.9c0,0,0.1,0,0.1,0c1.6,0,2.8,1.3,2.8,2.9
					c0,1.5-1.1,2.7-2.5,2.8c-0.1,0-0.5,0.1-0.6,0.1h-8.7c-0.1,0-0.3,0-0.4,0.1c-0.1,0.1-0.1,0.2-0.1,0.3v5.7c0,0.2,0.2,0.5,0.4,0.5
					h8.9c0,0,0.2,0,0.2,0c1.5,0,2.7,1.3,2.8,2.8c0,0,0,0.1,0,0.1c0,1.6-1.3,2.8-2.9,2.8h-12.3c-1.5,0-2.7-1.2-2.9-2.6
					c0-0.1,0-0.2,0-0.3V69.5c0,0,0-0.1,0-0.1C113,67.9,114.3,66.6,115.9,66.6z"/>
				<path class="st30" d="M115.9,66.6h12.3c1.5,0,2.8,1.2,2.9,2.7c0,0.2,0,0.3,0,0.5c-0.1,1.3-1.2,2.4-2.5,2.5c-0.1,0-0.4,0-0.5,0
					h-8.9c-0.2,0-0.4,0.3-0.4,0.5v5.7l0,0c0,0.2,0.3,0.4,0.5,0.4h8.9c0,0,0.1,0,0.1,0c1.6,0,2.8,1.3,2.8,2.9c0,1.5-1.1,2.7-2.5,2.8
					c-0.1,0-0.5,0.1-0.6,0.1h-8.7c-0.1,0-0.3,0-0.4,0.1c-0.1,0.1-0.1,0.2-0.1,0.3v5.7c0,0.2,0.2,0.5,0.4,0.5h8.9c0,0,0.2,0,0.2,0
					c1.5,0,2.7,1.3,2.8,2.8c0,0,0,0.1,0,0.1c0,1.6-1.3,2.8-2.9,2.8h-12.3c-1.5,0-2.7-1.2-2.8-2.6c0-0.1,0-0.2,0-0.3V69.5
					c0,0,0-0.1,0-0.1C113,67.9,114.3,66.6,115.9,66.6z"/>
				<path class="st31" d="M115.9,66.6h12.3c1.5,0,2.8,1.2,2.8,2.7c0,0.2,0,0.3,0,0.5c-0.2,1.3-1.2,2.4-2.5,2.5c-0.1,0-0.4,0-0.4,0
					h-8.9c-0.2,0-0.4,0.3-0.4,0.5v5.7l0,0c0,0.2,0.3,0.4,0.5,0.4h8.9c0,0,0.1,0,0.1,0c1.5,0,2.8,1.3,2.8,2.8c0,1.5-1.1,2.7-2.5,2.8
					c-0.1,0-0.5,0.1-0.6,0.1h-8.7c-0.1,0-0.3,0.1-0.4,0.1c-0.1,0.1-0.1,0.2-0.1,0.3v5.7c0,0.2,0.2,0.5,0.4,0.5h8.9c0,0,0.2,0,0.2,0
					c1.5,0,2.7,1.3,2.8,2.8c0,0,0,0.1,0,0.1c0,1.6-1.3,2.8-2.8,2.8h-12.3c-1.5,0-2.7-1.2-2.8-2.7c0-0.1,0-0.2,0-0.2V69.5
					c0,0,0-0.1,0-0.1C113,67.9,114.3,66.6,115.9,66.6z"/>
				<path class="st32" d="M115.9,66.7h12.3c1.5,0,2.8,1.2,2.8,2.7c0,0.2,0,0.3,0,0.5c-0.2,1.3-1.2,2.4-2.6,2.5c-0.1,0-0.3,0-0.4,0
					h-8.9c-0.2,0-0.4,0.3-0.4,0.5v5.7l0,0c0,0.2,0.3,0.4,0.5,0.4h8.9c0,0,0.1,0,0.1,0c1.5,0,2.8,1.3,2.8,2.8c0,1.5-1.1,2.7-2.6,2.8
					c-0.1,0-0.5,0-0.6,0h-8.7c-0.1,0-0.3,0.1-0.4,0.1c-0.1,0.1-0.1,0.2-0.1,0.3v5.7c0,0.2,0.2,0.5,0.4,0.5h8.9c0,0,0.2,0,0.2,0
					c1.5,0,2.7,1.2,2.8,2.7c0,0,0,0.1,0,0.1c0,1.5-1.3,2.8-2.8,2.8h-12.3c-1.5,0-2.7-1.2-2.8-2.7c0-0.1,0-0.2,0-0.2V69.6
					c0,0,0-0.1,0-0.1C113,67.9,114.3,66.7,115.9,66.7z"/>
				<path class="st33" d="M115.9,66.7h12.3c1.5,0,2.8,1.2,2.8,2.7c0,0.2,0,0.3,0,0.5c-0.2,1.3-1.2,2.3-2.6,2.4c-0.1,0-0.3,0-0.4,0
					h-8.9c-0.2,0-0.4,0.3-0.4,0.5v5.7l0,0c0,0.2,0.3,0.4,0.5,0.4h8.9c0,0,0.1,0,0.1,0c1.5,0,2.8,1.3,2.8,2.8c0,1.5-1.1,2.7-2.6,2.8
					c-0.1,0-0.5,0-0.5,0h-8.7c-0.1,0-0.3,0.1-0.4,0.1c-0.1,0.1-0.1,0.2-0.1,0.3v5.7c0,0.2,0.2,0.5,0.4,0.5h8.9c0,0,0.2,0,0.2,0
					c1.5,0,2.7,1.2,2.7,2.7c0,0,0,0.1,0,0.1c0,1.5-1.3,2.8-2.8,2.8h-12.3c-1.5,0-2.7-1.2-2.8-2.7c0,0,0-0.1,0-0.2V69.6
					c0,0,0-0.1,0-0.1C113,68,114.3,66.7,115.9,66.7z"/>
				<path class="st34" d="M115.9,66.7h12.3c1.5,0,2.7,1.2,2.8,2.7c0,0.2,0,0.3,0,0.5c-0.2,1.3-1.3,2.3-2.6,2.4c-0.1,0-0.3,0-0.4,0
					h-8.9c-0.3,0-0.5,0.3-0.5,0.5v5.7l0,0c0,0.3,0.3,0.5,0.5,0.5h8.9c0,0,0.1,0,0.1,0c1.5,0,2.8,1.3,2.8,2.8c0,1.5-1.1,2.7-2.6,2.8
					c-0.1,0-0.5,0-0.5,0h-8.7c-0.1,0-0.3,0.1-0.4,0.2c-0.1,0.1-0.1,0.2-0.1,0.3v5.8c0,0.3,0.2,0.5,0.5,0.5h8.9c0,0,0.2,0,0.2,0
					c1.5,0,2.7,1.2,2.7,2.7c0,0,0,0.1,0,0.1c0,1.5-1.3,2.8-2.8,2.8h-12.3c-1.5,0-2.7-1.2-2.8-2.7c0,0,0-0.1,0-0.2V69.6
					c0,0,0-0.1,0-0.1C113.1,68,114.3,66.7,115.9,66.7z"/>
				<path class="st35" d="M115.9,66.8h12.3c1.5,0,2.7,1.2,2.8,2.7c0,0.2,0,0.3,0,0.5c-0.2,1.3-1.3,2.3-2.6,2.4c0,0-0.3,0-0.4,0h-8.9
					c-0.3,0-0.5,0.3-0.5,0.5v5.7l0,0c0,0.3,0.3,0.5,0.5,0.5h8.9c0,0,0.1,0,0.1,0c1.5,0,2.7,1.3,2.7,2.8c0,1.5-1.2,2.7-2.6,2.7
					c-0.1,0-0.4,0-0.5,0h-8.7c-0.1,0-0.3,0.1-0.4,0.2c-0.1,0.1-0.1,0.2-0.1,0.3v5.8c0,0.3,0.2,0.5,0.5,0.5h8.9c0,0,0.2,0,0.2,0
					c1.5,0,2.7,1.2,2.7,2.7c0,0,0,0.1,0,0.1c0,1.5-1.3,2.8-2.8,2.8h-12.3c-1.5,0-2.7-1.2-2.8-2.7c0,0,0-0.1,0-0.2V69.6
					c0,0,0-0.1,0-0.1C113.1,68,114.3,66.8,115.9,66.8z"/>
				<path class="st36" d="M115.9,66.8h12.3c1.5,0,2.7,1.2,2.8,2.7c0,0.2,0,0.3,0,0.5c-0.2,1.3-1.3,2.3-2.6,2.3c0,0-0.3,0-0.3,0h-8.9
					c-0.3,0-0.5,0.3-0.5,0.5v5.8v0c0,0.3,0.3,0.5,0.5,0.5h8.9c0,0,0.1,0,0.1,0c1.5,0,2.7,1.2,2.7,2.8c0,1.5-1.2,2.7-2.6,2.7
					c0,0-0.4,0-0.5,0h-8.7c-0.1,0-0.3,0.1-0.4,0.2c-0.1,0.1-0.1,0.2-0.1,0.3v5.8c0,0.3,0.2,0.5,0.5,0.5h8.9c0,0,0.2,0,0.2,0
					c1.5,0,2.7,1.2,2.7,2.7c0,0,0,0.1,0,0.1c0,1.5-1.2,2.7-2.8,2.7h-12.3c-1.5,0-2.7-1.2-2.7-2.7c0,0,0-0.1,0-0.1V69.6
					c0,0,0-0.1,0-0.1C113.1,68.1,114.3,66.8,115.9,66.8z"/>
				<path class="st37" d="M115.9,66.9h12.3c1.5,0,2.7,1.2,2.7,2.7c0,0.2,0,0.3,0,0.5c-0.2,1.3-1.3,2.3-2.6,2.3c0,0-0.3,0-0.3,0h-8.9
					c-0.3,0-0.5,0.3-0.5,0.5v5.8v0c0,0.3,0.3,0.5,0.5,0.5h8.9c0,0,0.1,0,0.1,0c1.5,0,2.7,1.2,2.7,2.7c0,1.5-1.2,2.7-2.6,2.7
					c0,0-0.4,0-0.5,0h-8.7c-0.2,0-0.3,0.1-0.4,0.2c-0.1,0.1-0.1,0.2-0.1,0.3V91c0,0.3,0.2,0.5,0.5,0.5h8.9c0,0,0.2,0,0.2,0
					c1.5,0,2.7,1.2,2.7,2.6c0,0,0,0.1,0,0.1c0,1.5-1.2,2.7-2.7,2.7h-12.3c-1.5,0-2.7-1.2-2.7-2.7c0,0,0-0.1,0-0.1V69.7
					c0,0,0-0.1,0-0.1C113.1,68.1,114.3,66.9,115.9,66.9z"/>
				<path class="st38" d="M115.9,66.9h12.3c1.5,0,2.7,1.2,2.7,2.7c0,0.2,0,0.3,0,0.5c-0.2,1.3-1.3,2.3-2.6,2.3c0,0-0.3,0-0.3,0h-8.9
					c-0.3,0-0.5,0.3-0.5,0.6v5.8v0c0,0.3,0.3,0.5,0.5,0.5h8.9c0,0,0.1,0,0.1,0c1.5,0,2.7,1.2,2.7,2.7c0,1.5-1.2,2.7-2.7,2.7
					c0,0-0.4,0-0.4,0h-8.7c-0.2,0-0.3,0.1-0.4,0.2c-0.1,0.1-0.1,0.2-0.1,0.4V91c0,0.3,0.2,0.6,0.5,0.6h8.9c0,0,0.2,0,0.2,0
					c1.5,0,2.6,1.2,2.7,2.6c0,0,0,0.1,0,0.1c0,1.5-1.2,2.7-2.7,2.7h-12.3c-1.5,0-2.7-1.2-2.7-2.7c0,0,0-0.1,0-0.1V69.7
					c0,0,0-0.1,0-0.1C113.1,68.1,114.4,66.9,115.9,66.9z"/>
				<path class="st39" d="M115.9,66.9h12.3c1.5,0,2.7,1.2,2.7,2.7c0,0.2,0,0.3,0,0.5c-0.2,1.3-1.3,2.2-2.6,2.3c0,0-0.3,0-0.3,0h-8.8
					c-0.3,0-0.5,0.3-0.5,0.6v5.8v0c0,0.3,0.3,0.6,0.6,0.6h8.9c0,0,0.1,0,0.1,0c1.5,0,2.7,1.2,2.7,2.7c0,1.5-1.2,2.7-2.7,2.7
					c0,0-0.4,0-0.4,0h-8.7c-0.2,0-0.3,0.1-0.4,0.2c-0.1,0.1-0.1,0.2-0.1,0.4V91c0,0.3,0.2,0.6,0.5,0.6h8.9c0,0,0.2,0,0.2,0
					c1.4,0,2.6,1.2,2.7,2.6c0,0,0,0.1,0,0.1c0,1.5-1.2,2.7-2.7,2.7h-12.3c-1.5,0-2.7-1.2-2.7-2.7c0,0,0-0.1,0-0.1V69.7
					c0,0,0-0.1,0-0.1C113.2,68.1,114.4,66.9,115.9,66.9z"/>
				<path class="st40" d="M115.9,97c-1.5,0-2.7-1.2-2.7-2.7V69.7c0-1.5,1.2-2.7,2.7-2.7h12.3c1.5,0,2.7,1.2,2.7,2.7
					c0,1.5-1.2,2.7-2.7,2.7h-9.1c-0.3,0-0.6,0.3-0.6,0.6v5.8c0,0.3,0.3,0.6,0.6,0.6h9.1c1.5,0,2.7,1.2,2.7,2.7
					c0,1.5-1.2,2.7-2.7,2.7h-9.1c-0.3,0-0.6,0.3-0.6,0.6V91c0,0.3,0.3,0.6,0.6,0.6h9.1c1.5,0,2.7,1.2,2.7,2.7c0,1.5-1.2,2.7-2.7,2.7
					H115.9z"/>
			</g>
			<g>
				<path class="st8" d="M105,65.9c-1.8,0-3.3,1.5-3.3,3.3v15.3L89.1,67.2c-0.6-0.8-1.6-1.3-2.6-1.3c-0.3,0-0.7,0.1-1,0.2
					c-1.3,0.4-2.2,1.7-2.2,3.1v24.7c0,1.8,1.5,3.3,3.3,3.3c1.8,0,3.3-1.5,3.3-3.3V78.5l12.6,17.2C103,96.5,104,97,105,97
					c0.4,0,0.7-0.1,1-0.2c1.3-0.4,2.2-1.7,2.2-3.1V69.1C108.2,67.3,106.8,65.9,105,65.9z"/>
				<path class="st10" d="M85.5,66.1c0.3-0.1,0.7-0.2,1-0.2c0.8,0,1.6,0.3,2.2,0.9c0.1,0.1,0.3,0.3,0.4,0.4l12.2,16.6
					c0,0,0.1,0.2,0.1,0.2c0,0,0,0,0,0c0,0,0.3,0.3,0.3,0.3V69.1c0,0,0-0.1,0-0.1c0.1-1.7,1.5-3.1,3.2-3.1c1.6,0,2.8,1.1,3.2,2.6
					c0,0.2,0.1,0.4,0.1,0.7v24.6c0,0,0,0,0,0.1c0,1.4-0.9,2.6-2.2,3c-0.3,0.1-0.7,0.2-1,0.2c-0.8,0-1.6-0.3-2.2-0.9
					c-0.1-0.1-0.3-0.3-0.4-0.4L90.2,79.1c0,0-0.1-0.2-0.1-0.2c0,0,0,0,0,0c0,0-0.3-0.3-0.3-0.3v15.2c0,0,0,0.1,0,0.1
					c-0.1,1.7-1.5,3.1-3.2,3.1c-1.6,0-2.9-1.1-3.2-2.6c0-0.2-0.1-0.4-0.1-0.7V69.1c0,0,0,0,0-0.1C83.3,67.7,84.2,66.5,85.5,66.1z"/>
				<path class="st11" d="M85.5,66.1c0.3-0.1,0.7-0.2,1-0.2c0.8,0,1.6,0.3,2.2,0.9c0.1,0.1,0.3,0.3,0.4,0.4l12.2,16.6
					c0,0,0.1,0.2,0.2,0.2c0,0,0,0,0,0c0,0,0.3,0.3,0.3,0.3V69.2c0,0,0-0.1,0-0.1c0.1-1.7,1.5-3.1,3.2-3.1c1.5,0,2.8,1.1,3.1,2.6
					c0,0.2,0.1,0.4,0.1,0.7v24.6c0,0,0,0,0,0.1c0,1.4-0.9,2.6-2.2,3c-0.3,0.1-0.7,0.2-1,0.2c-0.8,0-1.6-0.3-2.2-0.9
					c-0.1-0.1-0.3-0.3-0.4-0.4L90.2,79.1c0,0-0.1-0.2-0.2-0.2c0,0,0,0,0,0c0,0-0.3-0.3-0.3-0.3v15.2c0,0,0,0.1,0,0.1
					c-0.1,1.7-1.5,3.1-3.2,3.1c-1.5,0-2.8-1.1-3.1-2.6c0-0.2-0.1-0.4-0.1-0.7V69.2c0,0,0,0,0-0.1C83.3,67.7,84.2,66.5,85.5,66.1z"/>
				<path class="st12" d="M85.5,66.1c0.3-0.1,0.7-0.2,1-0.2c0.8,0,1.6,0.3,2.2,0.9c0.1,0.1,0.3,0.3,0.4,0.4l12.2,16.7
					c0,0,0.2,0.2,0.2,0.2c0,0,0,0,0,0c0,0,0.3,0.3,0.3,0.3V69.2c0,0,0-0.1,0-0.1c0.1-1.7,1.5-3.1,3.2-3.1c1.5,0,2.8,1.1,3.1,2.6
					c0,0.2,0.1,0.4,0.1,0.6v24.6c0,0,0,0,0,0.1c0,1.4-0.9,2.6-2.2,3c-0.3,0.1-0.7,0.2-1,0.2c-0.8,0-1.6-0.3-2.2-0.9
					c-0.1-0.1-0.3-0.3-0.4-0.4L90.2,79.1c0,0-0.2-0.2-0.2-0.2c0,0,0,0,0,0c0,0-0.3-0.3-0.3-0.3v15.2c0,0,0,0.1,0,0.1
					c-0.1,1.7-1.5,3.1-3.2,3.1c-1.5,0-2.8-1.1-3.1-2.6c0-0.2-0.1-0.4-0.1-0.6V69.2c0,0,0,0,0-0.1C83.3,67.8,84.2,66.6,85.5,66.1z"/>
				<path class="st13" d="M85.5,66.2c0.3-0.1,0.7-0.2,1-0.2c0.8,0,1.6,0.3,2.2,0.9c0.1,0.1,0.3,0.3,0.4,0.4L101.3,84
					c0,0,0.2,0.2,0.2,0.2c0,0,0,0,0.1,0c0,0,0.3,0.3,0.3,0.2V69.2c0,0,0-0.1,0-0.1c0-1.7,1.5-3.1,3.2-3.1c1.5,0,2.8,1.1,3.1,2.6
					c0,0.2,0.1,0.4,0.1,0.6v24.6c0,0,0,0,0,0.1c0,1.4-0.9,2.5-2.2,3c-0.3,0.1-0.7,0.2-1,0.2c-0.8,0-1.6-0.3-2.2-0.9
					c-0.1-0.1-0.3-0.3-0.4-0.4L90.2,79.1c0,0-0.2-0.2-0.2-0.2c0,0,0,0-0.1,0c0,0-0.3-0.3-0.3-0.2v15.2c0,0,0,0.1,0,0.1
					c0,1.7-1.5,3.1-3.2,3.1c-1.5,0-2.8-1.1-3.1-2.6c0-0.2-0.1-0.4-0.1-0.6V69.2c0,0,0,0,0-0.1C83.3,67.8,84.2,66.6,85.5,66.2z"/>
				<path class="st14" d="M85.5,66.2c0.3-0.1,0.7-0.2,1-0.2c0.8,0,1.6,0.3,2.2,0.9c0.1,0.1,0.3,0.3,0.4,0.4L101.3,84
					c0,0,0.2,0.2,0.2,0.2c0,0,0,0,0.1,0c0,0,0.3,0.3,0.3,0.2V69.2c0,0,0-0.1,0-0.1c0-1.7,1.4-3.1,3.2-3.1c1.5,0,2.8,1.1,3.1,2.6
					c0,0.2,0.1,0.4,0.1,0.6v24.6c0,0,0,0,0,0.1c0,1.3-0.9,2.5-2.2,3c-0.3,0.1-0.7,0.2-1,0.2c-0.8,0-1.6-0.3-2.2-0.9
					c-0.1-0.1-0.3-0.3-0.4-0.4L90.2,79.1c0,0-0.2-0.2-0.2-0.2c0,0,0,0-0.1,0c0,0-0.3-0.3-0.3-0.2v15.2c0,0,0,0.1,0,0.1
					c0,1.7-1.4,3.1-3.2,3.1c-1.5,0-2.8-1.1-3.1-2.6c0-0.2-0.1-0.4-0.1-0.6V69.2c0,0,0,0,0-0.1C83.3,67.8,84.2,66.6,85.5,66.2z"/>
				<path class="st15" d="M85.5,66.2c0.3-0.1,0.7-0.2,1-0.2c0.8,0,1.6,0.3,2.2,0.9c0.1,0.1,0.2,0.2,0.3,0.4l12.3,16.7
					c0,0,0.2,0.2,0.2,0.2c0,0,0,0,0.1,0c0,0,0.3,0.2,0.3,0.2V69.2c0,0,0-0.1,0-0.1c0-1.7,1.4-3.1,3.1-3.1c1.5,0,2.8,1.1,3.1,2.6
					c0,0.2,0.1,0.4,0.1,0.6v24.6c0,0,0,0,0,0.1c0,1.3-0.9,2.5-2.1,2.9c-0.3,0.1-0.7,0.2-1,0.2c-0.8,0-1.6-0.3-2.2-0.9
					c-0.1-0.1-0.2-0.2-0.3-0.4L90.2,79c0,0-0.2-0.2-0.2-0.2c0,0,0,0-0.1,0c0,0-0.3-0.2-0.3-0.2v15.2c0,0,0,0.1,0,0.1
					c0,1.7-1.4,3.1-3.1,3.1c-1.5,0-2.8-1.1-3.1-2.6c0-0.2-0.1-0.4-0.1-0.6V69.2c0,0,0,0,0-0.1C83.4,67.8,84.2,66.7,85.5,66.2z"/>
				<path class="st16" d="M85.5,66.3c0.3-0.1,0.7-0.2,1-0.2c0.8,0,1.6,0.3,2.2,0.9c0.1,0.1,0.2,0.2,0.3,0.4l12.3,16.7
					c0,0,0.2,0.2,0.2,0.2c0,0,0.1,0,0.1,0c0.1,0,0.3,0.2,0.3,0.2V69.3c0,0,0-0.1,0-0.1c0-1.7,1.4-3,3.1-3c1.5,0,2.8,1.1,3.1,2.6
					c0,0.2,0.1,0.4,0.1,0.6v24.6c0,0,0,0,0,0.1c0,1.3-0.9,2.5-2.1,2.9c-0.3,0.1-0.7,0.2-1,0.2c-0.8,0-1.6-0.3-2.2-0.9
					c-0.1-0.1-0.2-0.2-0.3-0.4L90.2,79c0,0-0.2-0.2-0.2-0.2c0,0-0.1,0-0.1,0c-0.1,0-0.3-0.2-0.3-0.2v15.2c0,0,0,0.1,0,0.1
					c0,1.7-1.4,3-3.1,3c-1.5,0-2.8-1.1-3.1-2.6c0-0.2-0.1-0.4-0.1-0.6V69.3c0,0,0,0,0-0.1C83.4,67.9,84.2,66.7,85.5,66.3z"/>
				<path class="st17" d="M85.5,66.3c0.3-0.1,0.7-0.2,1-0.2c0.8,0,1.6,0.3,2.2,0.9c0.1,0.1,0.2,0.2,0.3,0.4l12.3,16.7
					c0,0,0.2,0.2,0.2,0.2c0,0,0.1,0,0.1,0c0.1,0,0.3,0.2,0.3,0.1V69.3c0,0,0-0.1,0-0.1c0-1.7,1.4-3,3.1-3c1.5,0,2.8,1.1,3,2.6
					c0,0.2,0.1,0.4,0.1,0.5v24.6c0,0,0,0,0,0.1c0,1.3-0.9,2.5-2.1,2.9c-0.3,0.1-0.7,0.2-1,0.2c-0.8,0-1.6-0.3-2.2-0.9
					c-0.1-0.1-0.2-0.2-0.3-0.3L90.2,79c0,0-0.2-0.2-0.2-0.2c0,0-0.1,0-0.1,0c-0.1,0-0.3-0.2-0.3-0.1v15.2c0,0,0,0.1,0,0.1
					c0,1.7-1.4,3-3.1,3c-1.5,0-2.8-1.1-3-2.6c0-0.2-0.1-0.4-0.1-0.5V69.3c0,0,0,0,0-0.1C83.4,67.9,84.3,66.7,85.5,66.3z"/>
				<path class="st18" d="M85.5,66.3c0.3-0.1,0.6-0.2,1-0.2c0.8,0,1.6,0.3,2.2,0.9c0.1,0.1,0.2,0.2,0.3,0.3l12.3,16.8
					c0,0,0.2,0.2,0.2,0.2c0,0,0.1,0,0.1,0c0.1,0,0.3,0.2,0.3,0.1V69.3c0,0,0-0.1,0-0.1c0-1.7,1.4-3,3.1-3c1.5,0,2.8,1.1,3,2.6
					c0,0.2,0.1,0.3,0.1,0.5v24.6c0,0,0,0,0,0.1c0,1.3-0.9,2.5-2.1,2.9c-0.3,0.1-0.6,0.2-1,0.2c-0.8,0-1.6-0.3-2.2-0.9
					c-0.1-0.1-0.2-0.2-0.3-0.3L90.2,79c0,0-0.2-0.2-0.2-0.2c0,0-0.1,0-0.1,0c-0.1,0-0.3-0.2-0.3-0.1v15.2c0,0,0,0.1,0,0.1
					c0,1.7-1.4,3-3.1,3c-1.5,0-2.8-1.1-3-2.6c0-0.2-0.1-0.3-0.1-0.5V69.3c0,0,0,0,0-0.1C83.4,67.9,84.3,66.8,85.5,66.3z"/>
				<path class="st19" d="M85.5,66.4c0.3-0.1,0.6-0.2,1-0.2c0.8,0,1.6,0.3,2.2,0.9c0.1,0.1,0.2,0.2,0.3,0.3l12.3,16.8
					c0,0,0.2,0.2,0.2,0.2c0,0,0.1,0,0.1,0c0.1,0,0.3,0.2,0.3,0.1V69.3c0,0,0-0.1,0-0.1c0-1.7,1.4-3,3.1-3c1.5,0,2.8,1.1,3,2.6
					c0,0.2,0.1,0.3,0.1,0.5v24.6c0,0,0,0,0,0.1c0,1.3-0.9,2.5-2.1,2.9c-0.3,0.1-0.6,0.2-1,0.2c-0.8,0-1.6-0.3-2.2-0.9
					c-0.1-0.1-0.2-0.2-0.3-0.3L90.2,79c0,0-0.2-0.2-0.2-0.2c0,0-0.1,0-0.1,0c-0.1,0-0.3-0.2-0.3-0.1v15.2c0,0,0,0.1,0,0.1
					c0,1.7-1.4,3-3.1,3c-1.5,0-2.8-1.1-3-2.6c0-0.2-0.1-0.3-0.1-0.5V69.3c0,0,0,0,0-0.1C83.4,68,84.3,66.8,85.5,66.4z"/>
				<path class="st20" d="M85.5,66.4c0.3-0.1,0.6-0.2,1-0.2c0.8,0,1.6,0.3,2.2,0.9c0.1,0.1,0.2,0.2,0.3,0.3l12.3,16.8
					c0,0.1,0.2,0.2,0.3,0.2c0,0,0.1,0,0.1,0c0.1,0,0.3,0.1,0.3,0V69.3c0,0,0-0.1,0-0.1c0-1.7,1.4-3,3.1-3c1.5,0,2.8,1.1,3,2.6
					c0,0.1,0,0.3,0,0.5v24.6c0,0,0,0,0,0.1c0,1.3-0.8,2.4-2.1,2.9c-0.3,0.1-0.6,0.2-1,0.2c-0.8,0-1.6-0.3-2.2-0.9
					c-0.1-0.1-0.2-0.2-0.3-0.3L90.2,79c0-0.1-0.2-0.2-0.3-0.2c0,0-0.1,0-0.1,0c-0.1,0-0.3-0.1-0.3,0v15.2c0,0,0,0.1,0,0.1
					c0,1.7-1.4,3-3.1,3c-1.5,0-2.8-1.1-3-2.6c0-0.1,0-0.3,0-0.5V69.3c0,0,0,0,0-0.1C83.5,68,84.3,66.8,85.5,66.4z"/>
				<path class="st21" d="M85.5,66.4c0.3-0.1,0.6-0.2,1-0.2c0.8,0,1.6,0.3,2.2,0.9c0.1,0.1,0.2,0.2,0.3,0.3l12.4,16.8
					c0,0.1,0.2,0.2,0.3,0.2c0,0,0.1,0,0.1,0c0.1,0,0.3,0.1,0.3,0V69.4c0,0,0-0.1,0-0.1c0-1.6,1.4-3,3-3c1.5,0,2.8,1.1,3,2.6
					c0,0.1,0,0.3,0,0.5V94c0,0,0,0,0,0.1c0,1.3-0.8,2.4-2.1,2.8c-0.3,0.1-0.6,0.2-1,0.2c-0.8,0-1.6-0.3-2.2-0.9
					c-0.1-0.1-0.2-0.2-0.3-0.3L90.2,79c0-0.1-0.2-0.2-0.3-0.2c0,0-0.1,0-0.1,0c-0.1,0-0.3-0.1-0.3,0v15.2c0,0,0,0.1,0,0.1
					c0,1.6-1.4,3-3,3c-1.5,0-2.8-1.1-3-2.6c0-0.1,0-0.3,0-0.5V69.3c0,0,0,0,0,0C83.5,68,84.3,66.9,85.5,66.4z"/>
				<path class="st22" d="M85.5,66.5c0.3-0.1,0.6-0.2,1-0.2c0.8,0,1.6,0.3,2.2,0.9c0.1,0.1,0.2,0.2,0.3,0.3l12.4,16.8
					c0,0.1,0.2,0.2,0.3,0.2c0,0,0.1,0,0.1,0c0.1,0,0.3,0.1,0.3,0V69.4c0,0,0-0.1,0-0.1c0-1.6,1.4-3,3-3c1.5,0,2.8,1.1,3,2.6
					c0,0.1,0,0.3,0,0.4V94c0,0,0,0,0,0c0,1.3-0.8,2.4-2.1,2.8c-0.3,0.1-0.6,0.2-1,0.2c-0.8,0-1.6-0.3-2.2-0.9
					c-0.1-0.1-0.2-0.2-0.3-0.3L90.2,79c0-0.1-0.2-0.2-0.3-0.2c0,0-0.1,0-0.1,0c-0.1,0-0.3-0.1-0.3,0V94c0,0,0,0.1,0,0.1
					c0,1.6-1.4,3-3,3c-1.5,0-2.8-1.1-3-2.6c0-0.1,0-0.3,0-0.4V69.4c0,0,0,0,0,0C83.5,68,84.3,66.9,85.5,66.5z"/>
				<path class="st23" d="M85.5,66.5c0.3-0.1,0.6-0.2,1-0.2c0.8,0,1.6,0.3,2.2,0.9c0.1,0.1,0.2,0.2,0.2,0.3l12.4,16.9
					c0,0.1,0.2,0.2,0.3,0.2c0,0,0.1,0,0.1,0c0.1,0,0.3,0.1,0.3,0V69.4c0,0,0-0.1,0-0.1c0-1.6,1.4-2.9,3-2.9c1.5,0,2.8,1.1,3,2.6
					c0,0.1,0,0.3,0,0.4V94c0,0,0,0,0,0c0,1.3-0.8,2.4-2,2.8c-0.3,0.1-0.6,0.2-1,0.2c-0.8,0-1.6-0.4-2.2-0.9
					c-0.1-0.1-0.2-0.2-0.2-0.3L90.2,78.9c0-0.1-0.2-0.2-0.3-0.2c0,0-0.1,0-0.1,0c-0.1,0-0.3-0.1-0.3,0V94c0,0,0,0.1,0,0.1
					c0,1.6-1.4,2.9-3,2.9c-1.5,0-2.8-1.1-3-2.6c0-0.1,0-0.3,0-0.4V69.4c0,0,0,0,0,0C83.5,68.1,84.3,66.9,85.5,66.5z"/>
				<path class="st24" d="M85.5,66.6c0.3-0.1,0.6-0.2,0.9-0.2c0.8,0,1.6,0.4,2.2,1c0.1,0.1,0.2,0.2,0.2,0.3l12.4,16.9
					c0.1,0.1,0.2,0.2,0.3,0.2c0,0,0.1,0,0.1,0c0.1,0,0.3,0,0.3-0.1V69.4c0,0,0-0.1,0-0.1c0-1.6,1.4-2.9,3-2.9c1.5,0,2.8,1.1,2.9,2.6
					c0,0.1,0,0.3,0,0.4V94c0,0,0,0,0,0c0,1.3-0.8,2.4-2,2.8c-0.3,0.1-0.6,0.2-0.9,0.2c-0.8,0-1.6-0.4-2.2-1
					c-0.1-0.1-0.2-0.2-0.2-0.3L90.2,78.9c-0.1-0.1-0.2-0.2-0.3-0.2c0,0-0.1,0-0.1,0c-0.1,0-0.3,0-0.3,0.1V94c0,0,0,0.1,0,0.1
					c0,1.6-1.4,2.9-3,2.9c-1.5,0-2.8-1.1-2.9-2.6c0-0.1,0-0.3,0-0.4V69.4c0,0,0,0,0,0C83.5,68.1,84.3,67,85.5,66.6z"/>
				<path class="st25" d="M85.6,66.6c0.3-0.1,0.6-0.2,0.9-0.2c0.8,0,1.6,0.4,2.2,1c0.1,0.1,0.2,0.2,0.2,0.2l12.4,16.9
					c0.1,0.1,0.2,0.2,0.3,0.2c0,0,0.1,0,0.1,0c0.1,0,0.3,0,0.3-0.1V69.4c0,0,0-0.1,0-0.1c0-1.6,1.3-2.9,3-2.9c1.5,0,2.8,1.2,2.9,2.6
					c0,0.1,0,0.3,0,0.4V94c0,0,0,0,0,0c0,1.3-0.8,2.4-2,2.8c-0.3,0.1-0.6,0.2-0.9,0.2c-0.8,0-1.6-0.4-2.2-1
					c-0.1-0.1-0.2-0.2-0.2-0.2L90.2,78.9c-0.1-0.1-0.2-0.2-0.3-0.2c0,0-0.1,0-0.1,0c-0.1,0-0.3,0-0.3,0.1V94c0,0,0,0.1,0,0.1
					c0,1.6-1.3,2.9-3,2.9c-1.5,0-2.8-1.2-2.9-2.6c0-0.1,0-0.3,0-0.4V69.4c0,0,0,0,0,0C83.5,68.1,84.4,67,85.6,66.6z"/>
				<path class="st26" d="M85.6,66.6c0.3-0.1,0.6-0.2,0.9-0.2c0.8,0,1.6,0.4,2.2,1c0.1,0.1,0.2,0.2,0.2,0.2l12.4,16.9
					c0.1,0.1,0.2,0.2,0.3,0.2c0,0,0.1,0,0.1,0c0.1,0,0.3,0,0.3-0.1V69.5c0,0,0-0.1,0-0.1c0-1.6,1.3-2.9,2.9-2.9
					c1.5,0,2.8,1.2,2.9,2.6c0,0.1,0,0.2,0,0.3V94c0,0,0,0,0,0c0,1.3-0.8,2.4-2,2.8c-0.3,0.1-0.6,0.2-0.9,0.2c-0.8,0-1.6-0.4-2.2-1
					c-0.1-0.1-0.2-0.2-0.2-0.2L90.2,78.9c-0.1-0.1-0.2-0.2-0.3-0.2c0,0-0.1,0-0.1,0c-0.1,0-0.3,0-0.3,0.1V94c0,0,0,0.1,0,0.1
					c0,1.6-1.3,2.9-2.9,2.9c-1.5,0-2.8-1.2-2.9-2.6c0-0.1,0-0.2,0-0.3V69.4c0,0,0,0,0,0C83.6,68.1,84.4,67,85.6,66.6z"/>
				<path class="st27" d="M85.6,66.7c0.3-0.1,0.6-0.1,0.9-0.1c0.8,0,1.6,0.4,2.2,1c0.1,0.1,0.1,0.1,0.2,0.2l12.4,16.9
					c0.1,0.1,0.2,0.2,0.3,0.2c0,0,0.1,0,0.1,0c0.1,0,0.3,0,0.3-0.2V69.5c0,0,0-0.1,0-0.1c0-1.6,1.3-2.9,2.9-2.9
					c1.5,0,2.8,1.2,2.9,2.6c0,0.1,0,0.2,0,0.3v24.6c0,0,0,0,0,0c0,1.3-0.8,2.4-2,2.7c-0.3,0.1-0.6,0.2-0.9,0.2c-0.8,0-1.6-0.4-2.2-1
					c-0.1-0.1-0.1-0.1-0.2-0.2L90.2,78.9c-0.1-0.1-0.2-0.2-0.3-0.2c0,0-0.1,0-0.1,0c-0.1,0-0.3,0-0.3,0.2V94c0,0,0,0.1,0,0.1
					c0,1.6-1.3,2.9-2.9,2.9c-1.5,0-2.8-1.2-2.9-2.6c0-0.1,0-0.2,0-0.3V69.5c0,0,0,0,0,0C83.6,68.2,84.4,67.1,85.6,66.7z"/>
				<path class="st28" d="M85.6,66.7c0.3-0.1,0.6-0.1,0.9-0.1c0.8,0,1.6,0.4,2.2,1c0.1,0.1,0.1,0.1,0.2,0.2l12.4,16.9
					c0.1,0.1,0.2,0.2,0.3,0.2c0,0,0.1,0,0.1,0c0.1,0,0.3,0,0.3-0.2V69.5c0,0,0-0.1,0-0.1c0-1.6,1.3-2.9,2.9-2.9
					c1.5,0,2.7,1.2,2.9,2.6c0,0.1,0,0.2,0,0.3v24.6c0,0,0,0,0,0c0,1.2-0.8,2.3-2,2.7c-0.3,0.1-0.6,0.2-0.9,0.2c-0.8,0-1.6-0.4-2.2-1
					c-0.1-0.1-0.1-0.1-0.2-0.2L90.2,78.9c-0.1-0.1-0.2-0.2-0.3-0.2c0,0-0.1,0-0.1,0c-0.1,0-0.3,0-0.3,0.2V94c0,0,0,0.1,0,0.1
					c0,1.6-1.3,2.9-2.9,2.9c-1.5,0-2.8-1.2-2.9-2.6c0-0.1,0-0.2,0-0.3V69.5c0,0,0,0,0,0C83.6,68.2,84.4,67.1,85.6,66.7z"/>
				<path class="st29" d="M85.6,66.7c0.3-0.1,0.6-0.1,0.9-0.1c0.8,0,1.6,0.4,2.2,1c0.1,0,0.1,0.1,0.2,0.2l12.5,17
					c0.1,0.1,0.2,0.2,0.3,0.2c0,0,0.1,0,0.1,0c0.2,0,0.3-0.1,0.3-0.2V69.5c0,0,0-0.1,0-0.1c0-1.6,1.3-2.8,2.9-2.8
					c1.5,0,2.7,1.2,2.9,2.6c0,0.1,0,0.2,0,0.3v24.6c0,0,0,0,0,0c0,1.2-0.8,2.3-2,2.7c-0.3,0.1-0.6,0.2-0.9,0.2c-0.8,0-1.6-0.4-2.2-1
					c-0.1,0-0.1-0.1-0.2-0.2l-12.5-17c-0.1-0.1-0.2-0.2-0.3-0.2c0,0-0.1,0-0.1,0c-0.2,0-0.3,0.1-0.3,0.2v15.2c0,0,0,0.1,0,0.1
					c0,1.6-1.3,2.8-2.9,2.8c-1.5,0-2.7-1.2-2.9-2.6c0-0.1,0-0.2,0-0.3V69.5c0,0,0,0,0,0C83.6,68.2,84.4,67.1,85.6,66.7z"/>
				<path class="st30" d="M85.6,66.8c0.3-0.1,0.6-0.1,0.9-0.1c0.8,0,1.6,0.4,2.2,1c0,0,0.1,0.1,0.2,0.2l12.5,17
					c0.1,0.1,0.2,0.2,0.4,0.2c0,0,0.1,0,0.1,0c0.2-0.1,0.4-0.1,0.4-0.2V69.5c0,0,0-0.1,0-0.1c0-1.6,1.3-2.8,2.9-2.8
					c1.5,0,2.7,1.2,2.8,2.6c0,0.1,0,0.2,0,0.3v24.6c0,0,0,0,0,0c0,1.2-0.8,2.3-2,2.7c-0.3,0.1-0.6,0.1-0.9,0.1c-0.8,0-1.6-0.4-2.2-1
					c0,0-0.1-0.1-0.2-0.2l-12.5-17c-0.1-0.1-0.2-0.2-0.4-0.2c0,0-0.1,0-0.1,0c-0.2,0.1-0.4,0.1-0.4,0.2v15.2c0,0,0,0.1,0,0.1
					c0,1.6-1.3,2.8-2.9,2.8c-1.5,0-2.7-1.2-2.8-2.6c0-0.1,0-0.2,0-0.3V69.5c0,0,0,0,0,0C83.6,68.2,84.4,67.1,85.6,66.8z"/>
				<path class="st31" d="M85.6,66.8c0.3-0.1,0.6-0.1,0.9-0.1c0.8,0,1.6,0.4,2.2,1c0,0,0.1,0.1,0.1,0.2l12.5,17
					c0.1,0.1,0.2,0.2,0.4,0.2c0,0,0.1,0,0.1,0c0.2-0.1,0.4-0.1,0.4-0.3V69.6c0,0,0-0.1,0-0.1c0-1.6,1.3-2.8,2.8-2.8
					c1.5,0,2.7,1.2,2.8,2.6c0,0.1,0,0.2,0,0.2v24.6c0,0,0,0,0,0c0,1.2-0.8,2.3-1.9,2.7c-0.3,0.1-0.6,0.1-0.9,0.1
					c-0.8,0-1.6-0.4-2.2-1c0,0-0.1-0.1-0.1-0.2l-12.5-17c-0.1-0.1-0.2-0.2-0.4-0.2c0,0-0.1,0-0.1,0c-0.2,0.1-0.4,0.1-0.4,0.3v15.2
					c0,0,0,0.1,0,0.1c0,1.6-1.3,2.8-2.8,2.8c-1.5,0-2.7-1.2-2.8-2.6c0-0.1,0-0.2,0-0.2V69.5c0,0,0,0,0,0
					C83.6,68.3,84.4,67.2,85.6,66.8z"/>
				<path class="st32" d="M85.6,66.8c0.3-0.1,0.6-0.1,0.9-0.1c0.8,0,1.6,0.4,2.2,1c0,0,0.1,0.1,0.1,0.2l12.5,17
					c0.1,0.1,0.2,0.2,0.4,0.2c0,0,0.1,0,0.1,0c0.2-0.1,0.4-0.1,0.4-0.3V69.6c0,0,0-0.1,0-0.1c0-1.5,1.3-2.8,2.8-2.8
					c1.5,0,2.7,1.2,2.8,2.7c0,0.1,0,0.2,0,0.2v24.6c0,0,0,0,0,0c0,1.2-0.8,2.3-1.9,2.7c-0.3,0.1-0.6,0.1-0.9,0.1
					c-0.8,0-1.6-0.4-2.2-1c0,0-0.1-0.1-0.1-0.2l-12.5-17c-0.1-0.1-0.2-0.2-0.4-0.2c0,0-0.1,0-0.1,0c-0.2,0.1-0.4,0.1-0.4,0.3v15.2
					c0,0,0,0.1,0,0.1c0,1.5-1.3,2.8-2.8,2.8c-1.5,0-2.7-1.2-2.8-2.7c0-0.1,0-0.2,0-0.2V69.5c0,0,0,0,0,0
					C83.7,68.3,84.4,67.2,85.6,66.8z"/>
				<path class="st33" d="M85.6,66.9c0.3-0.1,0.6-0.1,0.9-0.1c0.8,0,1.6,0.4,2.2,1c0,0,0.1,0.1,0.1,0.1l12.5,17
					c0.1,0.1,0.2,0.2,0.4,0.2c0,0,0.1,0,0.1,0c0.2-0.1,0.4-0.1,0.4-0.3V69.6c0,0,0-0.1,0-0.1c0-1.5,1.3-2.8,2.8-2.8
					c1.5,0,2.7,1.2,2.8,2.7c0,0.1,0,0.1,0,0.2v24.6c0,0,0,0,0,0c0,1.2-0.8,2.3-1.9,2.7c-0.3,0.1-0.6,0.1-0.9,0.1
					c-0.8,0-1.6-0.4-2.2-1c0,0-0.1-0.1-0.1-0.1l-12.5-17c-0.1-0.1-0.2-0.2-0.4-0.2c0,0-0.1,0-0.1,0c-0.2,0.1-0.4,0.1-0.4,0.3v15.2
					c0,0,0,0.1,0,0.1c0,1.5-1.3,2.8-2.8,2.8c-1.5,0-2.7-1.2-2.8-2.7c0-0.1,0-0.1,0-0.2V69.6c0,0,0,0,0,0
					C83.7,68.3,84.5,67.2,85.6,66.9z"/>
				<path class="st34" d="M85.6,66.9c0.3-0.1,0.6-0.1,0.9-0.1c0.8,0,1.6,0.4,2.1,1c0,0,0.1,0.1,0.1,0.1l12.5,17
					c0.1,0.1,0.3,0.2,0.4,0.2c0,0,0.1,0,0.2,0c0.2-0.1,0.4-0.2,0.4-0.4V69.6c0,0,0-0.1,0-0.1c0-1.5,1.3-2.8,2.8-2.8
					c1.5,0,2.7,1.2,2.8,2.7c0,0,0,0.1,0,0.2v24.6c0,0,0,0,0,0c0,1.2-0.8,2.3-1.9,2.6c-0.3,0.1-0.6,0.1-0.9,0.1c-0.8,0-1.6-0.4-2.1-1
					c0,0-0.1-0.1-0.1-0.1l-12.5-17c-0.1-0.1-0.3-0.2-0.4-0.2c0,0-0.1,0-0.2,0c-0.2,0.1-0.4,0.2-0.4,0.4v15.2c0,0,0,0.1,0,0.1
					c0,1.5-1.3,2.8-2.8,2.8c-1.5,0-2.7-1.2-2.8-2.7c0,0,0-0.1,0-0.2V69.6c0,0,0,0,0,0C83.7,68.3,84.5,67.3,85.6,66.9z"/>
				<path class="st35" d="M85.6,66.9c0.3-0.1,0.6-0.1,0.9-0.1c0.8,0,1.6,0.4,2.1,1c0,0,0.1,0.1,0.1,0.1L101.3,85
					c0.1,0.1,0.3,0.2,0.4,0.2c0.1,0,0.1,0,0.2,0c0.2-0.1,0.4-0.2,0.4-0.4V69.6c0,0,0-0.1,0-0.1c0-1.5,1.3-2.8,2.8-2.8
					c1.5,0,2.7,1.2,2.8,2.7c0,0,0,0.1,0,0.2v24.6c0,0,0,0,0,0c0,1.2-0.8,2.2-1.9,2.6c-0.3,0.1-0.6,0.1-0.9,0.1c-0.8,0-1.6-0.4-2.1-1
					c0,0-0.1-0.1-0.1-0.1L90.2,78.8c-0.1-0.1-0.3-0.2-0.4-0.2c-0.1,0-0.1,0-0.2,0c-0.2,0.1-0.4,0.2-0.4,0.4v15.2c0,0,0,0.1,0,0.1
					c0,1.5-1.3,2.8-2.8,2.8c-1.5,0-2.7-1.2-2.8-2.7c0,0,0-0.1,0-0.2V69.6c0,0,0,0,0,0C83.7,68.4,84.5,67.3,85.6,66.9z"/>
				<path class="st36" d="M85.6,67c0.3-0.1,0.6-0.1,0.9-0.1c0.8,0,1.6,0.4,2.1,1c0,0,0.1,0.1,0.1,0.1L101.3,85
					c0.1,0.1,0.3,0.2,0.4,0.2c0.1,0,0.1,0,0.2,0c0.2-0.1,0.4-0.2,0.4-0.4V69.7c0,0,0-0.1,0-0.1c0-1.5,1.2-2.7,2.8-2.7
					c1.5,0,2.7,1.2,2.7,2.7c0,0,0,0.1,0,0.1v24.6c0,0,0,0,0,0c0,1.2-0.8,2.2-1.9,2.6c-0.3,0.1-0.6,0.1-0.9,0.1c-0.8,0-1.6-0.4-2.1-1
					c0,0-0.1-0.1-0.1-0.1L90.2,78.8c-0.1-0.1-0.3-0.2-0.4-0.2c-0.1,0-0.1,0-0.2,0c-0.2,0.1-0.4,0.2-0.4,0.4v15.2c0,0,0,0.1,0,0.1
					c0,1.5-1.2,2.7-2.8,2.7c-1.5,0-2.7-1.2-2.7-2.7c0,0,0-0.1,0-0.1V69.6c0,0,0,0,0,0C83.7,68.4,84.5,67.3,85.6,67z"/>
				<path class="st37" d="M85.6,67c0.3-0.1,0.6-0.1,0.9-0.1c0.8,0,1.6,0.4,2.1,1.1c0,0,0.1,0.1,0.1,0.1l12.6,17.1
					c0.1,0.1,0.3,0.2,0.4,0.2c0.1,0,0.1,0,0.2,0c0.2-0.1,0.4-0.2,0.4-0.5V69.7c0,0,0-0.1,0-0.1c0-1.5,1.2-2.7,2.7-2.7
					c1.5,0,2.7,1.2,2.7,2.7c0,0,0,0.1,0,0.1v24.6c0,0,0,0,0,0c0,1.2-0.8,2.2-1.9,2.6c-0.3,0.1-0.6,0.1-0.9,0.1
					c-0.8,0-1.6-0.4-2.1-1.1c0,0-0.1-0.1-0.1-0.1L90.2,78.7c-0.1-0.1-0.3-0.2-0.4-0.2c-0.1,0-0.1,0-0.2,0c-0.2,0.1-0.4,0.2-0.4,0.5
					v15.2c0,0,0,0.1,0,0.1c0,1.5-1.2,2.7-2.7,2.7c-1.5,0-2.7-1.2-2.7-2.7c0,0,0-0.1,0-0.1V69.6c0,0,0,0,0,0
					C83.8,68.4,84.5,67.4,85.6,67z"/>
				<path class="st38" d="M85.6,67c0.3-0.1,0.6-0.1,0.9-0.1c0.8,0,1.6,0.4,2.1,1.1c0,0,0.1,0.1,0.1,0.1l12.6,17.1
					c0.1,0.1,0.3,0.2,0.4,0.2c0.1,0,0.1,0,0.2,0c0.2-0.1,0.4-0.3,0.4-0.5V69.7c0,0,0-0.1,0-0.1c0-1.5,1.2-2.7,2.7-2.7
					c1.5,0,2.7,1.2,2.7,2.7c0,0,0,0.1,0,0.1v24.6c0,0,0,0,0,0c0,1.2-0.7,2.2-1.9,2.6c-0.3,0.1-0.6,0.1-0.9,0.1
					c-0.8,0-1.6-0.4-2.1-1.1c0,0-0.1-0.1-0.1-0.1L90.2,78.7c-0.1-0.1-0.3-0.2-0.4-0.2c-0.1,0-0.1,0-0.2,0c-0.2,0.1-0.4,0.3-0.4,0.5
					v15.2c0,0,0,0.1,0,0.1c0,1.5-1.2,2.7-2.7,2.7c-1.5,0-2.7-1.2-2.7-2.7c0,0,0-0.1,0-0.1V69.7c0,0,0,0,0,0
					C83.8,68.4,84.5,67.4,85.6,67z"/>
				<path class="st39" d="M85.6,67.1c0.3-0.1,0.6-0.1,0.9-0.1c0.8,0,1.6,0.4,2.1,1.1c0,0,0,0.1,0,0.1l12.6,17.1
					c0.1,0.1,0.3,0.2,0.4,0.2c0.1,0,0.1,0,0.2,0c0.2-0.1,0.4-0.3,0.4-0.5V69.7c0,0,0-0.1,0-0.1c0-1.5,1.2-2.7,2.7-2.7
					c1.5,0,2.7,1.2,2.7,2.7c0,0,0,0.1,0,0.1v24.6c0,0,0,0,0,0c0,1.2-0.7,2.2-1.8,2.6c-0.3,0.1-0.6,0.1-0.9,0.1
					c-0.8,0-1.6-0.4-2.1-1.1c0,0,0-0.1,0-0.1L90.2,78.7c-0.1-0.1-0.3-0.2-0.4-0.2c-0.1,0-0.1,0-0.2,0c-0.2,0.1-0.4,0.3-0.4,0.5v15.2
					c0,0,0,0.1,0,0.1c0,1.5-1.2,2.7-2.7,2.7c-1.5,0-2.7-1.2-2.7-2.7c0,0,0-0.1,0-0.1V69.7c0,0,0,0,0,0
					C83.8,68.5,84.5,67.4,85.6,67.1z"/>
				<path class="st40" d="M105,97c-0.8,0-1.6-0.4-2.1-1.1L90.2,78.7c-0.1-0.1-0.3-0.2-0.5-0.2c-0.1,0-0.1,0-0.2,0
					c-0.2,0.1-0.4,0.3-0.4,0.5v15.3c0,1.5-1.2,2.7-2.7,2.7c-1.5,0-2.7-1.2-2.7-2.7V69.6c0-1.2,0.7-2.2,1.8-2.5
					c0.3-0.1,0.6-0.1,0.9-0.1c0.8,0,1.6,0.4,2.1,1.1l12.6,17.2c0.1,0.1,0.3,0.2,0.5,0.2c0.1,0,0.1,0,0.2,0c0.2-0.1,0.4-0.3,0.4-0.5
					V69.6c0-1.5,1.2-2.7,2.7-2.7c1.5,0,2.7,1.2,2.7,2.7v24.7c0,1.2-0.7,2.2-1.8,2.5C105.6,96.9,105.3,97,105,97z"/>
			</g>
			<g>
				<path class="st8" d="M75.3,65.9c-1.8,0-3.3,1.5-3.3,3.3v24.7c0,1.8,1.5,3.3,3.3,3.3c1.8,0,3.3-1.5,3.3-3.3V69.1
					C78.6,67.3,77.1,65.9,75.3,65.9z"/>
				<path class="st10" d="M75.3,97c-1.8,0-3.2-1.5-3.2-3.2V69.1c0-1.8,1.4-3.2,3.2-3.2c1.8,0,3.2,1.5,3.2,3.2v24.7
					C78.5,95.6,77.1,97,75.3,97z"/>
				<path class="st11" d="M75.3,97c-1.8,0-3.2-1.4-3.2-3.2V69.2c0-1.8,1.4-3.2,3.2-3.2c1.8,0,3.2,1.4,3.2,3.2v24.7
					C78.5,95.6,77.1,97,75.3,97z"/>
				<path class="st12" d="M75.3,97c-1.8,0-3.2-1.4-3.2-3.2V69.2c0-1.8,1.4-3.2,3.2-3.2c1.8,0,3.2,1.4,3.2,3.2v24.7
					C78.5,95.6,77.1,97,75.3,97z"/>
				<path class="st13" d="M75.3,97c-1.8,0-3.2-1.4-3.2-3.2V69.2c0-1.8,1.4-3.2,3.2-3.2c1.8,0,3.2,1.4,3.2,3.2v24.7
					C78.5,95.6,77.1,97,75.3,97z"/>
				<path class="st14" d="M75.3,97c-1.7,0-3.2-1.4-3.2-3.2V69.2c0-1.7,1.4-3.2,3.2-3.2c1.7,0,3.2,1.4,3.2,3.2v24.7
					C78.5,95.6,77.1,97,75.3,97z"/>
				<path class="st15" d="M75.3,97c-1.7,0-3.1-1.4-3.1-3.1V69.2c0-1.7,1.4-3.1,3.1-3.1c1.7,0,3.1,1.4,3.1,3.1v24.7
					C78.4,95.6,77,97,75.3,97z"/>
				<path class="st16" d="M75.3,97c-1.7,0-3.1-1.4-3.1-3.1V69.2c0-1.7,1.4-3.1,3.1-3.1c1.7,0,3.1,1.4,3.1,3.1v24.7
					C78.4,95.6,77,97,75.3,97z"/>
				<path class="st17" d="M75.3,97c-1.7,0-3.1-1.4-3.1-3.1V69.3c0-1.7,1.4-3.1,3.1-3.1c1.7,0,3.1,1.4,3.1,3.1v24.7
					C78.4,95.6,77,97,75.3,97z"/>
				<path class="st18" d="M75.3,97c-1.7,0-3.1-1.4-3.1-3.1V69.3c0-1.7,1.4-3.1,3.1-3.1c1.7,0,3.1,1.4,3.1,3.1v24.7
					C78.4,95.6,77,97,75.3,97z"/>
				<path class="st19" d="M75.3,97c-1.7,0-3.1-1.4-3.1-3.1V69.3c0-1.7,1.4-3.1,3.1-3.1c1.7,0,3.1,1.4,3.1,3.1v24.7
					C78.4,95.6,77,97,75.3,97z"/>
				<path class="st20" d="M75.3,97c-1.7,0-3-1.4-3-3.1V69.3c0-1.7,1.4-3.1,3-3.1c1.7,0,3,1.4,3,3.1V94C78.4,95.6,77,97,75.3,97z"/>
				<path class="st21" d="M75.3,97c-1.7,0-3-1.4-3-3V69.3c0-1.7,1.4-3,3-3c1.7,0,3,1.4,3,3V94C78.3,95.7,77,97,75.3,97z"/>
				<path class="st22" d="M75.3,97c-1.7,0-3-1.4-3-3V69.3c0-1.7,1.4-3,3-3c1.7,0,3,1.4,3,3V94C78.3,95.7,77,97,75.3,97z"/>
				<path class="st23" d="M75.3,97c-1.7,0-3-1.3-3-3V69.4c0-1.7,1.3-3,3-3c1.7,0,3,1.3,3,3V94C78.3,95.7,77,97,75.3,97z"/>
				<path class="st24" d="M75.3,97c-1.6,0-3-1.3-3-3V69.4c0-1.6,1.3-3,3-3c1.6,0,3,1.3,3,3V94C78.3,95.7,77,97,75.3,97z"/>
				<path class="st25" d="M75.3,97c-1.6,0-3-1.3-3-3V69.4c0-1.6,1.3-3,3-3c1.6,0,3,1.3,3,3V94C78.3,95.7,76.9,97,75.3,97z"/>
				<path class="st26" d="M75.3,97c-1.6,0-2.9-1.3-2.9-2.9V69.4c0-1.6,1.3-2.9,2.9-2.9c1.6,0,2.9,1.3,2.9,2.9v24.7
					C78.2,95.7,76.9,97,75.3,97z"/>
				<path class="st27" d="M75.3,97c-1.6,0-2.9-1.3-2.9-2.9V69.4c0-1.6,1.3-2.9,2.9-2.9c1.6,0,2.9,1.3,2.9,2.9v24.7
					C78.2,95.7,76.9,97,75.3,97z"/>
				<path class="st28" d="M75.3,97c-1.6,0-2.9-1.3-2.9-2.9V69.4c0-1.6,1.3-2.9,2.9-2.9c1.6,0,2.9,1.3,2.9,2.9v24.7
					C78.2,95.7,76.9,97,75.3,97z"/>
				<path class="st29" d="M75.3,97c-1.6,0-2.9-1.3-2.9-2.9V69.5c0-1.6,1.3-2.9,2.9-2.9c1.6,0,2.9,1.3,2.9,2.9v24.7
					C78.2,95.7,76.9,97,75.3,97z"/>
				<path class="st30" d="M75.3,97c-1.6,0-2.9-1.3-2.9-2.9V69.5c0-1.6,1.3-2.9,2.9-2.9c1.6,0,2.9,1.3,2.9,2.9v24.7
					C78.2,95.7,76.9,97,75.3,97z"/>
				<path class="st31" d="M75.3,97c-1.6,0-2.8-1.3-2.8-2.9V69.5c0-1.6,1.3-2.8,2.8-2.8c1.6,0,2.8,1.3,2.8,2.8v24.7
					C78.2,95.7,76.9,97,75.3,97z"/>
				<path class="st32" d="M75.3,97c-1.6,0-2.8-1.3-2.8-2.8V69.5c0-1.6,1.3-2.8,2.8-2.8c1.6,0,2.8,1.3,2.8,2.8v24.7
					C78.1,95.7,76.9,97,75.3,97z"/>
				<path class="st33" d="M75.3,97c-1.5,0-2.8-1.3-2.8-2.8V69.5c0-1.6,1.3-2.8,2.8-2.8c1.6,0,2.8,1.3,2.8,2.8v24.7
					C78.1,95.7,76.9,97,75.3,97z"/>
				<path class="st34" d="M75.3,97c-1.5,0-2.8-1.3-2.8-2.8V69.5c0-1.5,1.3-2.8,2.8-2.8c1.5,0,2.8,1.3,2.8,2.8v24.7
					C78.1,95.7,76.8,97,75.3,97z"/>
				<path class="st35" d="M75.3,97c-1.5,0-2.8-1.2-2.8-2.8V69.6c0-1.5,1.2-2.8,2.8-2.8c1.5,0,2.8,1.2,2.8,2.8v24.7
					C78.1,95.7,76.8,97,75.3,97z"/>
				<path class="st36" d="M75.3,97c-1.5,0-2.8-1.2-2.8-2.8V69.6c0-1.5,1.2-2.8,2.8-2.8c1.5,0,2.8,1.2,2.8,2.8v24.7
					C78.1,95.8,76.8,97,75.3,97z"/>
				<path class="st37" d="M75.3,97c-1.5,0-2.7-1.2-2.7-2.7V69.6c0-1.5,1.2-2.7,2.7-2.7c1.5,0,2.7,1.2,2.7,2.7v24.7
					C78,95.8,76.8,97,75.3,97z"/>
				<path class="st38" d="M75.3,97c-1.5,0-2.7-1.2-2.7-2.7V69.6c0-1.5,1.2-2.7,2.7-2.7c1.5,0,2.7,1.2,2.7,2.7v24.7
					C78,95.8,76.8,97,75.3,97z"/>
				<path class="st39" d="M75.3,97c-1.5,0-2.7-1.2-2.7-2.7V69.6c0-1.5,1.2-2.7,2.7-2.7c1.5,0,2.7,1.2,2.7,2.7v24.7
					C78,95.8,76.8,97,75.3,97z"/>
				<path class="st40" d="M75.3,97c-1.5,0-2.7-1.2-2.7-2.7V69.6c0-1.5,1.2-2.7,2.7-2.7c1.5,0,2.7,1.2,2.7,2.7v24.7
					C78,95.8,76.8,97,75.3,97z"/>
			</g>
			<g>
				<path class="st8" d="M65.8,90.5h-9.1V69.1c0-1.8-1.5-3.3-3.3-3.3c-1.8,0-3.3,1.5-3.3,3.3v24.7c0,1.8,1.5,3.3,3.3,3.3h12.3
					c1.8,0,3.3-1.5,3.3-3.3C69.1,92,67.6,90.5,65.8,90.5z"/>
				<path class="st10" d="M53.5,65.9c1.5,0,2.7,1,3.1,2.4c0.1,0.3,0.1,0.6,0.1,0.9v21.3c0,0,0,0.1,0,0.1h9.1c0.1,0,0.2,0,0.3,0
					c1.7,0.1,3,1.5,3,3.2c0,0.1,0,0.1,0,0.1C69,95.7,67.5,97,65.8,97H53.5c-1.6,0-2.9-1.1-3.2-2.6c0-0.2-0.1-0.4-0.1-0.7V69.1
					c0,0,0-0.1,0-0.1C50.3,67.3,51.7,65.9,53.5,65.9z"/>
				<path class="st11" d="M53.5,65.9c1.5,0,2.7,1,3.1,2.4c0.1,0.3,0.1,0.6,0.1,0.9v21.3c0,0,0,0.1,0,0.1h9.1c0.1,0,0.2,0,0.3,0
					c1.7,0.1,3,1.5,3,3.2c0,0,0,0.1,0,0.1c-0.1,1.7-1.5,3.1-3.2,3.1H53.5c-1.6,0-2.9-1.1-3.1-2.6c0-0.2-0.1-0.4-0.1-0.6V69.2
					c0,0,0-0.1,0-0.1C50.3,67.3,51.7,65.9,53.5,65.9z"/>
				<path class="st12" d="M53.5,66c1.5,0,2.7,1,3.1,2.4c0.1,0.3,0.1,0.5,0.1,0.8v21.3c0,0,0,0.1,0.1,0.1h9.1c0.1,0,0.2,0,0.3,0
					c1.6,0.1,2.9,1.5,3,3.2c0,0,0,0.1,0,0.1c-0.1,1.7-1.5,3.1-3.2,3.1H53.5c-1.6,0-2.8-1.1-3.1-2.6c0-0.2-0.1-0.4-0.1-0.6V69.2
					c0,0,0-0.1,0-0.1C50.3,67.4,51.7,66,53.5,66z"/>
				<path class="st13" d="M53.5,66c1.5,0,2.7,1,3.1,2.4c0.1,0.3,0.1,0.5,0.1,0.8v21.3c0,0,0,0.2,0.1,0.2h9c0.1,0,0.2,0,0.3,0
					c1.6,0.1,2.9,1.5,2.9,3.2c0,0,0,0.1,0,0.1c-0.1,1.7-1.5,3.1-3.2,3.1H53.5c-1.5,0-2.8-1.1-3.1-2.6c0-0.2-0.1-0.4-0.1-0.6V69.2
					c0,0,0-0.1,0-0.1C50.3,67.4,51.8,66,53.5,66z"/>
				<path class="st14" d="M53.5,66c1.5,0,2.7,1,3.1,2.4c0.1,0.2,0.1,0.5,0.1,0.8v21.3c0,0.1,0,0.2,0.1,0.2h9c0.1,0,0.2,0,0.3,0
					c1.6,0.1,2.9,1.5,2.9,3.1c0,0,0,0.1,0,0.1c-0.1,1.7-1.5,3-3.2,3H53.5c-1.5,0-2.8-1.1-3.1-2.6c0-0.2-0.1-0.4-0.1-0.6V69.2
					c0,0,0-0.1,0-0.1C50.4,67.4,51.8,66,53.5,66z"/>
				<path class="st15" d="M53.5,66.1c1.5,0,2.7,1,3,2.4c0.1,0.2,0.1,0.5,0.1,0.8v21.3c0,0.1,0,0.2,0.1,0.2h9c0.1,0,0.2,0,0.3,0
					c1.6,0.1,2.9,1.5,2.9,3.1c0,0,0,0.1,0,0.1c-0.1,1.7-1.4,3-3.1,3H53.5c-1.5,0-2.8-1.1-3.1-2.6c0-0.2-0.1-0.4-0.1-0.6V69.2
					c0,0,0-0.1,0-0.1C50.4,67.5,51.8,66.1,53.5,66.1z"/>
				<path class="st16" d="M53.5,66.1c1.5,0,2.7,1,3,2.4c0.1,0.2,0.1,0.5,0.1,0.7v21.3c0,0.1,0.1,0.2,0.1,0.2h9c0.1,0,0.2,0,0.3,0
					c1.6,0.1,2.9,1.4,2.9,3.1c0,0,0,0.1,0,0.1c-0.1,1.7-1.4,3-3.1,3H53.5c-1.5,0-2.8-1.1-3.1-2.6c0-0.2-0.1-0.4-0.1-0.5V69.3
					c0,0,0-0.1,0-0.1C50.4,67.5,51.8,66.1,53.5,66.1z"/>
				<path class="st17" d="M53.5,66.2c1.5,0,2.7,1,3,2.4c0.1,0.2,0.1,0.5,0.1,0.7v21.3c0,0.1,0.1,0.2,0.1,0.2h9c0.1,0,0.2,0,0.3,0
					c1.6,0.1,2.9,1.4,2.9,3.1c0,0,0,0.1,0,0.1c-0.1,1.7-1.4,3-3.1,3H53.5c-1.5,0-2.8-1.1-3.1-2.6c0-0.2-0.1-0.3-0.1-0.5V69.3
					c0,0,0-0.1,0-0.1C50.4,67.5,51.8,66.2,53.5,66.2z"/>
				<path class="st18" d="M53.5,66.2c1.5,0,2.7,1.1,3,2.4c0.1,0.2,0.1,0.5,0.1,0.7v21.3c0,0.1,0.1,0.2,0.2,0.2h9c0.1,0,0.2,0,0.3,0
					c1.6,0.1,2.9,1.4,2.9,3c0,0,0,0.1,0,0.1c-0.1,1.7-1.4,3-3.1,3H53.5c-1.5,0-2.8-1.1-3-2.6c0-0.2-0.1-0.3-0.1-0.5V69.3
					c0,0,0-0.1,0-0.1C50.4,67.5,51.8,66.2,53.5,66.2z"/>
				<path class="st19" d="M53.5,66.2c1.5,0,2.7,1.1,3,2.5c0.1,0.2,0.1,0.4,0.1,0.7v21.3c0,0.1,0.1,0.3,0.2,0.3h9c0.1,0,0.2,0,0.3,0
					c1.6,0.1,2.9,1.4,2.9,3c0,0,0,0.1,0,0.1c-0.1,1.6-1.4,3-3.1,3H53.5c-1.5,0-2.8-1.1-3-2.6c0-0.1,0-0.3,0-0.5V69.3
					c0,0,0-0.1,0-0.1C50.4,67.6,51.8,66.2,53.5,66.2z"/>
				<path class="st20" d="M53.5,66.3c1.5,0,2.7,1.1,3,2.5c0.1,0.2,0.1,0.4,0.1,0.6v21.3c0,0.1,0.1,0.3,0.2,0.3h9c0.1,0,0.2,0,0.3,0
					c1.6,0.1,2.9,1.4,2.9,3c0,0,0,0.1,0,0.1c-0.1,1.6-1.4,3-3,3H53.5c-1.5,0-2.8-1.1-3-2.6c0-0.1,0-0.3,0-0.5V69.3c0,0,0-0.1,0-0.1
					C50.5,67.6,51.8,66.3,53.5,66.3z"/>
				<path class="st21" d="M53.5,66.3c1.5,0,2.7,1.1,3,2.5c0.1,0.2,0.1,0.4,0.1,0.6v21.3c0,0.1,0.1,0.3,0.2,0.3h9c0.1,0,0.2,0,0.3,0
					c1.6,0.1,2.8,1.4,2.9,3c0,0,0,0.1,0,0.1c0,1.6-1.4,2.9-3,2.9H53.5c-1.5,0-2.8-1.1-3-2.6c0-0.1,0-0.3,0-0.4V69.4c0,0,0-0.1,0-0.1
					C50.5,67.6,51.8,66.3,53.5,66.3z"/>
				<path class="st22" d="M53.5,66.3c1.5,0,2.7,1.1,2.9,2.5c0,0.2,0.1,0.4,0.1,0.6v21.3c0,0.1,0.1,0.3,0.2,0.3h9c0.1,0,0.2,0,0.2,0
					c1.6,0.1,2.8,1.4,2.9,3c0,0,0,0.1,0,0.1c0,1.6-1.4,2.9-3,2.9H53.5c-1.5,0-2.8-1.1-3-2.6c0-0.1,0-0.3,0-0.4V69.4c0,0,0-0.1,0-0.1
					C50.5,67.7,51.8,66.3,53.5,66.3z"/>
				<path class="st23" d="M53.5,66.4c1.5,0,2.7,1.1,2.9,2.5c0,0.2,0.1,0.4,0.1,0.5v21.3c0,0.1,0.1,0.3,0.3,0.3h9c0,0,0.2,0,0.2,0
					c1.6,0.1,2.8,1.4,2.8,2.9c0,0,0,0.1,0,0.1c0,1.6-1.4,2.9-3,2.9H53.5c-1.5,0-2.8-1.1-3-2.6c0-0.1,0-0.3,0-0.4V69.4
					c0,0,0-0.1,0-0.1C50.5,67.7,51.8,66.4,53.5,66.4z"/>
				<path class="st24" d="M53.5,66.4c1.5,0,2.7,1.1,2.9,2.5c0,0.1,0.1,0.4,0.1,0.5v21.3c0,0.2,0.1,0.3,0.3,0.3h9c0,0,0.2,0,0.2,0
					c1.6,0.1,2.8,1.3,2.8,2.9c0,0,0,0.1,0,0.1c0,1.6-1.4,2.9-3,2.9H53.5c-1.5,0-2.8-1.2-2.9-2.6c0-0.1,0-0.3,0-0.4V69.4
					c0,0,0-0.1,0-0.1C50.5,67.7,51.9,66.4,53.5,66.4z"/>
				<path class="st25" d="M53.5,66.4c1.5,0,2.7,1.1,2.9,2.5c0,0.1,0.1,0.3,0.1,0.5v21.3c0,0.2,0.1,0.3,0.3,0.3h9c0,0,0.2,0,0.2,0
					c1.5,0.1,2.8,1.3,2.8,2.9c0,0,0,0.1,0,0.1c0,1.6-1.3,2.9-3,2.9H53.5c-1.5,0-2.8-1.2-2.9-2.6c0-0.1,0-0.2,0-0.4V69.4
					c0,0,0-0.1,0-0.1C50.5,67.7,51.9,66.4,53.5,66.4z"/>
				<path class="st26" d="M53.5,66.5c1.5,0,2.7,1.1,2.9,2.5c0,0.1,0.1,0.3,0.1,0.5v21.3c0,0.2,0.1,0.4,0.3,0.4h9c0,0,0.2,0,0.2,0
					c1.5,0.1,2.8,1.3,2.8,2.9c0,0,0,0.1,0,0.1c0,1.6-1.3,2.9-2.9,2.9H53.5c-1.5,0-2.8-1.2-2.9-2.6c0-0.1,0-0.2,0-0.3V69.4
					c0,0,0-0.1,0-0.1C50.6,67.8,51.9,66.5,53.5,66.5z"/>
				<path class="st27" d="M53.5,66.5c1.5,0,2.7,1.1,2.9,2.5c0,0.1,0.1,0.3,0.1,0.4v21.3c0,0.2,0.1,0.4,0.3,0.4h8.9c0,0,0.2,0,0.2,0
					c1.5,0.1,2.8,1.3,2.8,2.8c0,0,0,0.1,0,0.1c0,1.6-1.3,2.9-2.9,2.9H53.5c-1.5,0-2.8-1.2-2.9-2.6c0-0.1,0-0.2,0-0.3V69.5
					c0,0,0-0.1,0-0.1C50.6,67.8,51.9,66.5,53.5,66.5z"/>
				<path class="st28" d="M53.5,66.5c1.5,0,2.7,1.1,2.9,2.6c0,0.1,0,0.3,0,0.4v21.3c0,0.2,0.2,0.4,0.3,0.4h8.9c0,0,0.2,0,0.2,0
					c1.5,0.1,2.8,1.3,2.8,2.8c0,0,0,0.1,0,0.1c0,1.6-1.3,2.8-2.9,2.8H53.5c-1.5,0-2.8-1.2-2.9-2.6c0-0.1,0-0.2,0-0.3V69.5
					c0,0,0-0.1,0-0.1C50.6,67.8,51.9,66.5,53.5,66.5z"/>
				<path class="st29" d="M53.5,66.6c1.5,0,2.7,1.1,2.8,2.6c0,0.1,0,0.3,0,0.4v21.3c0,0.2,0.2,0.4,0.4,0.4h8.9c0,0,0.2,0,0.2,0
					c1.5,0,2.7,1.3,2.8,2.8c0,0,0,0.1,0,0.1c0,1.6-1.3,2.8-2.9,2.8H53.5c-1.5,0-2.7-1.2-2.9-2.6c0-0.1,0-0.2,0-0.3V69.5
					c0,0,0-0.1,0-0.1C50.6,67.9,51.9,66.6,53.5,66.6z"/>
				<path class="st30" d="M53.5,66.6c1.5,0,2.7,1.1,2.8,2.6c0,0.1,0,0.3,0,0.4v21.3c0,0.2,0.2,0.4,0.4,0.4h8.9c0,0,0.2,0,0.2,0
					c1.5,0,2.7,1.3,2.8,2.8c0,0,0,0.1,0,0.1c0,1.6-1.3,2.8-2.9,2.8H53.5c-1.5,0-2.7-1.2-2.8-2.6c0-0.1,0-0.2,0-0.3V69.5
					c0,0,0-0.1,0-0.1C50.6,67.9,51.9,66.6,53.5,66.6z"/>
				<path class="st31" d="M53.5,66.6c1.5,0,2.7,1.1,2.8,2.6c0,0.1,0,0.3,0,0.3v21.3c0,0.2,0.2,0.4,0.4,0.4h8.9c0,0,0.2,0,0.2,0
					c1.5,0,2.7,1.3,2.8,2.8c0,0,0,0.1,0,0.1c0,1.6-1.3,2.8-2.8,2.8H53.5c-1.5,0-2.7-1.2-2.8-2.7c0-0.1,0-0.2,0-0.2V69.5
					c0,0,0-0.1,0-0.1C50.6,67.9,51.9,66.6,53.5,66.6z"/>
				<path class="st32" d="M53.5,66.7c1.5,0,2.7,1.1,2.8,2.6c0,0.1,0,0.2,0,0.3v21.3c0,0.2,0.2,0.4,0.4,0.4h8.9c0,0,0.2,0,0.2,0
					c1.5,0,2.7,1.2,2.8,2.7c0,0,0,0.1,0,0.1c0,1.5-1.3,2.8-2.8,2.8H53.5c-1.5,0-2.7-1.2-2.8-2.7c0-0.1,0-0.2,0-0.2V69.6
					c0,0,0-0.1,0-0.1C50.7,67.9,51.9,66.7,53.5,66.7z"/>
				<path class="st33" d="M53.5,66.7c1.5,0,2.7,1.2,2.8,2.6c0,0.1,0,0.2,0,0.3v21.3c0,0.2,0.2,0.5,0.4,0.5h8.9c0,0,0.2,0,0.2,0
					c1.5,0,2.7,1.2,2.7,2.7c0,0,0,0.1,0,0.1c0,1.5-1.3,2.8-2.8,2.8H53.5c-1.5,0-2.7-1.2-2.8-2.7c0,0,0-0.1,0-0.2V69.6
					c0,0,0-0.1,0-0.1C50.7,68,51.9,66.7,53.5,66.7z"/>
				<path class="st34" d="M53.5,66.7c1.5,0,2.7,1.2,2.8,2.6c0,0.1,0,0.2,0,0.3v21.3c0,0.3,0.2,0.5,0.5,0.5h8.9c0,0,0.2,0,0.2,0
					c1.5,0,2.7,1.2,2.7,2.7c0,0,0,0.1,0,0.1c0,1.5-1.3,2.8-2.8,2.8H53.5c-1.5,0-2.7-1.2-2.8-2.7c0,0,0-0.1,0-0.2V69.6
					c0,0,0-0.1,0-0.1C50.7,68,51.9,66.7,53.5,66.7z"/>
				<path class="st35" d="M53.5,66.8c1.5,0,2.7,1.2,2.8,2.6c0,0,0,0.2,0,0.2v21.3c0,0.3,0.2,0.5,0.5,0.5h8.9c0,0,0.2,0,0.2,0
					c1.5,0,2.7,1.2,2.7,2.7c0,0,0,0.1,0,0.1c0,1.5-1.3,2.8-2.8,2.8H53.5c-1.5,0-2.7-1.2-2.8-2.7c0,0,0-0.1,0-0.2V69.6
					c0,0,0-0.1,0-0.1C50.7,68,52,66.8,53.5,66.8z"/>
				<path class="st36" d="M53.5,66.8c1.5,0,2.7,1.2,2.7,2.6c0,0,0,0.2,0,0.2V91c0,0.3,0.2,0.5,0.5,0.5h8.9c0,0,0.2,0,0.2,0
					c1.5,0,2.7,1.2,2.7,2.7c0,0,0,0.1,0,0.1c0,1.5-1.2,2.7-2.8,2.7H53.5c-1.5,0-2.7-1.2-2.7-2.7c0,0,0-0.1,0-0.1V69.6
					c0,0,0-0.1,0-0.1C50.7,68.1,52,66.8,53.5,66.8z"/>
				<path class="st37" d="M53.5,66.9c1.5,0,2.7,1.2,2.7,2.7c0,0,0,0.2,0,0.2V91c0,0.3,0.2,0.5,0.5,0.5h8.9c0,0,0.2,0,0.2,0
					c1.5,0,2.6,1.2,2.7,2.6c0,0,0,0.1,0,0.1c0,1.5-1.2,2.7-2.7,2.7H53.5c-1.5,0-2.7-1.2-2.7-2.7c0,0,0-0.1,0-0.1V69.7
					c0,0,0-0.1,0-0.1C50.7,68.1,52,66.9,53.5,66.9z"/>
				<path class="st38" d="M53.5,66.9c1.5,0,2.7,1.2,2.7,2.7c0,0,0,0.1,0,0.2V91c0,0.3,0.2,0.5,0.5,0.5h8.9c0,0,0.2,0,0.2,0
					c1.5,0,2.6,1.2,2.7,2.6c0,0,0,0.1,0,0.1c0,1.5-1.2,2.7-2.7,2.7H53.5c-1.5,0-2.7-1.2-2.7-2.7c0,0,0-0.1,0-0.1V69.7
					c0,0,0-0.1,0-0.1C50.8,68.1,52,66.9,53.5,66.9z"/>
				<path class="st39" d="M53.5,66.9c1.5,0,2.7,1.2,2.7,2.7c0,0,0,0.1,0,0.1V91c0,0.3,0.2,0.6,0.6,0.6h8.9c0,0,0.2,0,0.2,0
					c1.4,0,2.6,1.2,2.7,2.6c0,0,0,0.1,0,0.1c0,1.5-1.2,2.7-2.7,2.7H53.5c-1.5,0-2.7-1.2-2.7-2.7c0,0,0-0.1,0-0.1V69.7
					c0,0,0-0.1,0-0.1C50.8,68.1,52,66.9,53.5,66.9z"/>
				<path class="st40" d="M53.5,97c-1.5,0-2.7-1.2-2.7-2.7V69.6c0-1.5,1.2-2.7,2.7-2.7c1.5,0,2.7,1.2,2.7,2.7V91
					c0,0.3,0.3,0.6,0.6,0.6h9.1c1.5,0,2.7,1.2,2.7,2.7c0,1.5-1.2,2.7-2.7,2.7H53.5z"/>
			</g>
		</g>
	</g>
</g>
<g id="TYPE_C" class="st0">
	<g class="st2">
		<path class="st4" d="M377.1,2.5L268.6,2.3c-17,0-30.9,13.8-30.9,30.8l-0.2,108.5c0,17,13.8,30.9,30.8,30.9l108.5,0.2
			c17,0,30.9-13.8,30.9-30.8L408,33.4C408,16.3,394.2,2.5,377.1,2.5z"/>
		<g>
			<g>
				<path class="st6" d="M384.8,80c0-27.8-27.8-50.3-62-50.3c-34.2,0-62,22.6-62,50.3c0,24.9,22.1,45.7,51.9,49.7
					c2,0.4,4.8,1.3,5.5,3.1c0.6,1.6,0.4,4,0.2,5.6c0,0-0.7,4.4-0.9,5.3c-0.3,1.6-1.2,6.1,5.4,3.3c6.6-2.8,35.7-21,48.7-36h0
					C380.5,101.1,384.8,91.1,384.8,80z M298.5,96.5h-12.3c-1.8,0-3.3-1.5-3.3-3.3V68.6c0-1.8,1.5-3.3,3.3-3.3c1.8,0,3.3,1.5,3.3,3.3
					V90h9.1c1.8,0,3.3,1.5,3.3,3.3C301.8,95.1,300.3,96.5,298.5,96.5z M311.3,93.3c0,1.8-1.5,3.3-3.3,3.3c-1.8,0-3.3-1.5-3.3-3.3
					V68.6c0-1.8,1.5-3.3,3.3-3.3c1.8,0,3.3,1.5,3.3,3.3V93.3z M340.9,93.3c0,1.4-0.9,2.6-2.2,3.1c-0.3,0.1-0.7,0.2-1,0.2
					c-1,0-2-0.5-2.6-1.3L322.4,78v15.3c0,1.8-1.5,3.3-3.3,3.3c-1.8,0-3.3-1.5-3.3-3.3V68.6c0-1.4,0.9-2.6,2.2-3.1
					c0.3-0.1,0.7-0.2,1-0.2c1,0,2,0.5,2.6,1.3l12.6,17.2V68.6c0-1.8,1.5-3.3,3.3-3.3c1.8,0,3.3,1.5,3.3,3.3V93.3z M360.9,77.7
					c1.8,0,3.3,1.5,3.3,3.3c0,1.8-1.5,3.3-3.3,3.3h-9.1V90h9.1c1.8,0,3.3,1.5,3.3,3.3c0,1.8-1.5,3.3-3.3,3.3h-12.3
					c-1.8,0-3.3-1.5-3.3-3.3V81c0,0,0,0,0,0V68.6c0-1.8,1.5-3.3,3.3-3.3h12.3c1.8,0,3.3,1.5,3.3,3.3c0,1.8-1.5,3.3-3.3,3.3h-9.1v5.8
					H360.9z"/>
			</g>
		</g>
	</g>
</g>
<g id="TYPE_D" class="st0">
	<g class="st2">
		<path class="st6" d="M609.8,2.5L501.3,2.3c-17,0-30.9,13.8-30.9,30.8l-0.2,108.5c0,17,13.8,30.9,30.8,30.9l108.5,0.2
			c17,0,30.9-13.8,30.9-30.8l0.2-108.5C640.6,16.3,626.8,2.5,609.8,2.5z"/>
		<g>
			<g>
				<path class="st4" d="M616,78.5c0-27.8-27.8-50.3-62-50.3c-34.2,0-62,22.6-62,50.3c0,24.9,22.1,45.7,51.9,49.7
					c2,0.4,4.8,1.3,5.5,3.1c0.6,1.6,0.4,4,0.2,5.6c0,0-0.7,4.4-0.9,5.3c-0.3,1.6-1.2,6.1,5.4,3.3c6.6-2.8,35.7-21,48.7-36h0
					C611.7,99.6,616,89.6,616,78.5z M529.6,95h-12.3c-1.8,0-3.3-1.5-3.3-3.3V67.1c0-1.8,1.5-3.3,3.3-3.3c1.8,0,3.3,1.5,3.3,3.3v21.4
					h9.1c1.8,0,3.3,1.5,3.3,3.3C532.9,93.5,531.4,95,529.6,95z M542.4,91.7c0,1.8-1.5,3.3-3.3,3.3c-1.8,0-3.3-1.5-3.3-3.3V67.1
					c0-1.8,1.5-3.3,3.3-3.3c1.8,0,3.3,1.5,3.3,3.3V91.7z M572.1,91.7c0,1.4-0.9,2.6-2.2,3.1c-0.3,0.1-0.7,0.2-1,0.2
					c-1,0-2-0.5-2.6-1.3l-12.6-17.2v15.2c0,1.8-1.5,3.3-3.3,3.3c-1.8,0-3.3-1.5-3.3-3.3V67.1c0-1.4,0.9-2.6,2.2-3.1
					c0.3-0.1,0.7-0.2,1-0.2c1,0,2,0.5,2.6,1.3l12.6,17.2V67.1c0-1.8,1.5-3.3,3.3-3.3c1.8,0,3.3,1.5,3.3,3.3V91.7z M592,76.2
					c1.8,0,3.3,1.5,3.3,3.3c0,1.8-1.5,3.3-3.3,3.3h-9.1v5.8h9.1c1.8,0,3.3,1.5,3.3,3.3c0,1.8-1.5,3.3-3.3,3.3h-12.3
					c-1.8,0-3.3-1.5-3.3-3.3V79.4c0,0,0,0,0,0c0,0,0,0,0,0V67.1c0-1.8,1.5-3.3,3.3-3.3H592c1.8,0,3.3,1.5,3.3,3.3
					c0,1.8-1.5,3.3-3.3,3.3h-9.1v5.8H592z"/>
			</g>
		</g>
	</g>
</g>
<g id="TYPE_E" class="st0">
	<g class="st2">
		<path d="M144.4,239.6l-108.5-0.2c-17,0-30.9,13.8-30.9,30.8L4.9,378.8c0,17,13.8,30.9,30.8,30.9l108.5,0.2
			c17,0,30.9-13.8,30.9-30.8l0.2-108.5C175.3,253.5,161.5,239.6,144.4,239.6z"/>
		<g>
			<g>
				<path class="st6" d="M152.1,317.1c0-27.8-27.8-50.3-62-50.3c-34.2,0-62,22.6-62,50.3c0,24.9,22.1,45.7,51.9,49.7
					c2,0.4,4.8,1.3,5.5,3.1c0.6,1.6,0.4,4,0.2,5.6c0,0-0.7,4.4-0.9,5.3c-0.3,1.6-1.3,6.1,5.4,3.3c6.6-2.8,35.7-21,48.7-36h0
					C147.8,338.3,152.1,328.3,152.1,317.1z M65.8,333.7H53.5c-1.8,0-3.3-1.5-3.3-3.3v-24.7c0-1.8,1.5-3.3,3.3-3.3
					c1.8,0,3.3,1.5,3.3,3.3v21.4h9.1c1.8,0,3.3,1.5,3.3,3.3C69.1,332.2,67.6,333.7,65.8,333.7z M78.6,330.4c0,1.8-1.5,3.3-3.3,3.3
					c-1.8,0-3.3-1.5-3.3-3.3v-24.7c0-1.8,1.5-3.3,3.3-3.3c1.8,0,3.3,1.5,3.3,3.3V330.4z M108.2,330.4c0,1.4-0.9,2.6-2.2,3.1
					c-0.3,0.1-0.7,0.2-1,0.2c-1,0-2-0.5-2.6-1.3l-12.6-17.2v15.2c0,1.8-1.5,3.3-3.3,3.3c-1.8,0-3.3-1.5-3.3-3.3v-24.7
					c0-1.4,0.9-2.6,2.2-3.1c0.3-0.1,0.7-0.2,1-0.2c1,0,2,0.5,2.6,1.3l12.6,17.2v-15.3c0-1.8,1.5-3.3,3.3-3.3c1.8,0,3.3,1.5,3.3,3.3
					V330.4z M128.2,314.8c1.8,0,3.3,1.5,3.3,3.3c0,1.8-1.5,3.3-3.3,3.3h-9.1v5.8h9.1c1.8,0,3.3,1.5,3.3,3.3c0,1.8-1.5,3.3-3.3,3.3
					h-12.3c-1.8,0-3.3-1.5-3.3-3.3v-12.3c0,0,0,0,0,0c0,0,0,0,0,0v-12.3c0-1.8,1.5-3.3,3.3-3.3h12.3c1.8,0,3.3,1.5,3.3,3.3
					c0,1.8-1.5,3.3-3.3,3.3h-9.1v5.8H128.2z"/>
			</g>
		</g>
	</g>
</g>
<g id="TYPE_F" class="st0">
	<g class="st2">
		<path class="st6" d="M377.1,239.1l-108.5-0.2c-17,0-30.9,13.8-30.9,30.8l-0.2,108.5c0,17,13.8,30.9,30.8,30.9l108.5,0.2
			c17,0,30.9-13.8,30.9-30.8L408,270C408,252.9,394.2,239.1,377.1,239.1z"/>
		<g>
			<g>
				<path d="M384.8,316.7c0-27.8-27.8-50.3-62-50.3c-34.2,0-62,22.6-62,50.3c0,24.9,22.1,45.7,51.9,49.7c2,0.4,4.8,1.3,5.5,3.1
					c0.6,1.6,0.4,4,0.2,5.6c0,0-0.7,4.4-0.9,5.3c-0.3,1.6-1.2,6.1,5.4,3.3c6.6-2.8,35.7-21,48.7-36h0
					C380.5,337.8,384.8,327.8,384.8,316.7z M298.5,333.2h-12.3c-1.8,0-3.3-1.5-3.3-3.3v-24.7c0-1.8,1.5-3.3,3.3-3.3
					c1.8,0,3.3,1.5,3.3,3.3v21.4h9.1c1.8,0,3.3,1.5,3.3,3.3C301.8,331.7,300.3,333.2,298.5,333.2z M311.3,329.9
					c0,1.8-1.5,3.3-3.3,3.3c-1.8,0-3.3-1.5-3.3-3.3v-24.7c0-1.8,1.5-3.3,3.3-3.3c1.8,0,3.3,1.5,3.3,3.3V329.9z M340.9,329.9
					c0,1.4-0.9,2.6-2.2,3.1c-0.3,0.1-0.7,0.2-1,0.2c-1,0-2-0.5-2.6-1.3l-12.6-17.2v15.2c0,1.8-1.5,3.3-3.3,3.3
					c-1.8,0-3.3-1.5-3.3-3.3v-24.7c0-1.4,0.9-2.6,2.2-3.1c0.3-0.1,0.7-0.2,1-0.2c1,0,2,0.5,2.6,1.3l12.6,17.2v-15.3
					c0-1.8,1.5-3.3,3.3-3.3c1.8,0,3.3,1.5,3.3,3.3V329.9z M360.9,314.3c1.8,0,3.3,1.5,3.3,3.3c0,1.8-1.5,3.3-3.3,3.3h-9.1v5.8h9.1
					c1.8,0,3.3,1.5,3.3,3.3c0,1.8-1.5,3.3-3.3,3.3h-12.3c-1.8,0-3.3-1.5-3.3-3.3v-12.3c0,0,0,0,0,0c0,0,0,0,0,0v-12.3
					c0-1.8,1.5-3.3,3.3-3.3h12.3c1.8,0,3.3,1.5,3.3,3.3c0,1.8-1.5,3.3-3.3,3.3h-9.1v5.8H360.9z"/>
			</g>
		</g>
	</g>
</g>
<g id="Layer_9" class="st0">
</g>
</svg>
